G04 #@! TF.GenerationSoftware,KiCad,Pcbnew,(5.1.5)-3*
G04 #@! TF.CreationDate,2020-11-29T18:23:40-05:00*
G04 #@! TF.ProjectId,Buck_Controle,4275636b-5f43-46f6-9e74-726f6c652e6b,rev?*
G04 #@! TF.SameCoordinates,Original*
G04 #@! TF.FileFunction,Soldermask,Bot*
G04 #@! TF.FilePolarity,Negative*
%FSLAX46Y46*%
G04 Gerber Fmt 4.6, Leading zero omitted, Abs format (unit mm)*
G04 Created by KiCad (PCBNEW (5.1.5)-3) date 2020-11-29 18:23:40*
%MOMM*%
%LPD*%
G04 APERTURE LIST*
%ADD10C,0.100000*%
G04 APERTURE END LIST*
D10*
G36*
X199995549Y-99014116D02*
G01*
X200106734Y-99036232D01*
X200316203Y-99122997D01*
X200504720Y-99248960D01*
X200665040Y-99409280D01*
X200791003Y-99597797D01*
X200877768Y-99807266D01*
X200922000Y-100029636D01*
X200922000Y-100256364D01*
X200877768Y-100478734D01*
X200791003Y-100688203D01*
X200665040Y-100876720D01*
X200504720Y-101037040D01*
X200316203Y-101163003D01*
X200106734Y-101249768D01*
X199995549Y-101271884D01*
X199884365Y-101294000D01*
X199657635Y-101294000D01*
X199546451Y-101271884D01*
X199435266Y-101249768D01*
X199225797Y-101163003D01*
X199037280Y-101037040D01*
X198876960Y-100876720D01*
X198750997Y-100688203D01*
X198664232Y-100478734D01*
X198620000Y-100256364D01*
X198620000Y-100029636D01*
X198664232Y-99807266D01*
X198750997Y-99597797D01*
X198876960Y-99409280D01*
X199037280Y-99248960D01*
X199225797Y-99122997D01*
X199435266Y-99036232D01*
X199546451Y-99014116D01*
X199657635Y-98992000D01*
X199884365Y-98992000D01*
X199995549Y-99014116D01*
G37*
G36*
X233724549Y-98871116D02*
G01*
X233835734Y-98893232D01*
X234045203Y-98979997D01*
X234233720Y-99105960D01*
X234394040Y-99266280D01*
X234520003Y-99454797D01*
X234606768Y-99664266D01*
X234651000Y-99886636D01*
X234651000Y-100113364D01*
X234606768Y-100335734D01*
X234520003Y-100545203D01*
X234394040Y-100733720D01*
X234233720Y-100894040D01*
X234045203Y-101020003D01*
X233835734Y-101106768D01*
X233724549Y-101128884D01*
X233613365Y-101151000D01*
X233386635Y-101151000D01*
X233275451Y-101128884D01*
X233164266Y-101106768D01*
X232954797Y-101020003D01*
X232766280Y-100894040D01*
X232605960Y-100733720D01*
X232479997Y-100545203D01*
X232393232Y-100335734D01*
X232349000Y-100113364D01*
X232349000Y-99886636D01*
X232393232Y-99664266D01*
X232479997Y-99454797D01*
X232605960Y-99266280D01*
X232766280Y-99105960D01*
X232954797Y-98979997D01*
X233164266Y-98893232D01*
X233275451Y-98871116D01*
X233386635Y-98849000D01*
X233613365Y-98849000D01*
X233724549Y-98871116D01*
G37*
G36*
X227802585Y-96728802D02*
G01*
X227952410Y-96758604D01*
X228234674Y-96875521D01*
X228488705Y-97045259D01*
X228704741Y-97261295D01*
X228874479Y-97515326D01*
X228991396Y-97797590D01*
X229051000Y-98097240D01*
X229051000Y-98402760D01*
X228991396Y-98702410D01*
X228874479Y-98984674D01*
X228704741Y-99238705D01*
X228488705Y-99454741D01*
X228234674Y-99624479D01*
X227952410Y-99741396D01*
X227802585Y-99771198D01*
X227652761Y-99801000D01*
X227347239Y-99801000D01*
X227197415Y-99771198D01*
X227047590Y-99741396D01*
X226765326Y-99624479D01*
X226511295Y-99454741D01*
X226295259Y-99238705D01*
X226125521Y-98984674D01*
X226008604Y-98702410D01*
X225949000Y-98402760D01*
X225949000Y-98097240D01*
X226008604Y-97797590D01*
X226125521Y-97515326D01*
X226295259Y-97261295D01*
X226511295Y-97045259D01*
X226765326Y-96875521D01*
X227047590Y-96758604D01*
X227197415Y-96728802D01*
X227347239Y-96699000D01*
X227652761Y-96699000D01*
X227802585Y-96728802D01*
G37*
G36*
X223971000Y-99801000D02*
G01*
X220869000Y-99801000D01*
X220869000Y-96699000D01*
X223971000Y-96699000D01*
X223971000Y-99801000D01*
G37*
G36*
X212051000Y-72551000D02*
G01*
X208949000Y-72551000D01*
X208949000Y-69449000D01*
X212051000Y-69449000D01*
X212051000Y-72551000D01*
G37*
G36*
X205722585Y-69478802D02*
G01*
X205872410Y-69508604D01*
X206154674Y-69625521D01*
X206408705Y-69795259D01*
X206624741Y-70011295D01*
X206794479Y-70265326D01*
X206911396Y-70547590D01*
X206971000Y-70847240D01*
X206971000Y-71152760D01*
X206911396Y-71452410D01*
X206794479Y-71734674D01*
X206624741Y-71988705D01*
X206408705Y-72204741D01*
X206154674Y-72374479D01*
X205872410Y-72491396D01*
X205722585Y-72521198D01*
X205572761Y-72551000D01*
X205267239Y-72551000D01*
X205117415Y-72521198D01*
X204967590Y-72491396D01*
X204685326Y-72374479D01*
X204431295Y-72204741D01*
X204215259Y-71988705D01*
X204045521Y-71734674D01*
X203928604Y-71452410D01*
X203869000Y-71152760D01*
X203869000Y-70847240D01*
X203928604Y-70547590D01*
X204045521Y-70265326D01*
X204215259Y-70011295D01*
X204431295Y-69795259D01*
X204685326Y-69625521D01*
X204967590Y-69508604D01*
X205117415Y-69478802D01*
X205267239Y-69449000D01*
X205572761Y-69449000D01*
X205722585Y-69478802D01*
G37*
G36*
X233904549Y-68848116D02*
G01*
X234015734Y-68870232D01*
X234225203Y-68956997D01*
X234413720Y-69082960D01*
X234574040Y-69243280D01*
X234700003Y-69431797D01*
X234786768Y-69641266D01*
X234831000Y-69863636D01*
X234831000Y-70090364D01*
X234786768Y-70312734D01*
X234700003Y-70522203D01*
X234574040Y-70710720D01*
X234413720Y-70871040D01*
X234225203Y-70997003D01*
X234015734Y-71083768D01*
X233904549Y-71105884D01*
X233793365Y-71128000D01*
X233566635Y-71128000D01*
X233455451Y-71105884D01*
X233344266Y-71083768D01*
X233134797Y-70997003D01*
X232946280Y-70871040D01*
X232785960Y-70710720D01*
X232659997Y-70522203D01*
X232573232Y-70312734D01*
X232529000Y-70090364D01*
X232529000Y-69863636D01*
X232573232Y-69641266D01*
X232659997Y-69431797D01*
X232785960Y-69243280D01*
X232946280Y-69082960D01*
X233134797Y-68956997D01*
X233344266Y-68870232D01*
X233455451Y-68848116D01*
X233566635Y-68826000D01*
X233793365Y-68826000D01*
X233904549Y-68848116D01*
G37*
G36*
X199995549Y-68848116D02*
G01*
X200106734Y-68870232D01*
X200316203Y-68956997D01*
X200504720Y-69082960D01*
X200665040Y-69243280D01*
X200791003Y-69431797D01*
X200877768Y-69641266D01*
X200922000Y-69863636D01*
X200922000Y-70090364D01*
X200877768Y-70312734D01*
X200791003Y-70522203D01*
X200665040Y-70710720D01*
X200504720Y-70871040D01*
X200316203Y-70997003D01*
X200106734Y-71083768D01*
X199995549Y-71105884D01*
X199884365Y-71128000D01*
X199657635Y-71128000D01*
X199546451Y-71105884D01*
X199435266Y-71083768D01*
X199225797Y-70997003D01*
X199037280Y-70871040D01*
X198876960Y-70710720D01*
X198750997Y-70522203D01*
X198664232Y-70312734D01*
X198620000Y-70090364D01*
X198620000Y-69863636D01*
X198664232Y-69641266D01*
X198750997Y-69431797D01*
X198876960Y-69243280D01*
X199037280Y-69082960D01*
X199225797Y-68956997D01*
X199435266Y-68870232D01*
X199546451Y-68848116D01*
X199657635Y-68826000D01*
X199884365Y-68826000D01*
X199995549Y-68848116D01*
G37*
M02*
