%FSLAX45Y45*%
G04 Gerber Fmt 4.5, Leading zero omitted, Abs format (unit mm)*
G04 Created by KiCad (PCBNEW (5.1.5)-3) date 2020-11-29 18:49:34*
%MOMM*%
%LPD*%
G04 APERTURE LIST*
%TA.AperFunction,Profile*%
%ADD10C,0.050000*%
%TD*%
%ADD11C,0.200000*%
%ADD12C,0.300000*%
G04 APERTURE END LIST*
D10*
X23368000Y-6692900D02*
G75*
G02X23672800Y-6997700I0J-304800D01*
G01*
X23670700Y-10020200D02*
X23672800Y-6997700D01*
X23365900Y-10325000D02*
X19975000Y-10325000D01*
X19977100Y-6692900D02*
X23368000Y-6692900D01*
X23670700Y-10020200D02*
G75*
G02X23365900Y-10325000I-304800J0D01*
G01*
X19670200Y-10020200D02*
X19672300Y-6997700D01*
X19975000Y-10325000D02*
G75*
G02X19670200Y-10020200I0J304800D01*
G01*
X19672300Y-6997700D02*
G75*
G02X19977100Y-6692900I304800J0D01*
G01*
D11*
X20035500Y-8253500D02*
X20065500Y-8283500D01*
X20065500Y-8253500D02*
X20035500Y-8283500D01*
X20035500Y-8373500D02*
X20065500Y-8403500D01*
X20065500Y-8373500D02*
X20035500Y-8403500D01*
X20035500Y-8503500D02*
X20065500Y-8533500D01*
X20065500Y-8503500D02*
X20035500Y-8533500D01*
X20035500Y-8613500D02*
X20065500Y-8643500D01*
X20065500Y-8613500D02*
X20035500Y-8643500D01*
X20155500Y-8253500D02*
X20185500Y-8283500D01*
X20185500Y-8253500D02*
X20155500Y-8283500D01*
X20155500Y-8373500D02*
X20185500Y-8403500D01*
X20185500Y-8373500D02*
X20155500Y-8403500D01*
X20155500Y-8503500D02*
X20185500Y-8533500D01*
X20185500Y-8503500D02*
X20155500Y-8533500D01*
X20155500Y-8613500D02*
X20185500Y-8643500D01*
X20185500Y-8613500D02*
X20155500Y-8643500D01*
X20645000Y-8025000D02*
G75*
G03X20645000Y-8025000I-20000J0D01*
G01*
X20645000Y-8150000D02*
G75*
G03X20645000Y-8150000I-20000J0D01*
G01*
X20845000Y-8025000D02*
G75*
G03X20845000Y-8025000I-20000J0D01*
G01*
X20845000Y-8150000D02*
G75*
G03X20845000Y-8150000I-20000J0D01*
G01*
X21045000Y-8025000D02*
G75*
G03X21045000Y-8025000I-20000J0D01*
G01*
X21045000Y-8150000D02*
G75*
G03X21045000Y-8150000I-20000J0D01*
G01*
X21220000Y-8025000D02*
G75*
G03X21220000Y-8025000I-20000J0D01*
G01*
X21220000Y-8150000D02*
G75*
G03X21220000Y-8150000I-20000J0D01*
G01*
X22242000Y-9749000D02*
X22242000Y-9901000D01*
X22166000Y-9825000D02*
X22318000Y-9825000D01*
X22750000Y-9749000D02*
X22750000Y-9901000D01*
X22674000Y-9825000D02*
X22826000Y-9825000D01*
X20542000Y-7024000D02*
X20542000Y-7176000D01*
X20466000Y-7100000D02*
X20618000Y-7100000D01*
X21050000Y-7024000D02*
X21050000Y-7176000D01*
X20974000Y-7100000D02*
X21126000Y-7100000D01*
X20054883Y-7075482D02*
X20054883Y-6919917D01*
X19899318Y-6919917D01*
X19899318Y-7075482D01*
X20054883Y-7075482D01*
X20054883Y-10092083D02*
X20054883Y-9936518D01*
X19899318Y-9936518D01*
X19899318Y-10092083D01*
X20054883Y-10092083D01*
X23427782Y-10077783D02*
X23427782Y-9922218D01*
X23272217Y-9922218D01*
X23272217Y-10077783D01*
X23427782Y-10077783D01*
X23445782Y-7075482D02*
X23445782Y-6919917D01*
X23290217Y-6919917D01*
X23290217Y-7075482D01*
X23445782Y-7075482D01*
D12*
X19954128Y-10793214D02*
X19954128Y-10493214D01*
X20025557Y-10493214D01*
X20068414Y-10507500D01*
X20096986Y-10536072D01*
X20111271Y-10564643D01*
X20125557Y-10621786D01*
X20125557Y-10664643D01*
X20111271Y-10721786D01*
X20096986Y-10750357D01*
X20068414Y-10778929D01*
X20025557Y-10793214D01*
X19954128Y-10793214D01*
X20254128Y-10793214D02*
X20254128Y-10593214D01*
X20254128Y-10650357D02*
X20268414Y-10621786D01*
X20282700Y-10607500D01*
X20311271Y-10593214D01*
X20339843Y-10593214D01*
X20439843Y-10793214D02*
X20439843Y-10593214D01*
X20439843Y-10493214D02*
X20425557Y-10507500D01*
X20439843Y-10521786D01*
X20454128Y-10507500D01*
X20439843Y-10493214D01*
X20439843Y-10521786D01*
X20625557Y-10793214D02*
X20596986Y-10778929D01*
X20582700Y-10750357D01*
X20582700Y-10493214D01*
X20782700Y-10793214D02*
X20754128Y-10778929D01*
X20739843Y-10750357D01*
X20739843Y-10493214D01*
X21125557Y-10793214D02*
X21125557Y-10493214D01*
X21225557Y-10707500D01*
X21325557Y-10493214D01*
X21325557Y-10793214D01*
X21596986Y-10793214D02*
X21596986Y-10636072D01*
X21582700Y-10607500D01*
X21554128Y-10593214D01*
X21496986Y-10593214D01*
X21468414Y-10607500D01*
X21596986Y-10778929D02*
X21568414Y-10793214D01*
X21496986Y-10793214D01*
X21468414Y-10778929D01*
X21454128Y-10750357D01*
X21454128Y-10721786D01*
X21468414Y-10693214D01*
X21496986Y-10678929D01*
X21568414Y-10678929D01*
X21596986Y-10664643D01*
X21739843Y-10593214D02*
X21739843Y-10893214D01*
X21739843Y-10607500D02*
X21768414Y-10593214D01*
X21825557Y-10593214D01*
X21854128Y-10607500D01*
X21868414Y-10621786D01*
X21882700Y-10650357D01*
X21882700Y-10736072D01*
X21868414Y-10764643D01*
X21854128Y-10778929D01*
X21825557Y-10793214D01*
X21768414Y-10793214D01*
X21739843Y-10778929D01*
X22011271Y-10764643D02*
X22025557Y-10778929D01*
X22011271Y-10793214D01*
X21996986Y-10778929D01*
X22011271Y-10764643D01*
X22011271Y-10793214D01*
X22011271Y-10607500D02*
X22025557Y-10621786D01*
X22011271Y-10636072D01*
X21996986Y-10621786D01*
X22011271Y-10607500D01*
X22011271Y-10636072D01*
X19637700Y-11272500D02*
X19667700Y-11302500D01*
X19667700Y-11272500D02*
X19637700Y-11302500D01*
X20011271Y-11123214D02*
X20039843Y-11123214D01*
X20068414Y-11137500D01*
X20082700Y-11151786D01*
X20096986Y-11180357D01*
X20111271Y-11237500D01*
X20111271Y-11308929D01*
X20096986Y-11366071D01*
X20082700Y-11394643D01*
X20068414Y-11408929D01*
X20039843Y-11423214D01*
X20011271Y-11423214D01*
X19982700Y-11408929D01*
X19968414Y-11394643D01*
X19954128Y-11366071D01*
X19939843Y-11308929D01*
X19939843Y-11237500D01*
X19954128Y-11180357D01*
X19968414Y-11151786D01*
X19982700Y-11137500D01*
X20011271Y-11123214D01*
X20239843Y-11394643D02*
X20254128Y-11408929D01*
X20239843Y-11423214D01*
X20225557Y-11408929D01*
X20239843Y-11394643D01*
X20239843Y-11423214D01*
X20354128Y-11123214D02*
X20539843Y-11123214D01*
X20439843Y-11237500D01*
X20482700Y-11237500D01*
X20511271Y-11251786D01*
X20525557Y-11266071D01*
X20539843Y-11294643D01*
X20539843Y-11366071D01*
X20525557Y-11394643D01*
X20511271Y-11408929D01*
X20482700Y-11423214D01*
X20396986Y-11423214D01*
X20368414Y-11408929D01*
X20354128Y-11394643D01*
X20725557Y-11123214D02*
X20754128Y-11123214D01*
X20782700Y-11137500D01*
X20796986Y-11151786D01*
X20811271Y-11180357D01*
X20825557Y-11237500D01*
X20825557Y-11308929D01*
X20811271Y-11366071D01*
X20796986Y-11394643D01*
X20782700Y-11408929D01*
X20754128Y-11423214D01*
X20725557Y-11423214D01*
X20696986Y-11408929D01*
X20682700Y-11394643D01*
X20668414Y-11366071D01*
X20654128Y-11308929D01*
X20654128Y-11237500D01*
X20668414Y-11180357D01*
X20682700Y-11151786D01*
X20696986Y-11137500D01*
X20725557Y-11123214D01*
X20954128Y-11423214D02*
X20954128Y-11223214D01*
X20954128Y-11251786D02*
X20968414Y-11237500D01*
X20996986Y-11223214D01*
X21039843Y-11223214D01*
X21068414Y-11237500D01*
X21082700Y-11266071D01*
X21082700Y-11423214D01*
X21082700Y-11266071D02*
X21096986Y-11237500D01*
X21125557Y-11223214D01*
X21168414Y-11223214D01*
X21196986Y-11237500D01*
X21211271Y-11266071D01*
X21211271Y-11423214D01*
X21354128Y-11423214D02*
X21354128Y-11223214D01*
X21354128Y-11251786D02*
X21368414Y-11237500D01*
X21396986Y-11223214D01*
X21439843Y-11223214D01*
X21468414Y-11237500D01*
X21482700Y-11266071D01*
X21482700Y-11423214D01*
X21482700Y-11266071D02*
X21496986Y-11237500D01*
X21525557Y-11223214D01*
X21568414Y-11223214D01*
X21596986Y-11237500D01*
X21611271Y-11266071D01*
X21611271Y-11423214D01*
X22196986Y-11108929D02*
X21939843Y-11494643D01*
X22582700Y-11123214D02*
X22611271Y-11123214D01*
X22639843Y-11137500D01*
X22654128Y-11151786D01*
X22668414Y-11180357D01*
X22682700Y-11237500D01*
X22682700Y-11308929D01*
X22668414Y-11366071D01*
X22654128Y-11394643D01*
X22639843Y-11408929D01*
X22611271Y-11423214D01*
X22582700Y-11423214D01*
X22554128Y-11408929D01*
X22539843Y-11394643D01*
X22525557Y-11366071D01*
X22511271Y-11308929D01*
X22511271Y-11237500D01*
X22525557Y-11180357D01*
X22539843Y-11151786D01*
X22554128Y-11137500D01*
X22582700Y-11123214D01*
X22811271Y-11394643D02*
X22825557Y-11408929D01*
X22811271Y-11423214D01*
X22796986Y-11408929D01*
X22811271Y-11394643D01*
X22811271Y-11423214D01*
X23011271Y-11123214D02*
X23039843Y-11123214D01*
X23068414Y-11137500D01*
X23082700Y-11151786D01*
X23096986Y-11180357D01*
X23111271Y-11237500D01*
X23111271Y-11308929D01*
X23096986Y-11366071D01*
X23082700Y-11394643D01*
X23068414Y-11408929D01*
X23039843Y-11423214D01*
X23011271Y-11423214D01*
X22982700Y-11408929D01*
X22968414Y-11394643D01*
X22954128Y-11366071D01*
X22939843Y-11308929D01*
X22939843Y-11237500D01*
X22954128Y-11180357D01*
X22968414Y-11151786D01*
X22982700Y-11137500D01*
X23011271Y-11123214D01*
X23396986Y-11423214D02*
X23225557Y-11423214D01*
X23311271Y-11423214D02*
X23311271Y-11123214D01*
X23282700Y-11166072D01*
X23254128Y-11194643D01*
X23225557Y-11208929D01*
X23511271Y-11151786D02*
X23525557Y-11137500D01*
X23554128Y-11123214D01*
X23625557Y-11123214D01*
X23654128Y-11137500D01*
X23668414Y-11151786D01*
X23682700Y-11180357D01*
X23682700Y-11208929D01*
X23668414Y-11251786D01*
X23496986Y-11423214D01*
X23682700Y-11423214D01*
X23796986Y-11123214D02*
X23796986Y-11180357D01*
X23911271Y-11123214D02*
X23911271Y-11180357D01*
X24354128Y-11537500D02*
X24339843Y-11523214D01*
X24311271Y-11480357D01*
X24296986Y-11451786D01*
X24282700Y-11408929D01*
X24268414Y-11337500D01*
X24268414Y-11280357D01*
X24282700Y-11208929D01*
X24296986Y-11166072D01*
X24311271Y-11137500D01*
X24339843Y-11094643D01*
X24354128Y-11080357D01*
X24511271Y-11251786D02*
X24482700Y-11237500D01*
X24468414Y-11223214D01*
X24454128Y-11194643D01*
X24454128Y-11180357D01*
X24468414Y-11151786D01*
X24482700Y-11137500D01*
X24511271Y-11123214D01*
X24568414Y-11123214D01*
X24596986Y-11137500D01*
X24611271Y-11151786D01*
X24625557Y-11180357D01*
X24625557Y-11194643D01*
X24611271Y-11223214D01*
X24596986Y-11237500D01*
X24568414Y-11251786D01*
X24511271Y-11251786D01*
X24482700Y-11266071D01*
X24468414Y-11280357D01*
X24454128Y-11308929D01*
X24454128Y-11366071D01*
X24468414Y-11394643D01*
X24482700Y-11408929D01*
X24511271Y-11423214D01*
X24568414Y-11423214D01*
X24596986Y-11408929D01*
X24611271Y-11394643D01*
X24625557Y-11366071D01*
X24625557Y-11308929D01*
X24611271Y-11280357D01*
X24596986Y-11266071D01*
X24568414Y-11251786D01*
X24982700Y-11423214D02*
X24982700Y-11123214D01*
X25111271Y-11423214D02*
X25111271Y-11266071D01*
X25096986Y-11237500D01*
X25068414Y-11223214D01*
X25025557Y-11223214D01*
X24996986Y-11237500D01*
X24982700Y-11251786D01*
X25296986Y-11423214D02*
X25268414Y-11408929D01*
X25254128Y-11394643D01*
X25239843Y-11366071D01*
X25239843Y-11280357D01*
X25254128Y-11251786D01*
X25268414Y-11237500D01*
X25296986Y-11223214D01*
X25339843Y-11223214D01*
X25368414Y-11237500D01*
X25382700Y-11251786D01*
X25396986Y-11280357D01*
X25396986Y-11366071D01*
X25382700Y-11394643D01*
X25368414Y-11408929D01*
X25339843Y-11423214D01*
X25296986Y-11423214D01*
X25568414Y-11423214D02*
X25539843Y-11408929D01*
X25525557Y-11380357D01*
X25525557Y-11123214D01*
X25796986Y-11408929D02*
X25768414Y-11423214D01*
X25711271Y-11423214D01*
X25682700Y-11408929D01*
X25668414Y-11380357D01*
X25668414Y-11266071D01*
X25682700Y-11237500D01*
X25711271Y-11223214D01*
X25768414Y-11223214D01*
X25796986Y-11237500D01*
X25811271Y-11266071D01*
X25811271Y-11294643D01*
X25668414Y-11323214D01*
X25925557Y-11408929D02*
X25954128Y-11423214D01*
X26011271Y-11423214D01*
X26039843Y-11408929D01*
X26054128Y-11380357D01*
X26054128Y-11366071D01*
X26039843Y-11337500D01*
X26011271Y-11323214D01*
X25968414Y-11323214D01*
X25939843Y-11308929D01*
X25925557Y-11280357D01*
X25925557Y-11266071D01*
X25939843Y-11237500D01*
X25968414Y-11223214D01*
X26011271Y-11223214D01*
X26039843Y-11237500D01*
X26154128Y-11537500D02*
X26168414Y-11523214D01*
X26196986Y-11480357D01*
X26211271Y-11451786D01*
X26225557Y-11408929D01*
X26239843Y-11337500D01*
X26239843Y-11280357D01*
X26225557Y-11208929D01*
X26211271Y-11166072D01*
X26196986Y-11137500D01*
X26168414Y-11094643D01*
X26154128Y-11080357D01*
X19667700Y-11683500D02*
G75*
G03X19667700Y-11683500I-20000J0D01*
G01*
X20011271Y-11519214D02*
X20039843Y-11519214D01*
X20068414Y-11533500D01*
X20082700Y-11547786D01*
X20096986Y-11576357D01*
X20111271Y-11633500D01*
X20111271Y-11704929D01*
X20096986Y-11762071D01*
X20082700Y-11790643D01*
X20068414Y-11804929D01*
X20039843Y-11819214D01*
X20011271Y-11819214D01*
X19982700Y-11804929D01*
X19968414Y-11790643D01*
X19954128Y-11762071D01*
X19939843Y-11704929D01*
X19939843Y-11633500D01*
X19954128Y-11576357D01*
X19968414Y-11547786D01*
X19982700Y-11533500D01*
X20011271Y-11519214D01*
X20239843Y-11790643D02*
X20254128Y-11804929D01*
X20239843Y-11819214D01*
X20225557Y-11804929D01*
X20239843Y-11790643D01*
X20239843Y-11819214D01*
X20511271Y-11619214D02*
X20511271Y-11819214D01*
X20439843Y-11504929D02*
X20368414Y-11719214D01*
X20554128Y-11719214D01*
X20725557Y-11519214D02*
X20754128Y-11519214D01*
X20782700Y-11533500D01*
X20796986Y-11547786D01*
X20811271Y-11576357D01*
X20825557Y-11633500D01*
X20825557Y-11704929D01*
X20811271Y-11762071D01*
X20796986Y-11790643D01*
X20782700Y-11804929D01*
X20754128Y-11819214D01*
X20725557Y-11819214D01*
X20696986Y-11804929D01*
X20682700Y-11790643D01*
X20668414Y-11762071D01*
X20654128Y-11704929D01*
X20654128Y-11633500D01*
X20668414Y-11576357D01*
X20682700Y-11547786D01*
X20696986Y-11533500D01*
X20725557Y-11519214D01*
X20954128Y-11819214D02*
X20954128Y-11619214D01*
X20954128Y-11647786D02*
X20968414Y-11633500D01*
X20996986Y-11619214D01*
X21039843Y-11619214D01*
X21068414Y-11633500D01*
X21082700Y-11662071D01*
X21082700Y-11819214D01*
X21082700Y-11662071D02*
X21096986Y-11633500D01*
X21125557Y-11619214D01*
X21168414Y-11619214D01*
X21196986Y-11633500D01*
X21211271Y-11662071D01*
X21211271Y-11819214D01*
X21354128Y-11819214D02*
X21354128Y-11619214D01*
X21354128Y-11647786D02*
X21368414Y-11633500D01*
X21396986Y-11619214D01*
X21439843Y-11619214D01*
X21468414Y-11633500D01*
X21482700Y-11662071D01*
X21482700Y-11819214D01*
X21482700Y-11662071D02*
X21496986Y-11633500D01*
X21525557Y-11619214D01*
X21568414Y-11619214D01*
X21596986Y-11633500D01*
X21611271Y-11662071D01*
X21611271Y-11819214D01*
X22196986Y-11504929D02*
X21939843Y-11890643D01*
X22582700Y-11519214D02*
X22611271Y-11519214D01*
X22639843Y-11533500D01*
X22654128Y-11547786D01*
X22668414Y-11576357D01*
X22682700Y-11633500D01*
X22682700Y-11704929D01*
X22668414Y-11762071D01*
X22654128Y-11790643D01*
X22639843Y-11804929D01*
X22611271Y-11819214D01*
X22582700Y-11819214D01*
X22554128Y-11804929D01*
X22539843Y-11790643D01*
X22525557Y-11762071D01*
X22511271Y-11704929D01*
X22511271Y-11633500D01*
X22525557Y-11576357D01*
X22539843Y-11547786D01*
X22554128Y-11533500D01*
X22582700Y-11519214D01*
X22811271Y-11790643D02*
X22825557Y-11804929D01*
X22811271Y-11819214D01*
X22796986Y-11804929D01*
X22811271Y-11790643D01*
X22811271Y-11819214D01*
X23011271Y-11519214D02*
X23039843Y-11519214D01*
X23068414Y-11533500D01*
X23082700Y-11547786D01*
X23096986Y-11576357D01*
X23111271Y-11633500D01*
X23111271Y-11704929D01*
X23096986Y-11762071D01*
X23082700Y-11790643D01*
X23068414Y-11804929D01*
X23039843Y-11819214D01*
X23011271Y-11819214D01*
X22982700Y-11804929D01*
X22968414Y-11790643D01*
X22954128Y-11762071D01*
X22939843Y-11704929D01*
X22939843Y-11633500D01*
X22954128Y-11576357D01*
X22968414Y-11547786D01*
X22982700Y-11533500D01*
X23011271Y-11519214D01*
X23396986Y-11819214D02*
X23225557Y-11819214D01*
X23311271Y-11819214D02*
X23311271Y-11519214D01*
X23282700Y-11562071D01*
X23254128Y-11590643D01*
X23225557Y-11604929D01*
X23654128Y-11519214D02*
X23596986Y-11519214D01*
X23568414Y-11533500D01*
X23554128Y-11547786D01*
X23525557Y-11590643D01*
X23511271Y-11647786D01*
X23511271Y-11762071D01*
X23525557Y-11790643D01*
X23539843Y-11804929D01*
X23568414Y-11819214D01*
X23625557Y-11819214D01*
X23654128Y-11804929D01*
X23668414Y-11790643D01*
X23682700Y-11762071D01*
X23682700Y-11690643D01*
X23668414Y-11662071D01*
X23654128Y-11647786D01*
X23625557Y-11633500D01*
X23568414Y-11633500D01*
X23539843Y-11647786D01*
X23525557Y-11662071D01*
X23511271Y-11690643D01*
X23796986Y-11519214D02*
X23796986Y-11576357D01*
X23911271Y-11519214D02*
X23911271Y-11576357D01*
X24354128Y-11933500D02*
X24339843Y-11919214D01*
X24311271Y-11876357D01*
X24296986Y-11847786D01*
X24282700Y-11804929D01*
X24268414Y-11733500D01*
X24268414Y-11676357D01*
X24282700Y-11604929D01*
X24296986Y-11562071D01*
X24311271Y-11533500D01*
X24339843Y-11490643D01*
X24354128Y-11476357D01*
X24511271Y-11647786D02*
X24482700Y-11633500D01*
X24468414Y-11619214D01*
X24454128Y-11590643D01*
X24454128Y-11576357D01*
X24468414Y-11547786D01*
X24482700Y-11533500D01*
X24511271Y-11519214D01*
X24568414Y-11519214D01*
X24596986Y-11533500D01*
X24611271Y-11547786D01*
X24625557Y-11576357D01*
X24625557Y-11590643D01*
X24611271Y-11619214D01*
X24596986Y-11633500D01*
X24568414Y-11647786D01*
X24511271Y-11647786D01*
X24482700Y-11662071D01*
X24468414Y-11676357D01*
X24454128Y-11704929D01*
X24454128Y-11762071D01*
X24468414Y-11790643D01*
X24482700Y-11804929D01*
X24511271Y-11819214D01*
X24568414Y-11819214D01*
X24596986Y-11804929D01*
X24611271Y-11790643D01*
X24625557Y-11762071D01*
X24625557Y-11704929D01*
X24611271Y-11676357D01*
X24596986Y-11662071D01*
X24568414Y-11647786D01*
X24982700Y-11819214D02*
X24982700Y-11519214D01*
X25111271Y-11819214D02*
X25111271Y-11662071D01*
X25096986Y-11633500D01*
X25068414Y-11619214D01*
X25025557Y-11619214D01*
X24996986Y-11633500D01*
X24982700Y-11647786D01*
X25296986Y-11819214D02*
X25268414Y-11804929D01*
X25254128Y-11790643D01*
X25239843Y-11762071D01*
X25239843Y-11676357D01*
X25254128Y-11647786D01*
X25268414Y-11633500D01*
X25296986Y-11619214D01*
X25339843Y-11619214D01*
X25368414Y-11633500D01*
X25382700Y-11647786D01*
X25396986Y-11676357D01*
X25396986Y-11762071D01*
X25382700Y-11790643D01*
X25368414Y-11804929D01*
X25339843Y-11819214D01*
X25296986Y-11819214D01*
X25568414Y-11819214D02*
X25539843Y-11804929D01*
X25525557Y-11776357D01*
X25525557Y-11519214D01*
X25796986Y-11804929D02*
X25768414Y-11819214D01*
X25711271Y-11819214D01*
X25682700Y-11804929D01*
X25668414Y-11776357D01*
X25668414Y-11662071D01*
X25682700Y-11633500D01*
X25711271Y-11619214D01*
X25768414Y-11619214D01*
X25796986Y-11633500D01*
X25811271Y-11662071D01*
X25811271Y-11690643D01*
X25668414Y-11719214D01*
X25925557Y-11804929D02*
X25954128Y-11819214D01*
X26011271Y-11819214D01*
X26039843Y-11804929D01*
X26054128Y-11776357D01*
X26054128Y-11762071D01*
X26039843Y-11733500D01*
X26011271Y-11719214D01*
X25968414Y-11719214D01*
X25939843Y-11704929D01*
X25925557Y-11676357D01*
X25925557Y-11662071D01*
X25939843Y-11633500D01*
X25968414Y-11619214D01*
X26011271Y-11619214D01*
X26039843Y-11633500D01*
X26154128Y-11933500D02*
X26168414Y-11919214D01*
X26196986Y-11876357D01*
X26211271Y-11847786D01*
X26225557Y-11804929D01*
X26239843Y-11733500D01*
X26239843Y-11676357D01*
X26225557Y-11604929D01*
X26211271Y-11562071D01*
X26196986Y-11533500D01*
X26168414Y-11490643D01*
X26154128Y-11476357D01*
X19591700Y-12003500D02*
X19591700Y-12155500D01*
X19515700Y-12079500D02*
X19667700Y-12079500D01*
X20111271Y-12215214D02*
X19939843Y-12215214D01*
X20025557Y-12215214D02*
X20025557Y-11915214D01*
X19996986Y-11958071D01*
X19968414Y-11986643D01*
X19939843Y-12000929D01*
X20239843Y-12186643D02*
X20254128Y-12200929D01*
X20239843Y-12215214D01*
X20225557Y-12200929D01*
X20239843Y-12186643D01*
X20239843Y-12215214D01*
X20525557Y-11915214D02*
X20382700Y-11915214D01*
X20368414Y-12058071D01*
X20382700Y-12043786D01*
X20411271Y-12029500D01*
X20482700Y-12029500D01*
X20511271Y-12043786D01*
X20525557Y-12058071D01*
X20539843Y-12086643D01*
X20539843Y-12158071D01*
X20525557Y-12186643D01*
X20511271Y-12200929D01*
X20482700Y-12215214D01*
X20411271Y-12215214D01*
X20382700Y-12200929D01*
X20368414Y-12186643D01*
X20654128Y-11943786D02*
X20668414Y-11929500D01*
X20696986Y-11915214D01*
X20768414Y-11915214D01*
X20796986Y-11929500D01*
X20811271Y-11943786D01*
X20825557Y-11972357D01*
X20825557Y-12000929D01*
X20811271Y-12043786D01*
X20639843Y-12215214D01*
X20825557Y-12215214D01*
X20954128Y-12215214D02*
X20954128Y-12015214D01*
X20954128Y-12043786D02*
X20968414Y-12029500D01*
X20996986Y-12015214D01*
X21039843Y-12015214D01*
X21068414Y-12029500D01*
X21082700Y-12058071D01*
X21082700Y-12215214D01*
X21082700Y-12058071D02*
X21096986Y-12029500D01*
X21125557Y-12015214D01*
X21168414Y-12015214D01*
X21196986Y-12029500D01*
X21211271Y-12058071D01*
X21211271Y-12215214D01*
X21354128Y-12215214D02*
X21354128Y-12015214D01*
X21354128Y-12043786D02*
X21368414Y-12029500D01*
X21396986Y-12015214D01*
X21439843Y-12015214D01*
X21468414Y-12029500D01*
X21482700Y-12058071D01*
X21482700Y-12215214D01*
X21482700Y-12058071D02*
X21496986Y-12029500D01*
X21525557Y-12015214D01*
X21568414Y-12015214D01*
X21596986Y-12029500D01*
X21611271Y-12058071D01*
X21611271Y-12215214D01*
X22196986Y-11900929D02*
X21939843Y-12286643D01*
X22582700Y-11915214D02*
X22611271Y-11915214D01*
X22639843Y-11929500D01*
X22654128Y-11943786D01*
X22668414Y-11972357D01*
X22682700Y-12029500D01*
X22682700Y-12100929D01*
X22668414Y-12158071D01*
X22654128Y-12186643D01*
X22639843Y-12200929D01*
X22611271Y-12215214D01*
X22582700Y-12215214D01*
X22554128Y-12200929D01*
X22539843Y-12186643D01*
X22525557Y-12158071D01*
X22511271Y-12100929D01*
X22511271Y-12029500D01*
X22525557Y-11972357D01*
X22539843Y-11943786D01*
X22554128Y-11929500D01*
X22582700Y-11915214D01*
X22811271Y-12186643D02*
X22825557Y-12200929D01*
X22811271Y-12215214D01*
X22796986Y-12200929D01*
X22811271Y-12186643D01*
X22811271Y-12215214D01*
X23011271Y-11915214D02*
X23039843Y-11915214D01*
X23068414Y-11929500D01*
X23082700Y-11943786D01*
X23096986Y-11972357D01*
X23111271Y-12029500D01*
X23111271Y-12100929D01*
X23096986Y-12158071D01*
X23082700Y-12186643D01*
X23068414Y-12200929D01*
X23039843Y-12215214D01*
X23011271Y-12215214D01*
X22982700Y-12200929D01*
X22968414Y-12186643D01*
X22954128Y-12158071D01*
X22939843Y-12100929D01*
X22939843Y-12029500D01*
X22954128Y-11972357D01*
X22968414Y-11943786D01*
X22982700Y-11929500D01*
X23011271Y-11915214D01*
X23368414Y-11915214D02*
X23311271Y-11915214D01*
X23282700Y-11929500D01*
X23268414Y-11943786D01*
X23239843Y-11986643D01*
X23225557Y-12043786D01*
X23225557Y-12158071D01*
X23239843Y-12186643D01*
X23254128Y-12200929D01*
X23282700Y-12215214D01*
X23339843Y-12215214D01*
X23368414Y-12200929D01*
X23382700Y-12186643D01*
X23396986Y-12158071D01*
X23396986Y-12086643D01*
X23382700Y-12058071D01*
X23368414Y-12043786D01*
X23339843Y-12029500D01*
X23282700Y-12029500D01*
X23254128Y-12043786D01*
X23239843Y-12058071D01*
X23225557Y-12086643D01*
X23582700Y-11915214D02*
X23611271Y-11915214D01*
X23639843Y-11929500D01*
X23654128Y-11943786D01*
X23668414Y-11972357D01*
X23682700Y-12029500D01*
X23682700Y-12100929D01*
X23668414Y-12158071D01*
X23654128Y-12186643D01*
X23639843Y-12200929D01*
X23611271Y-12215214D01*
X23582700Y-12215214D01*
X23554128Y-12200929D01*
X23539843Y-12186643D01*
X23525557Y-12158071D01*
X23511271Y-12100929D01*
X23511271Y-12029500D01*
X23525557Y-11972357D01*
X23539843Y-11943786D01*
X23554128Y-11929500D01*
X23582700Y-11915214D01*
X23796986Y-11915214D02*
X23796986Y-11972357D01*
X23911271Y-11915214D02*
X23911271Y-11972357D01*
X24354128Y-12329500D02*
X24339843Y-12315214D01*
X24311271Y-12272357D01*
X24296986Y-12243786D01*
X24282700Y-12200929D01*
X24268414Y-12129500D01*
X24268414Y-12072357D01*
X24282700Y-12000929D01*
X24296986Y-11958071D01*
X24311271Y-11929500D01*
X24339843Y-11886643D01*
X24354128Y-11872357D01*
X24596986Y-12015214D02*
X24596986Y-12215214D01*
X24525557Y-11900929D02*
X24454128Y-12115214D01*
X24639843Y-12115214D01*
X24982700Y-12215214D02*
X24982700Y-11915214D01*
X25111271Y-12215214D02*
X25111271Y-12058071D01*
X25096986Y-12029500D01*
X25068414Y-12015214D01*
X25025557Y-12015214D01*
X24996986Y-12029500D01*
X24982700Y-12043786D01*
X25296986Y-12215214D02*
X25268414Y-12200929D01*
X25254128Y-12186643D01*
X25239843Y-12158071D01*
X25239843Y-12072357D01*
X25254128Y-12043786D01*
X25268414Y-12029500D01*
X25296986Y-12015214D01*
X25339843Y-12015214D01*
X25368414Y-12029500D01*
X25382700Y-12043786D01*
X25396986Y-12072357D01*
X25396986Y-12158071D01*
X25382700Y-12186643D01*
X25368414Y-12200929D01*
X25339843Y-12215214D01*
X25296986Y-12215214D01*
X25568414Y-12215214D02*
X25539843Y-12200929D01*
X25525557Y-12172357D01*
X25525557Y-11915214D01*
X25796986Y-12200929D02*
X25768414Y-12215214D01*
X25711271Y-12215214D01*
X25682700Y-12200929D01*
X25668414Y-12172357D01*
X25668414Y-12058071D01*
X25682700Y-12029500D01*
X25711271Y-12015214D01*
X25768414Y-12015214D01*
X25796986Y-12029500D01*
X25811271Y-12058071D01*
X25811271Y-12086643D01*
X25668414Y-12115214D01*
X25925557Y-12200929D02*
X25954128Y-12215214D01*
X26011271Y-12215214D01*
X26039843Y-12200929D01*
X26054128Y-12172357D01*
X26054128Y-12158071D01*
X26039843Y-12129500D01*
X26011271Y-12115214D01*
X25968414Y-12115214D01*
X25939843Y-12100929D01*
X25925557Y-12072357D01*
X25925557Y-12058071D01*
X25939843Y-12029500D01*
X25968414Y-12015214D01*
X26011271Y-12015214D01*
X26039843Y-12029500D01*
X26154128Y-12329500D02*
X26168414Y-12315214D01*
X26196986Y-12272357D01*
X26211271Y-12243786D01*
X26225557Y-12200929D01*
X26239843Y-12129500D01*
X26239843Y-12072357D01*
X26225557Y-12000929D01*
X26211271Y-11958071D01*
X26196986Y-11929500D01*
X26168414Y-11886643D01*
X26154128Y-11872357D01*
X19635482Y-12553283D02*
X19635482Y-12397718D01*
X19479917Y-12397718D01*
X19479917Y-12553283D01*
X19635482Y-12553283D01*
X19939843Y-12339786D02*
X19954128Y-12325500D01*
X19982700Y-12311214D01*
X20054128Y-12311214D01*
X20082700Y-12325500D01*
X20096986Y-12339786D01*
X20111271Y-12368357D01*
X20111271Y-12396929D01*
X20096986Y-12439786D01*
X19925557Y-12611214D01*
X20111271Y-12611214D01*
X20239843Y-12582643D02*
X20254128Y-12596929D01*
X20239843Y-12611214D01*
X20225557Y-12596929D01*
X20239843Y-12582643D01*
X20239843Y-12611214D01*
X20368414Y-12339786D02*
X20382700Y-12325500D01*
X20411271Y-12311214D01*
X20482700Y-12311214D01*
X20511271Y-12325500D01*
X20525557Y-12339786D01*
X20539843Y-12368357D01*
X20539843Y-12396929D01*
X20525557Y-12439786D01*
X20354128Y-12611214D01*
X20539843Y-12611214D01*
X20725557Y-12311214D02*
X20754128Y-12311214D01*
X20782700Y-12325500D01*
X20796986Y-12339786D01*
X20811271Y-12368357D01*
X20825557Y-12425500D01*
X20825557Y-12496929D01*
X20811271Y-12554071D01*
X20796986Y-12582643D01*
X20782700Y-12596929D01*
X20754128Y-12611214D01*
X20725557Y-12611214D01*
X20696986Y-12596929D01*
X20682700Y-12582643D01*
X20668414Y-12554071D01*
X20654128Y-12496929D01*
X20654128Y-12425500D01*
X20668414Y-12368357D01*
X20682700Y-12339786D01*
X20696986Y-12325500D01*
X20725557Y-12311214D01*
X20954128Y-12611214D02*
X20954128Y-12411214D01*
X20954128Y-12439786D02*
X20968414Y-12425500D01*
X20996986Y-12411214D01*
X21039843Y-12411214D01*
X21068414Y-12425500D01*
X21082700Y-12454071D01*
X21082700Y-12611214D01*
X21082700Y-12454071D02*
X21096986Y-12425500D01*
X21125557Y-12411214D01*
X21168414Y-12411214D01*
X21196986Y-12425500D01*
X21211271Y-12454071D01*
X21211271Y-12611214D01*
X21354128Y-12611214D02*
X21354128Y-12411214D01*
X21354128Y-12439786D02*
X21368414Y-12425500D01*
X21396986Y-12411214D01*
X21439843Y-12411214D01*
X21468414Y-12425500D01*
X21482700Y-12454071D01*
X21482700Y-12611214D01*
X21482700Y-12454071D02*
X21496986Y-12425500D01*
X21525557Y-12411214D01*
X21568414Y-12411214D01*
X21596986Y-12425500D01*
X21611271Y-12454071D01*
X21611271Y-12611214D01*
X22196986Y-12296929D02*
X21939843Y-12682643D01*
X22582700Y-12311214D02*
X22611271Y-12311214D01*
X22639843Y-12325500D01*
X22654128Y-12339786D01*
X22668414Y-12368357D01*
X22682700Y-12425500D01*
X22682700Y-12496929D01*
X22668414Y-12554071D01*
X22654128Y-12582643D01*
X22639843Y-12596929D01*
X22611271Y-12611214D01*
X22582700Y-12611214D01*
X22554128Y-12596929D01*
X22539843Y-12582643D01*
X22525557Y-12554071D01*
X22511271Y-12496929D01*
X22511271Y-12425500D01*
X22525557Y-12368357D01*
X22539843Y-12339786D01*
X22554128Y-12325500D01*
X22582700Y-12311214D01*
X22811271Y-12582643D02*
X22825557Y-12596929D01*
X22811271Y-12611214D01*
X22796986Y-12596929D01*
X22811271Y-12582643D01*
X22811271Y-12611214D01*
X23011271Y-12311214D02*
X23039843Y-12311214D01*
X23068414Y-12325500D01*
X23082700Y-12339786D01*
X23096986Y-12368357D01*
X23111271Y-12425500D01*
X23111271Y-12496929D01*
X23096986Y-12554071D01*
X23082700Y-12582643D01*
X23068414Y-12596929D01*
X23039843Y-12611214D01*
X23011271Y-12611214D01*
X22982700Y-12596929D01*
X22968414Y-12582643D01*
X22954128Y-12554071D01*
X22939843Y-12496929D01*
X22939843Y-12425500D01*
X22954128Y-12368357D01*
X22968414Y-12339786D01*
X22982700Y-12325500D01*
X23011271Y-12311214D01*
X23282700Y-12439786D02*
X23254128Y-12425500D01*
X23239843Y-12411214D01*
X23225557Y-12382643D01*
X23225557Y-12368357D01*
X23239843Y-12339786D01*
X23254128Y-12325500D01*
X23282700Y-12311214D01*
X23339843Y-12311214D01*
X23368414Y-12325500D01*
X23382700Y-12339786D01*
X23396986Y-12368357D01*
X23396986Y-12382643D01*
X23382700Y-12411214D01*
X23368414Y-12425500D01*
X23339843Y-12439786D01*
X23282700Y-12439786D01*
X23254128Y-12454071D01*
X23239843Y-12468357D01*
X23225557Y-12496929D01*
X23225557Y-12554071D01*
X23239843Y-12582643D01*
X23254128Y-12596929D01*
X23282700Y-12611214D01*
X23339843Y-12611214D01*
X23368414Y-12596929D01*
X23382700Y-12582643D01*
X23396986Y-12554071D01*
X23396986Y-12496929D01*
X23382700Y-12468357D01*
X23368414Y-12454071D01*
X23339843Y-12439786D01*
X23496986Y-12311214D02*
X23696986Y-12311214D01*
X23568414Y-12611214D01*
X23796986Y-12311214D02*
X23796986Y-12368357D01*
X23911271Y-12311214D02*
X23911271Y-12368357D01*
X24354128Y-12725500D02*
X24339843Y-12711214D01*
X24311271Y-12668357D01*
X24296986Y-12639786D01*
X24282700Y-12596929D01*
X24268414Y-12525500D01*
X24268414Y-12468357D01*
X24282700Y-12396929D01*
X24296986Y-12354071D01*
X24311271Y-12325500D01*
X24339843Y-12282643D01*
X24354128Y-12268357D01*
X24596986Y-12411214D02*
X24596986Y-12611214D01*
X24525557Y-12296929D02*
X24454128Y-12511214D01*
X24639843Y-12511214D01*
X24982700Y-12611214D02*
X24982700Y-12311214D01*
X25111271Y-12611214D02*
X25111271Y-12454071D01*
X25096986Y-12425500D01*
X25068414Y-12411214D01*
X25025557Y-12411214D01*
X24996986Y-12425500D01*
X24982700Y-12439786D01*
X25296986Y-12611214D02*
X25268414Y-12596929D01*
X25254128Y-12582643D01*
X25239843Y-12554071D01*
X25239843Y-12468357D01*
X25254128Y-12439786D01*
X25268414Y-12425500D01*
X25296986Y-12411214D01*
X25339843Y-12411214D01*
X25368414Y-12425500D01*
X25382700Y-12439786D01*
X25396986Y-12468357D01*
X25396986Y-12554071D01*
X25382700Y-12582643D01*
X25368414Y-12596929D01*
X25339843Y-12611214D01*
X25296986Y-12611214D01*
X25568414Y-12611214D02*
X25539843Y-12596929D01*
X25525557Y-12568357D01*
X25525557Y-12311214D01*
X25796986Y-12596929D02*
X25768414Y-12611214D01*
X25711271Y-12611214D01*
X25682700Y-12596929D01*
X25668414Y-12568357D01*
X25668414Y-12454071D01*
X25682700Y-12425500D01*
X25711271Y-12411214D01*
X25768414Y-12411214D01*
X25796986Y-12425500D01*
X25811271Y-12454071D01*
X25811271Y-12482643D01*
X25668414Y-12511214D01*
X25925557Y-12596929D02*
X25954128Y-12611214D01*
X26011271Y-12611214D01*
X26039843Y-12596929D01*
X26054128Y-12568357D01*
X26054128Y-12554071D01*
X26039843Y-12525500D01*
X26011271Y-12511214D01*
X25968414Y-12511214D01*
X25939843Y-12496929D01*
X25925557Y-12468357D01*
X25925557Y-12454071D01*
X25939843Y-12425500D01*
X25968414Y-12411214D01*
X26011271Y-12411214D01*
X26039843Y-12425500D01*
X26154128Y-12725500D02*
X26168414Y-12711214D01*
X26196986Y-12668357D01*
X26211271Y-12639786D01*
X26225557Y-12596929D01*
X26239843Y-12525500D01*
X26239843Y-12468357D01*
X26225557Y-12396929D01*
X26211271Y-12354071D01*
X26196986Y-12325500D01*
X26168414Y-12282643D01*
X26154128Y-12268357D01*
X26696986Y-12725500D02*
X26682700Y-12711214D01*
X26654128Y-12668357D01*
X26639843Y-12639786D01*
X26625557Y-12596929D01*
X26611271Y-12525500D01*
X26611271Y-12468357D01*
X26625557Y-12396929D01*
X26639843Y-12354071D01*
X26654128Y-12325500D01*
X26682700Y-12282643D01*
X26696986Y-12268357D01*
X26811271Y-12411214D02*
X26811271Y-12611214D01*
X26811271Y-12439786D02*
X26825557Y-12425500D01*
X26854128Y-12411214D01*
X26896986Y-12411214D01*
X26925557Y-12425500D01*
X26939843Y-12454071D01*
X26939843Y-12611214D01*
X27125557Y-12611214D02*
X27096986Y-12596929D01*
X27082700Y-12582643D01*
X27068414Y-12554071D01*
X27068414Y-12468357D01*
X27082700Y-12439786D01*
X27096986Y-12425500D01*
X27125557Y-12411214D01*
X27168414Y-12411214D01*
X27196986Y-12425500D01*
X27211271Y-12439786D01*
X27225557Y-12468357D01*
X27225557Y-12554071D01*
X27211271Y-12582643D01*
X27196986Y-12596929D01*
X27168414Y-12611214D01*
X27125557Y-12611214D01*
X27311271Y-12411214D02*
X27425557Y-12411214D01*
X27354128Y-12311214D02*
X27354128Y-12568357D01*
X27368414Y-12596929D01*
X27396986Y-12611214D01*
X27425557Y-12611214D01*
X27754128Y-12411214D02*
X27754128Y-12711214D01*
X27754128Y-12425500D02*
X27782700Y-12411214D01*
X27839843Y-12411214D01*
X27868414Y-12425500D01*
X27882700Y-12439786D01*
X27896986Y-12468357D01*
X27896986Y-12554071D01*
X27882700Y-12582643D01*
X27868414Y-12596929D01*
X27839843Y-12611214D01*
X27782700Y-12611214D01*
X27754128Y-12596929D01*
X28068414Y-12611214D02*
X28039843Y-12596929D01*
X28025557Y-12568357D01*
X28025557Y-12311214D01*
X28311271Y-12611214D02*
X28311271Y-12454071D01*
X28296986Y-12425500D01*
X28268414Y-12411214D01*
X28211271Y-12411214D01*
X28182700Y-12425500D01*
X28311271Y-12596929D02*
X28282700Y-12611214D01*
X28211271Y-12611214D01*
X28182700Y-12596929D01*
X28168414Y-12568357D01*
X28168414Y-12539786D01*
X28182700Y-12511214D01*
X28211271Y-12496929D01*
X28282700Y-12496929D01*
X28311271Y-12482643D01*
X28411271Y-12411214D02*
X28525557Y-12411214D01*
X28454128Y-12311214D02*
X28454128Y-12568357D01*
X28468414Y-12596929D01*
X28496986Y-12611214D01*
X28525557Y-12611214D01*
X28739843Y-12596929D02*
X28711271Y-12611214D01*
X28654128Y-12611214D01*
X28625557Y-12596929D01*
X28611271Y-12568357D01*
X28611271Y-12454071D01*
X28625557Y-12425500D01*
X28654128Y-12411214D01*
X28711271Y-12411214D01*
X28739843Y-12425500D01*
X28754128Y-12454071D01*
X28754128Y-12482643D01*
X28611271Y-12511214D01*
X29011271Y-12611214D02*
X29011271Y-12311214D01*
X29011271Y-12596929D02*
X28982700Y-12611214D01*
X28925557Y-12611214D01*
X28896986Y-12596929D01*
X28882700Y-12582643D01*
X28868414Y-12554071D01*
X28868414Y-12468357D01*
X28882700Y-12439786D01*
X28896986Y-12425500D01*
X28925557Y-12411214D01*
X28982700Y-12411214D01*
X29011271Y-12425500D01*
X29125557Y-12725500D02*
X29139843Y-12711214D01*
X29168414Y-12668357D01*
X29182700Y-12639786D01*
X29196986Y-12596929D01*
X29211271Y-12525500D01*
X29211271Y-12468357D01*
X29196986Y-12396929D01*
X29182700Y-12354071D01*
X29168414Y-12325500D01*
X29139843Y-12282643D01*
X29125557Y-12268357D01*
M02*
