G04 #@! TF.GenerationSoftware,KiCad,Pcbnew,(5.1.5)-3*
G04 #@! TF.CreationDate,2020-11-29T18:23:40-05:00*
G04 #@! TF.ProjectId,Buck_Controle,4275636b-5f43-46f6-9e74-726f6c652e6b,rev?*
G04 #@! TF.SameCoordinates,Original*
G04 #@! TF.FileFunction,Legend,Top*
G04 #@! TF.FilePolarity,Positive*
%FSLAX46Y46*%
G04 Gerber Fmt 4.6, Leading zero omitted, Abs format (unit mm)*
G04 Created by KiCad (PCBNEW (5.1.5)-3) date 2020-11-29 18:23:40*
%MOMM*%
%LPD*%
G04 APERTURE LIST*
%ADD10C,0.120000*%
%ADD11C,0.150000*%
G04 APERTURE END LIST*
D10*
X219880000Y-102060000D02*
X230040000Y-102060000D01*
X219880000Y-94440000D02*
X219880000Y-102060000D01*
X230040000Y-94440000D02*
X219880000Y-94440000D01*
X230040000Y-102060000D02*
X230040000Y-94440000D01*
X230040000Y-100790000D02*
X219880000Y-100790000D01*
X213040000Y-67190000D02*
X202880000Y-67190000D01*
X213040000Y-74810000D02*
X213040000Y-67190000D01*
X202880000Y-74810000D02*
X213040000Y-74810000D01*
X202880000Y-67190000D02*
X202880000Y-74810000D01*
X202880000Y-68460000D02*
X213040000Y-68460000D01*
X201251078Y-80720000D02*
X200733922Y-80720000D01*
X201251078Y-79300000D02*
X200733922Y-79300000D01*
X232000000Y-89500000D02*
X225000000Y-89500000D01*
X225000000Y-89500000D02*
X224700000Y-89500000D01*
X232000000Y-89500000D02*
X232000000Y-85500000D01*
X232000000Y-85500000D02*
X232000000Y-85200000D01*
X224700000Y-85200000D02*
X232000000Y-85200000D01*
X224700000Y-89500000D02*
X224700000Y-85200000D01*
X233250000Y-84950000D02*
X221750000Y-84950000D01*
X233650000Y-84550000D02*
X233650000Y-81800000D01*
X221750000Y-72650000D02*
X233250000Y-72650000D01*
X221350000Y-84550000D02*
X221350000Y-81800000D01*
X233650000Y-75800000D02*
X233650000Y-73050000D01*
X221350000Y-75800000D02*
X221350000Y-73050000D01*
X233650000Y-84550000D02*
G75*
G02X233250000Y-84950000I-400000J0D01*
G01*
X233250000Y-72650000D02*
G75*
G02X233650000Y-73050000I0J-400000D01*
G01*
X221350000Y-73050000D02*
G75*
G02X221750000Y-72650000I400000J0D01*
G01*
X221750000Y-84950000D02*
G75*
G02X221350000Y-84550000I0J400000D01*
G01*
X198623422Y-88975000D02*
X199140578Y-88975000D01*
X198623422Y-87555000D02*
X199140578Y-87555000D01*
X197410000Y-91317578D02*
X197410000Y-90800422D01*
X198830000Y-91317578D02*
X198830000Y-90800422D01*
D11*
X199030001Y-81910001D02*
X199030001Y-81960001D01*
X203180001Y-81910001D02*
X203180001Y-82055001D01*
X203180001Y-87060001D02*
X203180001Y-86915001D01*
X199030001Y-87060001D02*
X199030001Y-86915001D01*
X199030001Y-81910001D02*
X203180001Y-81910001D01*
X199030001Y-87060001D02*
X203180001Y-87060001D01*
X199030001Y-81960001D02*
X197630001Y-81960001D01*
D10*
X213285000Y-77115000D02*
X219785000Y-77115000D01*
X213285000Y-77115000D02*
X213285000Y-85515000D01*
X219785000Y-77115000D02*
X219785000Y-85515000D01*
X210895000Y-84066422D02*
X210895000Y-84583578D01*
X209475000Y-84066422D02*
X209475000Y-84583578D01*
X207570000Y-84066422D02*
X207570000Y-84583578D01*
X208990000Y-84066422D02*
X208990000Y-84583578D01*
X207085000Y-84066422D02*
X207085000Y-84583578D01*
X205665000Y-84066422D02*
X205665000Y-84583578D01*
D11*
X218852380Y-101576190D02*
X218804761Y-101671428D01*
X218757142Y-101719047D01*
X218661904Y-101766666D01*
X218376190Y-101766666D01*
X218280952Y-101719047D01*
X218233333Y-101671428D01*
X218185714Y-101576190D01*
X218185714Y-101433333D01*
X218233333Y-101338095D01*
X218280952Y-101290476D01*
X218376190Y-101242857D01*
X218661904Y-101242857D01*
X218757142Y-101290476D01*
X218804761Y-101338095D01*
X218852380Y-101433333D01*
X218852380Y-101576190D01*
X218185714Y-100385714D02*
X218852380Y-100385714D01*
X218185714Y-100814285D02*
X218709523Y-100814285D01*
X218804761Y-100766666D01*
X218852380Y-100671428D01*
X218852380Y-100528571D01*
X218804761Y-100433333D01*
X218757142Y-100385714D01*
X218185714Y-100052380D02*
X218185714Y-99671428D01*
X217852380Y-99909523D02*
X218709523Y-99909523D01*
X218804761Y-99861904D01*
X218852380Y-99766666D01*
X218852380Y-99671428D01*
X218947619Y-99576190D02*
X218947619Y-98814285D01*
X218852380Y-98576190D02*
X217852380Y-98576190D01*
X218233333Y-98576190D02*
X218185714Y-98480952D01*
X218185714Y-98290476D01*
X218233333Y-98195238D01*
X218280952Y-98147619D01*
X218376190Y-98100000D01*
X218661904Y-98100000D01*
X218757142Y-98147619D01*
X218804761Y-98195238D01*
X218852380Y-98290476D01*
X218852380Y-98480952D01*
X218804761Y-98576190D01*
X218185714Y-97242857D02*
X218852380Y-97242857D01*
X218185714Y-97671428D02*
X218709523Y-97671428D01*
X218804761Y-97623809D01*
X218852380Y-97528571D01*
X218852380Y-97385714D01*
X218804761Y-97290476D01*
X218757142Y-97242857D01*
X218804761Y-96814285D02*
X218852380Y-96719047D01*
X218852380Y-96528571D01*
X218804761Y-96433333D01*
X218709523Y-96385714D01*
X218661904Y-96385714D01*
X218566666Y-96433333D01*
X218519047Y-96528571D01*
X218519047Y-96671428D01*
X218471428Y-96766666D01*
X218376190Y-96814285D01*
X218328571Y-96814285D01*
X218233333Y-96766666D01*
X218185714Y-96671428D01*
X218185714Y-96528571D01*
X218233333Y-96433333D01*
X218852380Y-95433333D02*
X218852380Y-96004761D01*
X218852380Y-95719047D02*
X217852380Y-95719047D01*
X217995238Y-95814285D01*
X218090476Y-95909523D01*
X218138095Y-96004761D01*
X214452380Y-73219047D02*
X213785714Y-73219047D01*
X213452380Y-73219047D02*
X213500000Y-73266666D01*
X213547619Y-73219047D01*
X213500000Y-73171428D01*
X213452380Y-73219047D01*
X213547619Y-73219047D01*
X213785714Y-72742857D02*
X214452380Y-72742857D01*
X213880952Y-72742857D02*
X213833333Y-72695238D01*
X213785714Y-72600000D01*
X213785714Y-72457142D01*
X213833333Y-72361904D01*
X213928571Y-72314285D01*
X214452380Y-72314285D01*
X214547619Y-72076190D02*
X214547619Y-71314285D01*
X214452380Y-71076190D02*
X213452380Y-71076190D01*
X213833333Y-71076190D02*
X213785714Y-70980952D01*
X213785714Y-70790476D01*
X213833333Y-70695238D01*
X213880952Y-70647619D01*
X213976190Y-70600000D01*
X214261904Y-70600000D01*
X214357142Y-70647619D01*
X214404761Y-70695238D01*
X214452380Y-70790476D01*
X214452380Y-70980952D01*
X214404761Y-71076190D01*
X213785714Y-69742857D02*
X214452380Y-69742857D01*
X213785714Y-70171428D02*
X214309523Y-70171428D01*
X214404761Y-70123809D01*
X214452380Y-70028571D01*
X214452380Y-69885714D01*
X214404761Y-69790476D01*
X214357142Y-69742857D01*
X214404761Y-69314285D02*
X214452380Y-69219047D01*
X214452380Y-69028571D01*
X214404761Y-68933333D01*
X214309523Y-68885714D01*
X214261904Y-68885714D01*
X214166666Y-68933333D01*
X214119047Y-69028571D01*
X214119047Y-69171428D01*
X214071428Y-69266666D01*
X213976190Y-69314285D01*
X213928571Y-69314285D01*
X213833333Y-69266666D01*
X213785714Y-69171428D01*
X213785714Y-69028571D01*
X213833333Y-68933333D01*
X214452380Y-67933333D02*
X214452380Y-68504761D01*
X214452380Y-68219047D02*
X213452380Y-68219047D01*
X213595238Y-68314285D01*
X213690476Y-68409523D01*
X213738095Y-68504761D01*
X199190476Y-78557142D02*
X199142857Y-78604761D01*
X199000000Y-78652380D01*
X198904761Y-78652380D01*
X198761904Y-78604761D01*
X198666666Y-78509523D01*
X198619047Y-78414285D01*
X198571428Y-78223809D01*
X198571428Y-78080952D01*
X198619047Y-77890476D01*
X198666666Y-77795238D01*
X198761904Y-77700000D01*
X198904761Y-77652380D01*
X199000000Y-77652380D01*
X199142857Y-77700000D01*
X199190476Y-77747619D01*
X199619047Y-78652380D02*
X199619047Y-77652380D01*
X199619047Y-78033333D02*
X199714285Y-77985714D01*
X199904761Y-77985714D01*
X200000000Y-78033333D01*
X200047619Y-78080952D01*
X200095238Y-78176190D01*
X200095238Y-78461904D01*
X200047619Y-78557142D01*
X200000000Y-78604761D01*
X199904761Y-78652380D01*
X199714285Y-78652380D01*
X199619047Y-78604761D01*
X200666666Y-78652380D02*
X200571428Y-78604761D01*
X200523809Y-78557142D01*
X200476190Y-78461904D01*
X200476190Y-78176190D01*
X200523809Y-78080952D01*
X200571428Y-78033333D01*
X200666666Y-77985714D01*
X200809523Y-77985714D01*
X200904761Y-78033333D01*
X200952380Y-78080952D01*
X201000000Y-78176190D01*
X201000000Y-78461904D01*
X200952380Y-78557142D01*
X200904761Y-78604761D01*
X200809523Y-78652380D01*
X200666666Y-78652380D01*
X201571428Y-78652380D02*
X201476190Y-78604761D01*
X201428571Y-78557142D01*
X201380952Y-78461904D01*
X201380952Y-78176190D01*
X201428571Y-78080952D01*
X201476190Y-78033333D01*
X201571428Y-77985714D01*
X201714285Y-77985714D01*
X201809523Y-78033333D01*
X201857142Y-78080952D01*
X201904761Y-78176190D01*
X201904761Y-78461904D01*
X201857142Y-78557142D01*
X201809523Y-78604761D01*
X201714285Y-78652380D01*
X201571428Y-78652380D01*
X202190476Y-77985714D02*
X202571428Y-77985714D01*
X202333333Y-77652380D02*
X202333333Y-78509523D01*
X202380952Y-78604761D01*
X202476190Y-78652380D01*
X202571428Y-78652380D01*
X203428571Y-78652380D02*
X202857142Y-78652380D01*
X203142857Y-78652380D02*
X203142857Y-77652380D01*
X203047619Y-77795238D01*
X202952380Y-77890476D01*
X202857142Y-77938095D01*
X234707142Y-88682142D02*
X234754761Y-88729761D01*
X234802380Y-88872619D01*
X234802380Y-88967857D01*
X234754761Y-89110714D01*
X234659523Y-89205952D01*
X234564285Y-89253571D01*
X234373809Y-89301190D01*
X234230952Y-89301190D01*
X234040476Y-89253571D01*
X233945238Y-89205952D01*
X233850000Y-89110714D01*
X233802380Y-88967857D01*
X233802380Y-88872619D01*
X233850000Y-88729761D01*
X233897619Y-88682142D01*
X234802380Y-88110714D02*
X234754761Y-88205952D01*
X234707142Y-88253571D01*
X234611904Y-88301190D01*
X234326190Y-88301190D01*
X234230952Y-88253571D01*
X234183333Y-88205952D01*
X234135714Y-88110714D01*
X234135714Y-87967857D01*
X234183333Y-87872619D01*
X234230952Y-87825000D01*
X234326190Y-87777380D01*
X234611904Y-87777380D01*
X234707142Y-87825000D01*
X234754761Y-87872619D01*
X234802380Y-87967857D01*
X234802380Y-88110714D01*
X234135714Y-86920238D02*
X234802380Y-86920238D01*
X234135714Y-87348809D02*
X234659523Y-87348809D01*
X234754761Y-87301190D01*
X234802380Y-87205952D01*
X234802380Y-87063095D01*
X234754761Y-86967857D01*
X234707142Y-86920238D01*
X234135714Y-86586904D02*
X234135714Y-86205952D01*
X233802380Y-86444047D02*
X234659523Y-86444047D01*
X234754761Y-86396428D01*
X234802380Y-86301190D01*
X234802380Y-86205952D01*
X234802380Y-85348809D02*
X234802380Y-85920238D01*
X234802380Y-85634523D02*
X233802380Y-85634523D01*
X233945238Y-85729761D01*
X234040476Y-85825000D01*
X234088095Y-85920238D01*
X232516190Y-89190714D02*
X233483809Y-89190714D01*
X233000000Y-89674523D02*
X233000000Y-88706904D01*
X234583333Y-84002380D02*
X234107142Y-84002380D01*
X234107142Y-83002380D01*
X235440476Y-84002380D02*
X234869047Y-84002380D01*
X235154761Y-84002380D02*
X235154761Y-83002380D01*
X235059523Y-83145238D01*
X234964285Y-83240476D01*
X234869047Y-83288095D01*
X201715857Y-88590380D02*
X201382523Y-88114190D01*
X201144428Y-88590380D02*
X201144428Y-87590380D01*
X201525380Y-87590380D01*
X201620619Y-87638000D01*
X201668238Y-87685619D01*
X201715857Y-87780857D01*
X201715857Y-87923714D01*
X201668238Y-88018952D01*
X201620619Y-88066571D01*
X201525380Y-88114190D01*
X201144428Y-88114190D01*
X202001571Y-87923714D02*
X202382523Y-87923714D01*
X202144428Y-88590380D02*
X202144428Y-87733238D01*
X202192047Y-87638000D01*
X202287285Y-87590380D01*
X202382523Y-87590380D01*
X202715857Y-88590380D02*
X202715857Y-87590380D01*
X202715857Y-87971333D02*
X202811095Y-87923714D01*
X203001571Y-87923714D01*
X203096809Y-87971333D01*
X203144428Y-88018952D01*
X203192047Y-88114190D01*
X203192047Y-88399904D01*
X203144428Y-88495142D01*
X203096809Y-88542761D01*
X203001571Y-88590380D01*
X202811095Y-88590380D01*
X202715857Y-88542761D01*
X203620619Y-88590380D02*
X203620619Y-87590380D01*
X203620619Y-87971333D02*
X203715857Y-87923714D01*
X203906333Y-87923714D01*
X204001571Y-87971333D01*
X204049190Y-88018952D01*
X204096809Y-88114190D01*
X204096809Y-88399904D01*
X204049190Y-88495142D01*
X204001571Y-88542761D01*
X203906333Y-88590380D01*
X203715857Y-88590380D01*
X203620619Y-88542761D01*
X205049190Y-88590380D02*
X204477761Y-88590380D01*
X204763476Y-88590380D02*
X204763476Y-87590380D01*
X204668238Y-87733238D01*
X204573000Y-87828476D01*
X204477761Y-87876095D01*
X200452380Y-92590476D02*
X199976190Y-92923809D01*
X200452380Y-93161904D02*
X199452380Y-93161904D01*
X199452380Y-92780952D01*
X199500000Y-92685714D01*
X199547619Y-92638095D01*
X199642857Y-92590476D01*
X199785714Y-92590476D01*
X199880952Y-92638095D01*
X199928571Y-92685714D01*
X199976190Y-92780952D01*
X199976190Y-93161904D01*
X199785714Y-92304761D02*
X199785714Y-91923809D01*
X200452380Y-92161904D02*
X199595238Y-92161904D01*
X199500000Y-92114285D01*
X199452380Y-92019047D01*
X199452380Y-91923809D01*
X200452380Y-91590476D02*
X199452380Y-91590476D01*
X199833333Y-91590476D02*
X199785714Y-91495238D01*
X199785714Y-91304761D01*
X199833333Y-91209523D01*
X199880952Y-91161904D01*
X199976190Y-91114285D01*
X200261904Y-91114285D01*
X200357142Y-91161904D01*
X200404761Y-91209523D01*
X200452380Y-91304761D01*
X200452380Y-91495238D01*
X200404761Y-91590476D01*
X199785714Y-90828571D02*
X199785714Y-90447619D01*
X199452380Y-90685714D02*
X200309523Y-90685714D01*
X200404761Y-90638095D01*
X200452380Y-90542857D01*
X200452380Y-90447619D01*
X200452380Y-89590476D02*
X200452380Y-90161904D01*
X200452380Y-89876190D02*
X199452380Y-89876190D01*
X199595238Y-89971428D01*
X199690476Y-90066666D01*
X199738095Y-90161904D01*
X197638095Y-81052380D02*
X197638095Y-81861904D01*
X197685714Y-81957142D01*
X197733333Y-82004761D01*
X197828571Y-82052380D01*
X198019047Y-82052380D01*
X198114285Y-82004761D01*
X198161904Y-81957142D01*
X198209523Y-81861904D01*
X198209523Y-81052380D01*
X199209523Y-82052380D02*
X198638095Y-82052380D01*
X198923809Y-82052380D02*
X198923809Y-81052380D01*
X198828571Y-81195238D01*
X198733333Y-81290476D01*
X198638095Y-81338095D01*
X215796904Y-76017380D02*
X215796904Y-75017380D01*
X216035000Y-75017380D01*
X216177857Y-75065000D01*
X216273095Y-75160238D01*
X216320714Y-75255476D01*
X216368333Y-75445952D01*
X216368333Y-75588809D01*
X216320714Y-75779285D01*
X216273095Y-75874523D01*
X216177857Y-75969761D01*
X216035000Y-76017380D01*
X215796904Y-76017380D01*
X217320714Y-76017380D02*
X216749285Y-76017380D01*
X217035000Y-76017380D02*
X217035000Y-75017380D01*
X216939761Y-75160238D01*
X216844523Y-75255476D01*
X216749285Y-75303095D01*
X210557142Y-88657142D02*
X210604761Y-88704761D01*
X210652380Y-88847619D01*
X210652380Y-88942857D01*
X210604761Y-89085714D01*
X210509523Y-89180952D01*
X210414285Y-89228571D01*
X210223809Y-89276190D01*
X210080952Y-89276190D01*
X209890476Y-89228571D01*
X209795238Y-89180952D01*
X209700000Y-89085714D01*
X209652380Y-88942857D01*
X209652380Y-88847619D01*
X209700000Y-88704761D01*
X209747619Y-88657142D01*
X210652380Y-88228571D02*
X209985714Y-88228571D01*
X209652380Y-88228571D02*
X209700000Y-88276190D01*
X209747619Y-88228571D01*
X209700000Y-88180952D01*
X209652380Y-88228571D01*
X209747619Y-88228571D01*
X209985714Y-87752380D02*
X210652380Y-87752380D01*
X210080952Y-87752380D02*
X210033333Y-87704761D01*
X209985714Y-87609523D01*
X209985714Y-87466666D01*
X210033333Y-87371428D01*
X210128571Y-87323809D01*
X210652380Y-87323809D01*
X210652380Y-86323809D02*
X210652380Y-86895238D01*
X210652380Y-86609523D02*
X209652380Y-86609523D01*
X209795238Y-86704761D01*
X209890476Y-86800000D01*
X209938095Y-86895238D01*
X208637142Y-88857142D02*
X208684761Y-88904761D01*
X208732380Y-89047619D01*
X208732380Y-89142857D01*
X208684761Y-89285714D01*
X208589523Y-89380952D01*
X208494285Y-89428571D01*
X208303809Y-89476190D01*
X208160952Y-89476190D01*
X207970476Y-89428571D01*
X207875238Y-89380952D01*
X207780000Y-89285714D01*
X207732380Y-89142857D01*
X207732380Y-89047619D01*
X207780000Y-88904761D01*
X207827619Y-88857142D01*
X208732380Y-88428571D02*
X208065714Y-88428571D01*
X207732380Y-88428571D02*
X207780000Y-88476190D01*
X207827619Y-88428571D01*
X207780000Y-88380952D01*
X207732380Y-88428571D01*
X207827619Y-88428571D01*
X208065714Y-87952380D02*
X208732380Y-87952380D01*
X208160952Y-87952380D02*
X208113333Y-87904761D01*
X208065714Y-87809523D01*
X208065714Y-87666666D01*
X208113333Y-87571428D01*
X208208571Y-87523809D01*
X208732380Y-87523809D01*
X207827619Y-87095238D02*
X207780000Y-87047619D01*
X207732380Y-86952380D01*
X207732380Y-86714285D01*
X207780000Y-86619047D01*
X207827619Y-86571428D01*
X207922857Y-86523809D01*
X208018095Y-86523809D01*
X208160952Y-86571428D01*
X208732380Y-87142857D01*
X208732380Y-86523809D01*
X206732142Y-88857142D02*
X206779761Y-88904761D01*
X206827380Y-89047619D01*
X206827380Y-89142857D01*
X206779761Y-89285714D01*
X206684523Y-89380952D01*
X206589285Y-89428571D01*
X206398809Y-89476190D01*
X206255952Y-89476190D01*
X206065476Y-89428571D01*
X205970238Y-89380952D01*
X205875000Y-89285714D01*
X205827380Y-89142857D01*
X205827380Y-89047619D01*
X205875000Y-88904761D01*
X205922619Y-88857142D01*
X206827380Y-88428571D02*
X206160714Y-88428571D01*
X205827380Y-88428571D02*
X205875000Y-88476190D01*
X205922619Y-88428571D01*
X205875000Y-88380952D01*
X205827380Y-88428571D01*
X205922619Y-88428571D01*
X206160714Y-87952380D02*
X206827380Y-87952380D01*
X206255952Y-87952380D02*
X206208333Y-87904761D01*
X206160714Y-87809523D01*
X206160714Y-87666666D01*
X206208333Y-87571428D01*
X206303571Y-87523809D01*
X206827380Y-87523809D01*
X205827380Y-87142857D02*
X205827380Y-86523809D01*
X206208333Y-86857142D01*
X206208333Y-86714285D01*
X206255952Y-86619047D01*
X206303571Y-86571428D01*
X206398809Y-86523809D01*
X206636904Y-86523809D01*
X206732142Y-86571428D01*
X206779761Y-86619047D01*
X206827380Y-86714285D01*
X206827380Y-87000000D01*
X206779761Y-87095238D01*
X206732142Y-87142857D01*
M02*
