M48
; DRILL file {KiCad (5.1.5)-3} date 2020-11-29 6:47:55 PM
; FORMAT={-:-/ absolute / inch / decimal}
; #@! TF.CreationDate,2020-11-29T18:47:55-05:00
; #@! TF.GenerationSoftware,Kicad,Pcbnew,(5.1.5)-3
FMAT,2
INCH
T1C0.0118
T2C0.0157
T3C0.0598
T4C0.0866
%
G90
G05
T1
X7.8939Y-3.2553
X7.8939Y-3.3026
X7.8939Y-3.3537
X7.8939Y-3.397
X7.9411Y-3.2553
X7.9411Y-3.3026
X7.9411Y-3.3537
X7.9411Y-3.397
T2
X8.1201Y-3.1594
X8.1201Y-3.2087
X8.1988Y-3.1594
X8.1988Y-3.2087
X8.2776Y-3.1594
X8.2776Y-3.2087
X8.3465Y-3.1594
X8.3465Y-3.2087
T3
X8.7567Y-3.8681
X8.9567Y-3.8681
X8.0874Y-2.7953
X8.2874Y-2.7953
T4
X7.865Y-2.755
X7.865Y-3.9426
X9.1929Y-3.937
X9.2Y-2.755
T0
M30
