G04 #@! TF.GenerationSoftware,KiCad,Pcbnew,(5.1.5)-3*
G04 #@! TF.CreationDate,2020-11-29T18:23:40-05:00*
G04 #@! TF.ProjectId,Buck_Controle,4275636b-5f43-46f6-9e74-726f6c652e6b,rev?*
G04 #@! TF.SameCoordinates,Original*
G04 #@! TF.FileFunction,Copper,L1,Top*
G04 #@! TF.FilePolarity,Positive*
%FSLAX46Y46*%
G04 Gerber Fmt 4.6, Leading zero omitted, Abs format (unit mm)*
G04 Created by KiCad (PCBNEW (5.1.5)-3) date 2020-11-29 18:23:40*
%MOMM*%
%LPD*%
G04 APERTURE LIST*
%ADD10C,3.000000*%
%ADD11R,3.000000X3.000000*%
%ADD12C,0.100000*%
%ADD13R,1.300000X2.400000*%
%ADD14R,2.800000X5.300000*%
%ADD15R,2.600000X3.100000*%
%ADD16R,2.950000X4.500000*%
%ADD17R,1.550000X0.600000*%
%ADD18C,0.600000*%
%ADD19R,3.300000X2.500000*%
%ADD20C,0.800000*%
%ADD21C,0.250000*%
%ADD22C,0.254000*%
G04 APERTURE END LIST*
D10*
X227500000Y-98250000D03*
D11*
X222420000Y-98250000D03*
D10*
X205420000Y-71000000D03*
D11*
X210500000Y-71000000D03*
G04 #@! TA.AperFunction,SMDPad,CuDef*
D12*
G36*
X202197642Y-79311174D02*
G01*
X202221303Y-79314684D01*
X202244507Y-79320496D01*
X202267029Y-79328554D01*
X202288653Y-79338782D01*
X202309170Y-79351079D01*
X202328383Y-79365329D01*
X202346107Y-79381393D01*
X202362171Y-79399117D01*
X202376421Y-79418330D01*
X202388718Y-79438847D01*
X202398946Y-79460471D01*
X202407004Y-79482993D01*
X202412816Y-79506197D01*
X202416326Y-79529858D01*
X202417500Y-79553750D01*
X202417500Y-80466250D01*
X202416326Y-80490142D01*
X202412816Y-80513803D01*
X202407004Y-80537007D01*
X202398946Y-80559529D01*
X202388718Y-80581153D01*
X202376421Y-80601670D01*
X202362171Y-80620883D01*
X202346107Y-80638607D01*
X202328383Y-80654671D01*
X202309170Y-80668921D01*
X202288653Y-80681218D01*
X202267029Y-80691446D01*
X202244507Y-80699504D01*
X202221303Y-80705316D01*
X202197642Y-80708826D01*
X202173750Y-80710000D01*
X201686250Y-80710000D01*
X201662358Y-80708826D01*
X201638697Y-80705316D01*
X201615493Y-80699504D01*
X201592971Y-80691446D01*
X201571347Y-80681218D01*
X201550830Y-80668921D01*
X201531617Y-80654671D01*
X201513893Y-80638607D01*
X201497829Y-80620883D01*
X201483579Y-80601670D01*
X201471282Y-80581153D01*
X201461054Y-80559529D01*
X201452996Y-80537007D01*
X201447184Y-80513803D01*
X201443674Y-80490142D01*
X201442500Y-80466250D01*
X201442500Y-79553750D01*
X201443674Y-79529858D01*
X201447184Y-79506197D01*
X201452996Y-79482993D01*
X201461054Y-79460471D01*
X201471282Y-79438847D01*
X201483579Y-79418330D01*
X201497829Y-79399117D01*
X201513893Y-79381393D01*
X201531617Y-79365329D01*
X201550830Y-79351079D01*
X201571347Y-79338782D01*
X201592971Y-79328554D01*
X201615493Y-79320496D01*
X201638697Y-79314684D01*
X201662358Y-79311174D01*
X201686250Y-79310000D01*
X202173750Y-79310000D01*
X202197642Y-79311174D01*
G37*
G04 #@! TD.AperFunction*
G04 #@! TA.AperFunction,SMDPad,CuDef*
G36*
X200322642Y-79311174D02*
G01*
X200346303Y-79314684D01*
X200369507Y-79320496D01*
X200392029Y-79328554D01*
X200413653Y-79338782D01*
X200434170Y-79351079D01*
X200453383Y-79365329D01*
X200471107Y-79381393D01*
X200487171Y-79399117D01*
X200501421Y-79418330D01*
X200513718Y-79438847D01*
X200523946Y-79460471D01*
X200532004Y-79482993D01*
X200537816Y-79506197D01*
X200541326Y-79529858D01*
X200542500Y-79553750D01*
X200542500Y-80466250D01*
X200541326Y-80490142D01*
X200537816Y-80513803D01*
X200532004Y-80537007D01*
X200523946Y-80559529D01*
X200513718Y-80581153D01*
X200501421Y-80601670D01*
X200487171Y-80620883D01*
X200471107Y-80638607D01*
X200453383Y-80654671D01*
X200434170Y-80668921D01*
X200413653Y-80681218D01*
X200392029Y-80691446D01*
X200369507Y-80699504D01*
X200346303Y-80705316D01*
X200322642Y-80708826D01*
X200298750Y-80710000D01*
X199811250Y-80710000D01*
X199787358Y-80708826D01*
X199763697Y-80705316D01*
X199740493Y-80699504D01*
X199717971Y-80691446D01*
X199696347Y-80681218D01*
X199675830Y-80668921D01*
X199656617Y-80654671D01*
X199638893Y-80638607D01*
X199622829Y-80620883D01*
X199608579Y-80601670D01*
X199596282Y-80581153D01*
X199586054Y-80559529D01*
X199577996Y-80537007D01*
X199572184Y-80513803D01*
X199568674Y-80490142D01*
X199567500Y-80466250D01*
X199567500Y-79553750D01*
X199568674Y-79529858D01*
X199572184Y-79506197D01*
X199577996Y-79482993D01*
X199586054Y-79460471D01*
X199596282Y-79438847D01*
X199608579Y-79418330D01*
X199622829Y-79399117D01*
X199638893Y-79381393D01*
X199656617Y-79365329D01*
X199675830Y-79351079D01*
X199696347Y-79338782D01*
X199717971Y-79328554D01*
X199740493Y-79320496D01*
X199763697Y-79314684D01*
X199787358Y-79311174D01*
X199811250Y-79310000D01*
X200298750Y-79310000D01*
X200322642Y-79311174D01*
G37*
G04 #@! TD.AperFunction*
D13*
X225300000Y-87350000D03*
X231400000Y-87350000D03*
D14*
X222450000Y-78800000D03*
X232550000Y-78800000D03*
G04 #@! TA.AperFunction,SMDPad,CuDef*
D12*
G36*
X200087142Y-87566174D02*
G01*
X200110803Y-87569684D01*
X200134007Y-87575496D01*
X200156529Y-87583554D01*
X200178153Y-87593782D01*
X200198670Y-87606079D01*
X200217883Y-87620329D01*
X200235607Y-87636393D01*
X200251671Y-87654117D01*
X200265921Y-87673330D01*
X200278218Y-87693847D01*
X200288446Y-87715471D01*
X200296504Y-87737993D01*
X200302316Y-87761197D01*
X200305826Y-87784858D01*
X200307000Y-87808750D01*
X200307000Y-88721250D01*
X200305826Y-88745142D01*
X200302316Y-88768803D01*
X200296504Y-88792007D01*
X200288446Y-88814529D01*
X200278218Y-88836153D01*
X200265921Y-88856670D01*
X200251671Y-88875883D01*
X200235607Y-88893607D01*
X200217883Y-88909671D01*
X200198670Y-88923921D01*
X200178153Y-88936218D01*
X200156529Y-88946446D01*
X200134007Y-88954504D01*
X200110803Y-88960316D01*
X200087142Y-88963826D01*
X200063250Y-88965000D01*
X199575750Y-88965000D01*
X199551858Y-88963826D01*
X199528197Y-88960316D01*
X199504993Y-88954504D01*
X199482471Y-88946446D01*
X199460847Y-88936218D01*
X199440330Y-88923921D01*
X199421117Y-88909671D01*
X199403393Y-88893607D01*
X199387329Y-88875883D01*
X199373079Y-88856670D01*
X199360782Y-88836153D01*
X199350554Y-88814529D01*
X199342496Y-88792007D01*
X199336684Y-88768803D01*
X199333174Y-88745142D01*
X199332000Y-88721250D01*
X199332000Y-87808750D01*
X199333174Y-87784858D01*
X199336684Y-87761197D01*
X199342496Y-87737993D01*
X199350554Y-87715471D01*
X199360782Y-87693847D01*
X199373079Y-87673330D01*
X199387329Y-87654117D01*
X199403393Y-87636393D01*
X199421117Y-87620329D01*
X199440330Y-87606079D01*
X199460847Y-87593782D01*
X199482471Y-87583554D01*
X199504993Y-87575496D01*
X199528197Y-87569684D01*
X199551858Y-87566174D01*
X199575750Y-87565000D01*
X200063250Y-87565000D01*
X200087142Y-87566174D01*
G37*
G04 #@! TD.AperFunction*
G04 #@! TA.AperFunction,SMDPad,CuDef*
G36*
X198212142Y-87566174D02*
G01*
X198235803Y-87569684D01*
X198259007Y-87575496D01*
X198281529Y-87583554D01*
X198303153Y-87593782D01*
X198323670Y-87606079D01*
X198342883Y-87620329D01*
X198360607Y-87636393D01*
X198376671Y-87654117D01*
X198390921Y-87673330D01*
X198403218Y-87693847D01*
X198413446Y-87715471D01*
X198421504Y-87737993D01*
X198427316Y-87761197D01*
X198430826Y-87784858D01*
X198432000Y-87808750D01*
X198432000Y-88721250D01*
X198430826Y-88745142D01*
X198427316Y-88768803D01*
X198421504Y-88792007D01*
X198413446Y-88814529D01*
X198403218Y-88836153D01*
X198390921Y-88856670D01*
X198376671Y-88875883D01*
X198360607Y-88893607D01*
X198342883Y-88909671D01*
X198323670Y-88923921D01*
X198303153Y-88936218D01*
X198281529Y-88946446D01*
X198259007Y-88954504D01*
X198235803Y-88960316D01*
X198212142Y-88963826D01*
X198188250Y-88965000D01*
X197700750Y-88965000D01*
X197676858Y-88963826D01*
X197653197Y-88960316D01*
X197629993Y-88954504D01*
X197607471Y-88946446D01*
X197585847Y-88936218D01*
X197565330Y-88923921D01*
X197546117Y-88909671D01*
X197528393Y-88893607D01*
X197512329Y-88875883D01*
X197498079Y-88856670D01*
X197485782Y-88836153D01*
X197475554Y-88814529D01*
X197467496Y-88792007D01*
X197461684Y-88768803D01*
X197458174Y-88745142D01*
X197457000Y-88721250D01*
X197457000Y-87808750D01*
X197458174Y-87784858D01*
X197461684Y-87761197D01*
X197467496Y-87737993D01*
X197475554Y-87715471D01*
X197485782Y-87693847D01*
X197498079Y-87673330D01*
X197512329Y-87654117D01*
X197528393Y-87636393D01*
X197546117Y-87620329D01*
X197565330Y-87606079D01*
X197585847Y-87593782D01*
X197607471Y-87583554D01*
X197629993Y-87575496D01*
X197653197Y-87569684D01*
X197676858Y-87566174D01*
X197700750Y-87565000D01*
X198188250Y-87565000D01*
X198212142Y-87566174D01*
G37*
G04 #@! TD.AperFunction*
G04 #@! TA.AperFunction,SMDPad,CuDef*
G36*
X198600142Y-91510174D02*
G01*
X198623803Y-91513684D01*
X198647007Y-91519496D01*
X198669529Y-91527554D01*
X198691153Y-91537782D01*
X198711670Y-91550079D01*
X198730883Y-91564329D01*
X198748607Y-91580393D01*
X198764671Y-91598117D01*
X198778921Y-91617330D01*
X198791218Y-91637847D01*
X198801446Y-91659471D01*
X198809504Y-91681993D01*
X198815316Y-91705197D01*
X198818826Y-91728858D01*
X198820000Y-91752750D01*
X198820000Y-92240250D01*
X198818826Y-92264142D01*
X198815316Y-92287803D01*
X198809504Y-92311007D01*
X198801446Y-92333529D01*
X198791218Y-92355153D01*
X198778921Y-92375670D01*
X198764671Y-92394883D01*
X198748607Y-92412607D01*
X198730883Y-92428671D01*
X198711670Y-92442921D01*
X198691153Y-92455218D01*
X198669529Y-92465446D01*
X198647007Y-92473504D01*
X198623803Y-92479316D01*
X198600142Y-92482826D01*
X198576250Y-92484000D01*
X197663750Y-92484000D01*
X197639858Y-92482826D01*
X197616197Y-92479316D01*
X197592993Y-92473504D01*
X197570471Y-92465446D01*
X197548847Y-92455218D01*
X197528330Y-92442921D01*
X197509117Y-92428671D01*
X197491393Y-92412607D01*
X197475329Y-92394883D01*
X197461079Y-92375670D01*
X197448782Y-92355153D01*
X197438554Y-92333529D01*
X197430496Y-92311007D01*
X197424684Y-92287803D01*
X197421174Y-92264142D01*
X197420000Y-92240250D01*
X197420000Y-91752750D01*
X197421174Y-91728858D01*
X197424684Y-91705197D01*
X197430496Y-91681993D01*
X197438554Y-91659471D01*
X197448782Y-91637847D01*
X197461079Y-91617330D01*
X197475329Y-91598117D01*
X197491393Y-91580393D01*
X197509117Y-91564329D01*
X197528330Y-91550079D01*
X197548847Y-91537782D01*
X197570471Y-91527554D01*
X197592993Y-91519496D01*
X197616197Y-91513684D01*
X197639858Y-91510174D01*
X197663750Y-91509000D01*
X198576250Y-91509000D01*
X198600142Y-91510174D01*
G37*
G04 #@! TD.AperFunction*
G04 #@! TA.AperFunction,SMDPad,CuDef*
G36*
X198600142Y-89635174D02*
G01*
X198623803Y-89638684D01*
X198647007Y-89644496D01*
X198669529Y-89652554D01*
X198691153Y-89662782D01*
X198711670Y-89675079D01*
X198730883Y-89689329D01*
X198748607Y-89705393D01*
X198764671Y-89723117D01*
X198778921Y-89742330D01*
X198791218Y-89762847D01*
X198801446Y-89784471D01*
X198809504Y-89806993D01*
X198815316Y-89830197D01*
X198818826Y-89853858D01*
X198820000Y-89877750D01*
X198820000Y-90365250D01*
X198818826Y-90389142D01*
X198815316Y-90412803D01*
X198809504Y-90436007D01*
X198801446Y-90458529D01*
X198791218Y-90480153D01*
X198778921Y-90500670D01*
X198764671Y-90519883D01*
X198748607Y-90537607D01*
X198730883Y-90553671D01*
X198711670Y-90567921D01*
X198691153Y-90580218D01*
X198669529Y-90590446D01*
X198647007Y-90598504D01*
X198623803Y-90604316D01*
X198600142Y-90607826D01*
X198576250Y-90609000D01*
X197663750Y-90609000D01*
X197639858Y-90607826D01*
X197616197Y-90604316D01*
X197592993Y-90598504D01*
X197570471Y-90590446D01*
X197548847Y-90580218D01*
X197528330Y-90567921D01*
X197509117Y-90553671D01*
X197491393Y-90537607D01*
X197475329Y-90519883D01*
X197461079Y-90500670D01*
X197448782Y-90480153D01*
X197438554Y-90458529D01*
X197430496Y-90436007D01*
X197424684Y-90412803D01*
X197421174Y-90389142D01*
X197420000Y-90365250D01*
X197420000Y-89877750D01*
X197421174Y-89853858D01*
X197424684Y-89830197D01*
X197430496Y-89806993D01*
X197438554Y-89784471D01*
X197448782Y-89762847D01*
X197461079Y-89742330D01*
X197475329Y-89723117D01*
X197491393Y-89705393D01*
X197509117Y-89689329D01*
X197528330Y-89675079D01*
X197548847Y-89662782D01*
X197570471Y-89652554D01*
X197592993Y-89644496D01*
X197616197Y-89638684D01*
X197639858Y-89635174D01*
X197663750Y-89634000D01*
X198576250Y-89634000D01*
X198600142Y-89635174D01*
G37*
G04 #@! TD.AperFunction*
D15*
X201105001Y-84485001D03*
D16*
X201105001Y-84485001D03*
D17*
X198405001Y-82580001D03*
X198405001Y-83850001D03*
X198405001Y-85120001D03*
X198405001Y-86390001D03*
X203805001Y-86390001D03*
X203805001Y-85120001D03*
X203805001Y-83850001D03*
X203805001Y-82580001D03*
D18*
X200505001Y-82685001D03*
X200505001Y-83885001D03*
X201705001Y-83885001D03*
X201705001Y-82685001D03*
X200505001Y-86285001D03*
X200505001Y-85185001D03*
X201705001Y-85185001D03*
X201705001Y-86285001D03*
D19*
X216535000Y-78515000D03*
X216535000Y-85315000D03*
G04 #@! TA.AperFunction,SMDPad,CuDef*
D12*
G36*
X210665142Y-82901174D02*
G01*
X210688803Y-82904684D01*
X210712007Y-82910496D01*
X210734529Y-82918554D01*
X210756153Y-82928782D01*
X210776670Y-82941079D01*
X210795883Y-82955329D01*
X210813607Y-82971393D01*
X210829671Y-82989117D01*
X210843921Y-83008330D01*
X210856218Y-83028847D01*
X210866446Y-83050471D01*
X210874504Y-83072993D01*
X210880316Y-83096197D01*
X210883826Y-83119858D01*
X210885000Y-83143750D01*
X210885000Y-83631250D01*
X210883826Y-83655142D01*
X210880316Y-83678803D01*
X210874504Y-83702007D01*
X210866446Y-83724529D01*
X210856218Y-83746153D01*
X210843921Y-83766670D01*
X210829671Y-83785883D01*
X210813607Y-83803607D01*
X210795883Y-83819671D01*
X210776670Y-83833921D01*
X210756153Y-83846218D01*
X210734529Y-83856446D01*
X210712007Y-83864504D01*
X210688803Y-83870316D01*
X210665142Y-83873826D01*
X210641250Y-83875000D01*
X209728750Y-83875000D01*
X209704858Y-83873826D01*
X209681197Y-83870316D01*
X209657993Y-83864504D01*
X209635471Y-83856446D01*
X209613847Y-83846218D01*
X209593330Y-83833921D01*
X209574117Y-83819671D01*
X209556393Y-83803607D01*
X209540329Y-83785883D01*
X209526079Y-83766670D01*
X209513782Y-83746153D01*
X209503554Y-83724529D01*
X209495496Y-83702007D01*
X209489684Y-83678803D01*
X209486174Y-83655142D01*
X209485000Y-83631250D01*
X209485000Y-83143750D01*
X209486174Y-83119858D01*
X209489684Y-83096197D01*
X209495496Y-83072993D01*
X209503554Y-83050471D01*
X209513782Y-83028847D01*
X209526079Y-83008330D01*
X209540329Y-82989117D01*
X209556393Y-82971393D01*
X209574117Y-82955329D01*
X209593330Y-82941079D01*
X209613847Y-82928782D01*
X209635471Y-82918554D01*
X209657993Y-82910496D01*
X209681197Y-82904684D01*
X209704858Y-82901174D01*
X209728750Y-82900000D01*
X210641250Y-82900000D01*
X210665142Y-82901174D01*
G37*
G04 #@! TD.AperFunction*
G04 #@! TA.AperFunction,SMDPad,CuDef*
G36*
X210665142Y-84776174D02*
G01*
X210688803Y-84779684D01*
X210712007Y-84785496D01*
X210734529Y-84793554D01*
X210756153Y-84803782D01*
X210776670Y-84816079D01*
X210795883Y-84830329D01*
X210813607Y-84846393D01*
X210829671Y-84864117D01*
X210843921Y-84883330D01*
X210856218Y-84903847D01*
X210866446Y-84925471D01*
X210874504Y-84947993D01*
X210880316Y-84971197D01*
X210883826Y-84994858D01*
X210885000Y-85018750D01*
X210885000Y-85506250D01*
X210883826Y-85530142D01*
X210880316Y-85553803D01*
X210874504Y-85577007D01*
X210866446Y-85599529D01*
X210856218Y-85621153D01*
X210843921Y-85641670D01*
X210829671Y-85660883D01*
X210813607Y-85678607D01*
X210795883Y-85694671D01*
X210776670Y-85708921D01*
X210756153Y-85721218D01*
X210734529Y-85731446D01*
X210712007Y-85739504D01*
X210688803Y-85745316D01*
X210665142Y-85748826D01*
X210641250Y-85750000D01*
X209728750Y-85750000D01*
X209704858Y-85748826D01*
X209681197Y-85745316D01*
X209657993Y-85739504D01*
X209635471Y-85731446D01*
X209613847Y-85721218D01*
X209593330Y-85708921D01*
X209574117Y-85694671D01*
X209556393Y-85678607D01*
X209540329Y-85660883D01*
X209526079Y-85641670D01*
X209513782Y-85621153D01*
X209503554Y-85599529D01*
X209495496Y-85577007D01*
X209489684Y-85553803D01*
X209486174Y-85530142D01*
X209485000Y-85506250D01*
X209485000Y-85018750D01*
X209486174Y-84994858D01*
X209489684Y-84971197D01*
X209495496Y-84947993D01*
X209503554Y-84925471D01*
X209513782Y-84903847D01*
X209526079Y-84883330D01*
X209540329Y-84864117D01*
X209556393Y-84846393D01*
X209574117Y-84830329D01*
X209593330Y-84816079D01*
X209613847Y-84803782D01*
X209635471Y-84793554D01*
X209657993Y-84785496D01*
X209681197Y-84779684D01*
X209704858Y-84776174D01*
X209728750Y-84775000D01*
X210641250Y-84775000D01*
X210665142Y-84776174D01*
G37*
G04 #@! TD.AperFunction*
G04 #@! TA.AperFunction,SMDPad,CuDef*
G36*
X208760142Y-84776174D02*
G01*
X208783803Y-84779684D01*
X208807007Y-84785496D01*
X208829529Y-84793554D01*
X208851153Y-84803782D01*
X208871670Y-84816079D01*
X208890883Y-84830329D01*
X208908607Y-84846393D01*
X208924671Y-84864117D01*
X208938921Y-84883330D01*
X208951218Y-84903847D01*
X208961446Y-84925471D01*
X208969504Y-84947993D01*
X208975316Y-84971197D01*
X208978826Y-84994858D01*
X208980000Y-85018750D01*
X208980000Y-85506250D01*
X208978826Y-85530142D01*
X208975316Y-85553803D01*
X208969504Y-85577007D01*
X208961446Y-85599529D01*
X208951218Y-85621153D01*
X208938921Y-85641670D01*
X208924671Y-85660883D01*
X208908607Y-85678607D01*
X208890883Y-85694671D01*
X208871670Y-85708921D01*
X208851153Y-85721218D01*
X208829529Y-85731446D01*
X208807007Y-85739504D01*
X208783803Y-85745316D01*
X208760142Y-85748826D01*
X208736250Y-85750000D01*
X207823750Y-85750000D01*
X207799858Y-85748826D01*
X207776197Y-85745316D01*
X207752993Y-85739504D01*
X207730471Y-85731446D01*
X207708847Y-85721218D01*
X207688330Y-85708921D01*
X207669117Y-85694671D01*
X207651393Y-85678607D01*
X207635329Y-85660883D01*
X207621079Y-85641670D01*
X207608782Y-85621153D01*
X207598554Y-85599529D01*
X207590496Y-85577007D01*
X207584684Y-85553803D01*
X207581174Y-85530142D01*
X207580000Y-85506250D01*
X207580000Y-85018750D01*
X207581174Y-84994858D01*
X207584684Y-84971197D01*
X207590496Y-84947993D01*
X207598554Y-84925471D01*
X207608782Y-84903847D01*
X207621079Y-84883330D01*
X207635329Y-84864117D01*
X207651393Y-84846393D01*
X207669117Y-84830329D01*
X207688330Y-84816079D01*
X207708847Y-84803782D01*
X207730471Y-84793554D01*
X207752993Y-84785496D01*
X207776197Y-84779684D01*
X207799858Y-84776174D01*
X207823750Y-84775000D01*
X208736250Y-84775000D01*
X208760142Y-84776174D01*
G37*
G04 #@! TD.AperFunction*
G04 #@! TA.AperFunction,SMDPad,CuDef*
G36*
X208760142Y-82901174D02*
G01*
X208783803Y-82904684D01*
X208807007Y-82910496D01*
X208829529Y-82918554D01*
X208851153Y-82928782D01*
X208871670Y-82941079D01*
X208890883Y-82955329D01*
X208908607Y-82971393D01*
X208924671Y-82989117D01*
X208938921Y-83008330D01*
X208951218Y-83028847D01*
X208961446Y-83050471D01*
X208969504Y-83072993D01*
X208975316Y-83096197D01*
X208978826Y-83119858D01*
X208980000Y-83143750D01*
X208980000Y-83631250D01*
X208978826Y-83655142D01*
X208975316Y-83678803D01*
X208969504Y-83702007D01*
X208961446Y-83724529D01*
X208951218Y-83746153D01*
X208938921Y-83766670D01*
X208924671Y-83785883D01*
X208908607Y-83803607D01*
X208890883Y-83819671D01*
X208871670Y-83833921D01*
X208851153Y-83846218D01*
X208829529Y-83856446D01*
X208807007Y-83864504D01*
X208783803Y-83870316D01*
X208760142Y-83873826D01*
X208736250Y-83875000D01*
X207823750Y-83875000D01*
X207799858Y-83873826D01*
X207776197Y-83870316D01*
X207752993Y-83864504D01*
X207730471Y-83856446D01*
X207708847Y-83846218D01*
X207688330Y-83833921D01*
X207669117Y-83819671D01*
X207651393Y-83803607D01*
X207635329Y-83785883D01*
X207621079Y-83766670D01*
X207608782Y-83746153D01*
X207598554Y-83724529D01*
X207590496Y-83702007D01*
X207584684Y-83678803D01*
X207581174Y-83655142D01*
X207580000Y-83631250D01*
X207580000Y-83143750D01*
X207581174Y-83119858D01*
X207584684Y-83096197D01*
X207590496Y-83072993D01*
X207598554Y-83050471D01*
X207608782Y-83028847D01*
X207621079Y-83008330D01*
X207635329Y-82989117D01*
X207651393Y-82971393D01*
X207669117Y-82955329D01*
X207688330Y-82941079D01*
X207708847Y-82928782D01*
X207730471Y-82918554D01*
X207752993Y-82910496D01*
X207776197Y-82904684D01*
X207799858Y-82901174D01*
X207823750Y-82900000D01*
X208736250Y-82900000D01*
X208760142Y-82901174D01*
G37*
G04 #@! TD.AperFunction*
G04 #@! TA.AperFunction,SMDPad,CuDef*
G36*
X206855142Y-82901174D02*
G01*
X206878803Y-82904684D01*
X206902007Y-82910496D01*
X206924529Y-82918554D01*
X206946153Y-82928782D01*
X206966670Y-82941079D01*
X206985883Y-82955329D01*
X207003607Y-82971393D01*
X207019671Y-82989117D01*
X207033921Y-83008330D01*
X207046218Y-83028847D01*
X207056446Y-83050471D01*
X207064504Y-83072993D01*
X207070316Y-83096197D01*
X207073826Y-83119858D01*
X207075000Y-83143750D01*
X207075000Y-83631250D01*
X207073826Y-83655142D01*
X207070316Y-83678803D01*
X207064504Y-83702007D01*
X207056446Y-83724529D01*
X207046218Y-83746153D01*
X207033921Y-83766670D01*
X207019671Y-83785883D01*
X207003607Y-83803607D01*
X206985883Y-83819671D01*
X206966670Y-83833921D01*
X206946153Y-83846218D01*
X206924529Y-83856446D01*
X206902007Y-83864504D01*
X206878803Y-83870316D01*
X206855142Y-83873826D01*
X206831250Y-83875000D01*
X205918750Y-83875000D01*
X205894858Y-83873826D01*
X205871197Y-83870316D01*
X205847993Y-83864504D01*
X205825471Y-83856446D01*
X205803847Y-83846218D01*
X205783330Y-83833921D01*
X205764117Y-83819671D01*
X205746393Y-83803607D01*
X205730329Y-83785883D01*
X205716079Y-83766670D01*
X205703782Y-83746153D01*
X205693554Y-83724529D01*
X205685496Y-83702007D01*
X205679684Y-83678803D01*
X205676174Y-83655142D01*
X205675000Y-83631250D01*
X205675000Y-83143750D01*
X205676174Y-83119858D01*
X205679684Y-83096197D01*
X205685496Y-83072993D01*
X205693554Y-83050471D01*
X205703782Y-83028847D01*
X205716079Y-83008330D01*
X205730329Y-82989117D01*
X205746393Y-82971393D01*
X205764117Y-82955329D01*
X205783330Y-82941079D01*
X205803847Y-82928782D01*
X205825471Y-82918554D01*
X205847993Y-82910496D01*
X205871197Y-82904684D01*
X205894858Y-82901174D01*
X205918750Y-82900000D01*
X206831250Y-82900000D01*
X206855142Y-82901174D01*
G37*
G04 #@! TD.AperFunction*
G04 #@! TA.AperFunction,SMDPad,CuDef*
G36*
X206855142Y-84776174D02*
G01*
X206878803Y-84779684D01*
X206902007Y-84785496D01*
X206924529Y-84793554D01*
X206946153Y-84803782D01*
X206966670Y-84816079D01*
X206985883Y-84830329D01*
X207003607Y-84846393D01*
X207019671Y-84864117D01*
X207033921Y-84883330D01*
X207046218Y-84903847D01*
X207056446Y-84925471D01*
X207064504Y-84947993D01*
X207070316Y-84971197D01*
X207073826Y-84994858D01*
X207075000Y-85018750D01*
X207075000Y-85506250D01*
X207073826Y-85530142D01*
X207070316Y-85553803D01*
X207064504Y-85577007D01*
X207056446Y-85599529D01*
X207046218Y-85621153D01*
X207033921Y-85641670D01*
X207019671Y-85660883D01*
X207003607Y-85678607D01*
X206985883Y-85694671D01*
X206966670Y-85708921D01*
X206946153Y-85721218D01*
X206924529Y-85731446D01*
X206902007Y-85739504D01*
X206878803Y-85745316D01*
X206855142Y-85748826D01*
X206831250Y-85750000D01*
X205918750Y-85750000D01*
X205894858Y-85748826D01*
X205871197Y-85745316D01*
X205847993Y-85739504D01*
X205825471Y-85731446D01*
X205803847Y-85721218D01*
X205783330Y-85708921D01*
X205764117Y-85694671D01*
X205746393Y-85678607D01*
X205730329Y-85660883D01*
X205716079Y-85641670D01*
X205703782Y-85621153D01*
X205693554Y-85599529D01*
X205685496Y-85577007D01*
X205679684Y-85553803D01*
X205676174Y-85530142D01*
X205675000Y-85506250D01*
X205675000Y-85018750D01*
X205676174Y-84994858D01*
X205679684Y-84971197D01*
X205685496Y-84947993D01*
X205693554Y-84925471D01*
X205703782Y-84903847D01*
X205716079Y-84883330D01*
X205730329Y-84864117D01*
X205746393Y-84846393D01*
X205764117Y-84830329D01*
X205783330Y-84816079D01*
X205803847Y-84803782D01*
X205825471Y-84793554D01*
X205847993Y-84785496D01*
X205871197Y-84779684D01*
X205894858Y-84776174D01*
X205918750Y-84775000D01*
X206831250Y-84775000D01*
X206855142Y-84776174D01*
G37*
G04 #@! TD.AperFunction*
D20*
X206250000Y-80250000D03*
X208250000Y-80250000D03*
X210250000Y-80250000D03*
X210250000Y-81500000D03*
X208250000Y-81500000D03*
X206250000Y-81500000D03*
X212000000Y-80250000D03*
X212000000Y-81500000D03*
D21*
X200700003Y-84485001D02*
X201105001Y-84485001D01*
X203947500Y-85262500D02*
X203805001Y-85120001D01*
X201740001Y-85120001D02*
X201105001Y-84485001D01*
X231400000Y-88800000D02*
X231400000Y-87350000D01*
X231400000Y-90100000D02*
X231400000Y-88800000D01*
D22*
G36*
X236050703Y-94873000D02*
G01*
X197429870Y-94873000D01*
X197393173Y-93119430D01*
X197420000Y-93122072D01*
X197834250Y-93119000D01*
X197993000Y-92960250D01*
X197993000Y-92123500D01*
X197973000Y-92123500D01*
X197973000Y-91869500D01*
X197993000Y-91869500D01*
X197993000Y-91849500D01*
X198247000Y-91849500D01*
X198247000Y-91869500D01*
X198267000Y-91869500D01*
X198267000Y-92123500D01*
X198247000Y-92123500D01*
X198247000Y-92960250D01*
X198405750Y-93119000D01*
X198820000Y-93122072D01*
X198944482Y-93109812D01*
X199064180Y-93073502D01*
X199151178Y-93027000D01*
X219500000Y-93027000D01*
X219524776Y-93024560D01*
X219548601Y-93017333D01*
X219570557Y-93005597D01*
X219589803Y-92989803D01*
X219605597Y-92970557D01*
X219617333Y-92948601D01*
X219624560Y-92924776D01*
X219627000Y-92900000D01*
X219627000Y-89377000D01*
X228600000Y-89377000D01*
X228624776Y-89374560D01*
X228648601Y-89367333D01*
X228670557Y-89355597D01*
X228689803Y-89339803D01*
X228705597Y-89320557D01*
X228717333Y-89298601D01*
X228724560Y-89274776D01*
X228726998Y-89250762D01*
X228731202Y-88550000D01*
X230111928Y-88550000D01*
X230124188Y-88674482D01*
X230160498Y-88794180D01*
X230219463Y-88904494D01*
X230298815Y-89001185D01*
X230395506Y-89080537D01*
X230505820Y-89139502D01*
X230625518Y-89175812D01*
X230750000Y-89188072D01*
X231114250Y-89185000D01*
X231273000Y-89026250D01*
X231273000Y-87477000D01*
X231527000Y-87477000D01*
X231527000Y-89026250D01*
X231685750Y-89185000D01*
X232050000Y-89188072D01*
X232174482Y-89175812D01*
X232294180Y-89139502D01*
X232404494Y-89080537D01*
X232501185Y-89001185D01*
X232580537Y-88904494D01*
X232639502Y-88794180D01*
X232675812Y-88674482D01*
X232688072Y-88550000D01*
X232685000Y-87635750D01*
X232526250Y-87477000D01*
X231527000Y-87477000D01*
X231273000Y-87477000D01*
X230273750Y-87477000D01*
X230115000Y-87635750D01*
X230111928Y-88550000D01*
X228731202Y-88550000D01*
X228745602Y-86150000D01*
X230111928Y-86150000D01*
X230115000Y-87064250D01*
X230273750Y-87223000D01*
X231273000Y-87223000D01*
X231273000Y-85673750D01*
X231527000Y-85673750D01*
X231527000Y-87223000D01*
X232526250Y-87223000D01*
X232685000Y-87064250D01*
X232688072Y-86150000D01*
X232675812Y-86025518D01*
X232639502Y-85905820D01*
X232580537Y-85795506D01*
X232501185Y-85698815D01*
X232404494Y-85619463D01*
X232294180Y-85560498D01*
X232174482Y-85524188D01*
X232050000Y-85511928D01*
X231685750Y-85515000D01*
X231527000Y-85673750D01*
X231273000Y-85673750D01*
X231114250Y-85515000D01*
X230750000Y-85511928D01*
X230625518Y-85524188D01*
X230505820Y-85560498D01*
X230395506Y-85619463D01*
X230298815Y-85698815D01*
X230219463Y-85795506D01*
X230160498Y-85905820D01*
X230124188Y-86025518D01*
X230111928Y-86150000D01*
X228745602Y-86150000D01*
X228773802Y-81450000D01*
X230511928Y-81450000D01*
X230524188Y-81574482D01*
X230560498Y-81694180D01*
X230619463Y-81804494D01*
X230698815Y-81901185D01*
X230795506Y-81980537D01*
X230905820Y-82039502D01*
X231025518Y-82075812D01*
X231150000Y-82088072D01*
X232264250Y-82085000D01*
X232423000Y-81926250D01*
X232423000Y-78927000D01*
X232677000Y-78927000D01*
X232677000Y-81926250D01*
X232835750Y-82085000D01*
X233950000Y-82088072D01*
X234074482Y-82075812D01*
X234194180Y-82039502D01*
X234304494Y-81980537D01*
X234401185Y-81901185D01*
X234480537Y-81804494D01*
X234539502Y-81694180D01*
X234575812Y-81574482D01*
X234588072Y-81450000D01*
X234585000Y-79085750D01*
X234426250Y-78927000D01*
X232677000Y-78927000D01*
X232423000Y-78927000D01*
X230673750Y-78927000D01*
X230515000Y-79085750D01*
X230511928Y-81450000D01*
X228773802Y-81450000D01*
X228805602Y-76150000D01*
X230511928Y-76150000D01*
X230515000Y-78514250D01*
X230673750Y-78673000D01*
X232423000Y-78673000D01*
X232423000Y-75673750D01*
X232677000Y-75673750D01*
X232677000Y-78673000D01*
X234426250Y-78673000D01*
X234585000Y-78514250D01*
X234588072Y-76150000D01*
X234575812Y-76025518D01*
X234539502Y-75905820D01*
X234480537Y-75795506D01*
X234401185Y-75698815D01*
X234304494Y-75619463D01*
X234194180Y-75560498D01*
X234074482Y-75524188D01*
X233950000Y-75511928D01*
X232835750Y-75515000D01*
X232677000Y-75673750D01*
X232423000Y-75673750D01*
X232264250Y-75515000D01*
X231150000Y-75511928D01*
X231025518Y-75524188D01*
X230905820Y-75560498D01*
X230795506Y-75619463D01*
X230698815Y-75698815D01*
X230619463Y-75795506D01*
X230560498Y-75905820D01*
X230524188Y-76025518D01*
X230511928Y-76150000D01*
X228805602Y-76150000D01*
X228816241Y-74377000D01*
X236064943Y-74377000D01*
X236050703Y-94873000D01*
G37*
X236050703Y-94873000D02*
X197429870Y-94873000D01*
X197393173Y-93119430D01*
X197420000Y-93122072D01*
X197834250Y-93119000D01*
X197993000Y-92960250D01*
X197993000Y-92123500D01*
X197973000Y-92123500D01*
X197973000Y-91869500D01*
X197993000Y-91869500D01*
X197993000Y-91849500D01*
X198247000Y-91849500D01*
X198247000Y-91869500D01*
X198267000Y-91869500D01*
X198267000Y-92123500D01*
X198247000Y-92123500D01*
X198247000Y-92960250D01*
X198405750Y-93119000D01*
X198820000Y-93122072D01*
X198944482Y-93109812D01*
X199064180Y-93073502D01*
X199151178Y-93027000D01*
X219500000Y-93027000D01*
X219524776Y-93024560D01*
X219548601Y-93017333D01*
X219570557Y-93005597D01*
X219589803Y-92989803D01*
X219605597Y-92970557D01*
X219617333Y-92948601D01*
X219624560Y-92924776D01*
X219627000Y-92900000D01*
X219627000Y-89377000D01*
X228600000Y-89377000D01*
X228624776Y-89374560D01*
X228648601Y-89367333D01*
X228670557Y-89355597D01*
X228689803Y-89339803D01*
X228705597Y-89320557D01*
X228717333Y-89298601D01*
X228724560Y-89274776D01*
X228726998Y-89250762D01*
X228731202Y-88550000D01*
X230111928Y-88550000D01*
X230124188Y-88674482D01*
X230160498Y-88794180D01*
X230219463Y-88904494D01*
X230298815Y-89001185D01*
X230395506Y-89080537D01*
X230505820Y-89139502D01*
X230625518Y-89175812D01*
X230750000Y-89188072D01*
X231114250Y-89185000D01*
X231273000Y-89026250D01*
X231273000Y-87477000D01*
X231527000Y-87477000D01*
X231527000Y-89026250D01*
X231685750Y-89185000D01*
X232050000Y-89188072D01*
X232174482Y-89175812D01*
X232294180Y-89139502D01*
X232404494Y-89080537D01*
X232501185Y-89001185D01*
X232580537Y-88904494D01*
X232639502Y-88794180D01*
X232675812Y-88674482D01*
X232688072Y-88550000D01*
X232685000Y-87635750D01*
X232526250Y-87477000D01*
X231527000Y-87477000D01*
X231273000Y-87477000D01*
X230273750Y-87477000D01*
X230115000Y-87635750D01*
X230111928Y-88550000D01*
X228731202Y-88550000D01*
X228745602Y-86150000D01*
X230111928Y-86150000D01*
X230115000Y-87064250D01*
X230273750Y-87223000D01*
X231273000Y-87223000D01*
X231273000Y-85673750D01*
X231527000Y-85673750D01*
X231527000Y-87223000D01*
X232526250Y-87223000D01*
X232685000Y-87064250D01*
X232688072Y-86150000D01*
X232675812Y-86025518D01*
X232639502Y-85905820D01*
X232580537Y-85795506D01*
X232501185Y-85698815D01*
X232404494Y-85619463D01*
X232294180Y-85560498D01*
X232174482Y-85524188D01*
X232050000Y-85511928D01*
X231685750Y-85515000D01*
X231527000Y-85673750D01*
X231273000Y-85673750D01*
X231114250Y-85515000D01*
X230750000Y-85511928D01*
X230625518Y-85524188D01*
X230505820Y-85560498D01*
X230395506Y-85619463D01*
X230298815Y-85698815D01*
X230219463Y-85795506D01*
X230160498Y-85905820D01*
X230124188Y-86025518D01*
X230111928Y-86150000D01*
X228745602Y-86150000D01*
X228773802Y-81450000D01*
X230511928Y-81450000D01*
X230524188Y-81574482D01*
X230560498Y-81694180D01*
X230619463Y-81804494D01*
X230698815Y-81901185D01*
X230795506Y-81980537D01*
X230905820Y-82039502D01*
X231025518Y-82075812D01*
X231150000Y-82088072D01*
X232264250Y-82085000D01*
X232423000Y-81926250D01*
X232423000Y-78927000D01*
X232677000Y-78927000D01*
X232677000Y-81926250D01*
X232835750Y-82085000D01*
X233950000Y-82088072D01*
X234074482Y-82075812D01*
X234194180Y-82039502D01*
X234304494Y-81980537D01*
X234401185Y-81901185D01*
X234480537Y-81804494D01*
X234539502Y-81694180D01*
X234575812Y-81574482D01*
X234588072Y-81450000D01*
X234585000Y-79085750D01*
X234426250Y-78927000D01*
X232677000Y-78927000D01*
X232423000Y-78927000D01*
X230673750Y-78927000D01*
X230515000Y-79085750D01*
X230511928Y-81450000D01*
X228773802Y-81450000D01*
X228805602Y-76150000D01*
X230511928Y-76150000D01*
X230515000Y-78514250D01*
X230673750Y-78673000D01*
X232423000Y-78673000D01*
X232423000Y-75673750D01*
X232677000Y-75673750D01*
X232677000Y-78673000D01*
X234426250Y-78673000D01*
X234585000Y-78514250D01*
X234588072Y-76150000D01*
X234575812Y-76025518D01*
X234539502Y-75905820D01*
X234480537Y-75795506D01*
X234401185Y-75698815D01*
X234304494Y-75619463D01*
X234194180Y-75560498D01*
X234074482Y-75524188D01*
X233950000Y-75511928D01*
X232835750Y-75515000D01*
X232677000Y-75673750D01*
X232423000Y-75673750D01*
X232264250Y-75515000D01*
X231150000Y-75511928D01*
X231025518Y-75524188D01*
X230905820Y-75560498D01*
X230795506Y-75619463D01*
X230698815Y-75698815D01*
X230619463Y-75795506D01*
X230560498Y-75905820D01*
X230524188Y-76025518D01*
X230511928Y-76150000D01*
X228805602Y-76150000D01*
X228816241Y-74377000D01*
X236064943Y-74377000D01*
X236050703Y-94873000D01*
G36*
X227838965Y-85598000D02*
G01*
X226264340Y-85598000D01*
X226194180Y-85560498D01*
X226074482Y-85524188D01*
X225950000Y-85511928D01*
X224650000Y-85511928D01*
X224525518Y-85524188D01*
X224405820Y-85560498D01*
X224335660Y-85598000D01*
X219837000Y-85598000D01*
X219837000Y-81915000D01*
X219834560Y-81890224D01*
X219827333Y-81866399D01*
X219815597Y-81844443D01*
X219799803Y-81825197D01*
X219780557Y-81809403D01*
X219758601Y-81797667D01*
X219734776Y-81790440D01*
X219710304Y-81788000D01*
X213576959Y-81773303D01*
X213576854Y-81450000D01*
X220411928Y-81450000D01*
X220424188Y-81574482D01*
X220460498Y-81694180D01*
X220519463Y-81804494D01*
X220598815Y-81901185D01*
X220695506Y-81980537D01*
X220805820Y-82039502D01*
X220925518Y-82075812D01*
X221050000Y-82088072D01*
X222164250Y-82085000D01*
X222323000Y-81926250D01*
X222323000Y-78927000D01*
X222577000Y-78927000D01*
X222577000Y-81926250D01*
X222735750Y-82085000D01*
X223850000Y-82088072D01*
X223974482Y-82075812D01*
X224094180Y-82039502D01*
X224204494Y-81980537D01*
X224301185Y-81901185D01*
X224380537Y-81804494D01*
X224439502Y-81694180D01*
X224475812Y-81574482D01*
X224488072Y-81450000D01*
X224485000Y-79085750D01*
X224326250Y-78927000D01*
X222577000Y-78927000D01*
X222323000Y-78927000D01*
X220573750Y-78927000D01*
X220415000Y-79085750D01*
X220411928Y-81450000D01*
X213576854Y-81450000D01*
X213576303Y-79765000D01*
X214246928Y-79765000D01*
X214259188Y-79889482D01*
X214295498Y-80009180D01*
X214354463Y-80119494D01*
X214433815Y-80216185D01*
X214530506Y-80295537D01*
X214640820Y-80354502D01*
X214760518Y-80390812D01*
X214885000Y-80403072D01*
X216249250Y-80400000D01*
X216408000Y-80241250D01*
X216408000Y-78642000D01*
X216662000Y-78642000D01*
X216662000Y-80241250D01*
X216820750Y-80400000D01*
X218185000Y-80403072D01*
X218309482Y-80390812D01*
X218429180Y-80354502D01*
X218539494Y-80295537D01*
X218636185Y-80216185D01*
X218715537Y-80119494D01*
X218774502Y-80009180D01*
X218810812Y-79889482D01*
X218823072Y-79765000D01*
X218820000Y-78800750D01*
X218661250Y-78642000D01*
X216662000Y-78642000D01*
X216408000Y-78642000D01*
X214408750Y-78642000D01*
X214250000Y-78800750D01*
X214246928Y-79765000D01*
X213576303Y-79765000D01*
X213575807Y-78249958D01*
X213573359Y-78225183D01*
X213566124Y-78201361D01*
X213554381Y-78179408D01*
X213538580Y-78160168D01*
X213519330Y-78144380D01*
X213497369Y-78132651D01*
X213473543Y-78125432D01*
X213448807Y-78123000D01*
X204750000Y-78123000D01*
X204725224Y-78125440D01*
X204701399Y-78132667D01*
X204679443Y-78144403D01*
X204660197Y-78160197D01*
X204644403Y-78179443D01*
X204632667Y-78201399D01*
X204625440Y-78225224D01*
X204623000Y-78250000D01*
X204623000Y-78613000D01*
X204625440Y-78637776D01*
X204632667Y-78661601D01*
X204644403Y-78683557D01*
X204660197Y-78702803D01*
X204679443Y-78718597D01*
X204701399Y-78730333D01*
X204724047Y-78737203D01*
X204725146Y-81660457D01*
X204704483Y-81654189D01*
X204580001Y-81641929D01*
X204090751Y-81645001D01*
X203932001Y-81803751D01*
X203932001Y-82453001D01*
X203952001Y-82453001D01*
X203952001Y-82473000D01*
X203658001Y-82473000D01*
X203658001Y-82453001D01*
X203678001Y-82453001D01*
X203678001Y-81803751D01*
X203519251Y-81645001D01*
X203226853Y-81643165D01*
X203226625Y-81399881D01*
X203224161Y-81375107D01*
X203216912Y-81351289D01*
X203205155Y-81329344D01*
X203189343Y-81310113D01*
X203170083Y-81294337D01*
X203148116Y-81282622D01*
X203124285Y-81275417D01*
X203099625Y-81273000D01*
X202711261Y-81273000D01*
X202771994Y-81240537D01*
X202868685Y-81161185D01*
X202948037Y-81064494D01*
X203007002Y-80954180D01*
X203043312Y-80834482D01*
X203055572Y-80710000D01*
X203052500Y-80295750D01*
X202893750Y-80137000D01*
X202057000Y-80137000D01*
X202057000Y-80157000D01*
X201803000Y-80157000D01*
X201803000Y-80137000D01*
X201783000Y-80137000D01*
X201783000Y-79883000D01*
X201803000Y-79883000D01*
X201803000Y-78833750D01*
X202057000Y-78833750D01*
X202057000Y-79883000D01*
X202893750Y-79883000D01*
X203052500Y-79724250D01*
X203055572Y-79310000D01*
X203043312Y-79185518D01*
X203007002Y-79065820D01*
X202948037Y-78955506D01*
X202868685Y-78858815D01*
X202771994Y-78779463D01*
X202661680Y-78720498D01*
X202541982Y-78684188D01*
X202417500Y-78671928D01*
X202215750Y-78675000D01*
X202057000Y-78833750D01*
X201803000Y-78833750D01*
X201644250Y-78675000D01*
X201601435Y-78674348D01*
X201589808Y-78660185D01*
X201570561Y-78644394D01*
X201548603Y-78632661D01*
X201524778Y-78625437D01*
X201500018Y-78623000D01*
X201377000Y-78623000D01*
X201377000Y-77265000D01*
X214246928Y-77265000D01*
X214250000Y-78229250D01*
X214408750Y-78388000D01*
X216408000Y-78388000D01*
X216408000Y-76788750D01*
X216662000Y-76788750D01*
X216662000Y-78388000D01*
X218661250Y-78388000D01*
X218820000Y-78229250D01*
X218823072Y-77265000D01*
X218810812Y-77140518D01*
X218774502Y-77020820D01*
X218715537Y-76910506D01*
X218636185Y-76813815D01*
X218539494Y-76734463D01*
X218429180Y-76675498D01*
X218309482Y-76639188D01*
X218185000Y-76626928D01*
X216820750Y-76630000D01*
X216662000Y-76788750D01*
X216408000Y-76788750D01*
X216249250Y-76630000D01*
X214885000Y-76626928D01*
X214760518Y-76639188D01*
X214640820Y-76675498D01*
X214530506Y-76734463D01*
X214433815Y-76813815D01*
X214354463Y-76910506D01*
X214295498Y-77020820D01*
X214259188Y-77140518D01*
X214246928Y-77265000D01*
X201377000Y-77265000D01*
X201377000Y-76150000D01*
X220411928Y-76150000D01*
X220415000Y-78514250D01*
X220573750Y-78673000D01*
X222323000Y-78673000D01*
X222323000Y-75673750D01*
X222577000Y-75673750D01*
X222577000Y-78673000D01*
X224326250Y-78673000D01*
X224485000Y-78514250D01*
X224488072Y-76150000D01*
X224475812Y-76025518D01*
X224439502Y-75905820D01*
X224380537Y-75795506D01*
X224301185Y-75698815D01*
X224204494Y-75619463D01*
X224094180Y-75560498D01*
X223974482Y-75524188D01*
X223850000Y-75511928D01*
X222735750Y-75515000D01*
X222577000Y-75673750D01*
X222323000Y-75673750D01*
X222164250Y-75515000D01*
X221050000Y-75511928D01*
X220925518Y-75524188D01*
X220805820Y-75560498D01*
X220695506Y-75619463D01*
X220598815Y-75698815D01*
X220519463Y-75795506D01*
X220460498Y-75905820D01*
X220424188Y-76025518D01*
X220411928Y-76150000D01*
X201377000Y-76150000D01*
X201377000Y-74627000D01*
X213447582Y-74627000D01*
X213472358Y-74624560D01*
X213496183Y-74617333D01*
X213518139Y-74605597D01*
X213537385Y-74589803D01*
X213553179Y-74570557D01*
X213564915Y-74548601D01*
X213572142Y-74524776D01*
X213574582Y-74499958D01*
X213574542Y-74377000D01*
X227924528Y-74377000D01*
X227838965Y-85598000D01*
G37*
X227838965Y-85598000D02*
X226264340Y-85598000D01*
X226194180Y-85560498D01*
X226074482Y-85524188D01*
X225950000Y-85511928D01*
X224650000Y-85511928D01*
X224525518Y-85524188D01*
X224405820Y-85560498D01*
X224335660Y-85598000D01*
X219837000Y-85598000D01*
X219837000Y-81915000D01*
X219834560Y-81890224D01*
X219827333Y-81866399D01*
X219815597Y-81844443D01*
X219799803Y-81825197D01*
X219780557Y-81809403D01*
X219758601Y-81797667D01*
X219734776Y-81790440D01*
X219710304Y-81788000D01*
X213576959Y-81773303D01*
X213576854Y-81450000D01*
X220411928Y-81450000D01*
X220424188Y-81574482D01*
X220460498Y-81694180D01*
X220519463Y-81804494D01*
X220598815Y-81901185D01*
X220695506Y-81980537D01*
X220805820Y-82039502D01*
X220925518Y-82075812D01*
X221050000Y-82088072D01*
X222164250Y-82085000D01*
X222323000Y-81926250D01*
X222323000Y-78927000D01*
X222577000Y-78927000D01*
X222577000Y-81926250D01*
X222735750Y-82085000D01*
X223850000Y-82088072D01*
X223974482Y-82075812D01*
X224094180Y-82039502D01*
X224204494Y-81980537D01*
X224301185Y-81901185D01*
X224380537Y-81804494D01*
X224439502Y-81694180D01*
X224475812Y-81574482D01*
X224488072Y-81450000D01*
X224485000Y-79085750D01*
X224326250Y-78927000D01*
X222577000Y-78927000D01*
X222323000Y-78927000D01*
X220573750Y-78927000D01*
X220415000Y-79085750D01*
X220411928Y-81450000D01*
X213576854Y-81450000D01*
X213576303Y-79765000D01*
X214246928Y-79765000D01*
X214259188Y-79889482D01*
X214295498Y-80009180D01*
X214354463Y-80119494D01*
X214433815Y-80216185D01*
X214530506Y-80295537D01*
X214640820Y-80354502D01*
X214760518Y-80390812D01*
X214885000Y-80403072D01*
X216249250Y-80400000D01*
X216408000Y-80241250D01*
X216408000Y-78642000D01*
X216662000Y-78642000D01*
X216662000Y-80241250D01*
X216820750Y-80400000D01*
X218185000Y-80403072D01*
X218309482Y-80390812D01*
X218429180Y-80354502D01*
X218539494Y-80295537D01*
X218636185Y-80216185D01*
X218715537Y-80119494D01*
X218774502Y-80009180D01*
X218810812Y-79889482D01*
X218823072Y-79765000D01*
X218820000Y-78800750D01*
X218661250Y-78642000D01*
X216662000Y-78642000D01*
X216408000Y-78642000D01*
X214408750Y-78642000D01*
X214250000Y-78800750D01*
X214246928Y-79765000D01*
X213576303Y-79765000D01*
X213575807Y-78249958D01*
X213573359Y-78225183D01*
X213566124Y-78201361D01*
X213554381Y-78179408D01*
X213538580Y-78160168D01*
X213519330Y-78144380D01*
X213497369Y-78132651D01*
X213473543Y-78125432D01*
X213448807Y-78123000D01*
X204750000Y-78123000D01*
X204725224Y-78125440D01*
X204701399Y-78132667D01*
X204679443Y-78144403D01*
X204660197Y-78160197D01*
X204644403Y-78179443D01*
X204632667Y-78201399D01*
X204625440Y-78225224D01*
X204623000Y-78250000D01*
X204623000Y-78613000D01*
X204625440Y-78637776D01*
X204632667Y-78661601D01*
X204644403Y-78683557D01*
X204660197Y-78702803D01*
X204679443Y-78718597D01*
X204701399Y-78730333D01*
X204724047Y-78737203D01*
X204725146Y-81660457D01*
X204704483Y-81654189D01*
X204580001Y-81641929D01*
X204090751Y-81645001D01*
X203932001Y-81803751D01*
X203932001Y-82453001D01*
X203952001Y-82453001D01*
X203952001Y-82473000D01*
X203658001Y-82473000D01*
X203658001Y-82453001D01*
X203678001Y-82453001D01*
X203678001Y-81803751D01*
X203519251Y-81645001D01*
X203226853Y-81643165D01*
X203226625Y-81399881D01*
X203224161Y-81375107D01*
X203216912Y-81351289D01*
X203205155Y-81329344D01*
X203189343Y-81310113D01*
X203170083Y-81294337D01*
X203148116Y-81282622D01*
X203124285Y-81275417D01*
X203099625Y-81273000D01*
X202711261Y-81273000D01*
X202771994Y-81240537D01*
X202868685Y-81161185D01*
X202948037Y-81064494D01*
X203007002Y-80954180D01*
X203043312Y-80834482D01*
X203055572Y-80710000D01*
X203052500Y-80295750D01*
X202893750Y-80137000D01*
X202057000Y-80137000D01*
X202057000Y-80157000D01*
X201803000Y-80157000D01*
X201803000Y-80137000D01*
X201783000Y-80137000D01*
X201783000Y-79883000D01*
X201803000Y-79883000D01*
X201803000Y-78833750D01*
X202057000Y-78833750D01*
X202057000Y-79883000D01*
X202893750Y-79883000D01*
X203052500Y-79724250D01*
X203055572Y-79310000D01*
X203043312Y-79185518D01*
X203007002Y-79065820D01*
X202948037Y-78955506D01*
X202868685Y-78858815D01*
X202771994Y-78779463D01*
X202661680Y-78720498D01*
X202541982Y-78684188D01*
X202417500Y-78671928D01*
X202215750Y-78675000D01*
X202057000Y-78833750D01*
X201803000Y-78833750D01*
X201644250Y-78675000D01*
X201601435Y-78674348D01*
X201589808Y-78660185D01*
X201570561Y-78644394D01*
X201548603Y-78632661D01*
X201524778Y-78625437D01*
X201500018Y-78623000D01*
X201377000Y-78623000D01*
X201377000Y-77265000D01*
X214246928Y-77265000D01*
X214250000Y-78229250D01*
X214408750Y-78388000D01*
X216408000Y-78388000D01*
X216408000Y-76788750D01*
X216662000Y-76788750D01*
X216662000Y-78388000D01*
X218661250Y-78388000D01*
X218820000Y-78229250D01*
X218823072Y-77265000D01*
X218810812Y-77140518D01*
X218774502Y-77020820D01*
X218715537Y-76910506D01*
X218636185Y-76813815D01*
X218539494Y-76734463D01*
X218429180Y-76675498D01*
X218309482Y-76639188D01*
X218185000Y-76626928D01*
X216820750Y-76630000D01*
X216662000Y-76788750D01*
X216408000Y-76788750D01*
X216249250Y-76630000D01*
X214885000Y-76626928D01*
X214760518Y-76639188D01*
X214640820Y-76675498D01*
X214530506Y-76734463D01*
X214433815Y-76813815D01*
X214354463Y-76910506D01*
X214295498Y-77020820D01*
X214259188Y-77140518D01*
X214246928Y-77265000D01*
X201377000Y-77265000D01*
X201377000Y-76150000D01*
X220411928Y-76150000D01*
X220415000Y-78514250D01*
X220573750Y-78673000D01*
X222323000Y-78673000D01*
X222323000Y-75673750D01*
X222577000Y-75673750D01*
X222577000Y-78673000D01*
X224326250Y-78673000D01*
X224485000Y-78514250D01*
X224488072Y-76150000D01*
X224475812Y-76025518D01*
X224439502Y-75905820D01*
X224380537Y-75795506D01*
X224301185Y-75698815D01*
X224204494Y-75619463D01*
X224094180Y-75560498D01*
X223974482Y-75524188D01*
X223850000Y-75511928D01*
X222735750Y-75515000D01*
X222577000Y-75673750D01*
X222323000Y-75673750D01*
X222164250Y-75515000D01*
X221050000Y-75511928D01*
X220925518Y-75524188D01*
X220805820Y-75560498D01*
X220695506Y-75619463D01*
X220598815Y-75698815D01*
X220519463Y-75795506D01*
X220460498Y-75905820D01*
X220424188Y-76025518D01*
X220411928Y-76150000D01*
X201377000Y-76150000D01*
X201377000Y-74627000D01*
X213447582Y-74627000D01*
X213472358Y-74624560D01*
X213496183Y-74617333D01*
X213518139Y-74605597D01*
X213537385Y-74589803D01*
X213553179Y-74570557D01*
X213564915Y-74548601D01*
X213572142Y-74524776D01*
X213574582Y-74499958D01*
X213574542Y-74377000D01*
X227924528Y-74377000D01*
X227838965Y-85598000D01*
G36*
X202273000Y-84709000D02*
G01*
X202275440Y-84733776D01*
X202282667Y-84757601D01*
X202294403Y-84779557D01*
X202310197Y-84798803D01*
X202329443Y-84814597D01*
X202351399Y-84826333D01*
X202375224Y-84833560D01*
X202400102Y-84836000D01*
X213600102Y-84827000D01*
X213624877Y-84824540D01*
X213648695Y-84817294D01*
X213670642Y-84805540D01*
X213689875Y-84789730D01*
X213705653Y-84770473D01*
X213717372Y-84748506D01*
X213724580Y-84724676D01*
X213727000Y-84700000D01*
X213727000Y-82725846D01*
X218948000Y-82678165D01*
X218948000Y-86300000D01*
X218950440Y-86324776D01*
X218957667Y-86348601D01*
X218969403Y-86370557D01*
X218985197Y-86389803D01*
X219004443Y-86405597D01*
X219026399Y-86417333D01*
X219050224Y-86424560D01*
X219075000Y-86427000D01*
X226123000Y-86427000D01*
X226123000Y-88373000D01*
X218900000Y-88373000D01*
X218875224Y-88375440D01*
X218851399Y-88382667D01*
X218829443Y-88394403D01*
X218810197Y-88410197D01*
X218794403Y-88429443D01*
X218782667Y-88451399D01*
X218775440Y-88475224D01*
X218773000Y-88500000D01*
X218773000Y-92073000D01*
X199526873Y-92073000D01*
X199522027Y-87227202D01*
X199534495Y-87220538D01*
X199631186Y-87141186D01*
X199710538Y-87044495D01*
X199769503Y-86934181D01*
X199805813Y-86814483D01*
X199818073Y-86690001D01*
X199818073Y-86090001D01*
X202391929Y-86090001D01*
X202391929Y-86690001D01*
X202404189Y-86814483D01*
X202438000Y-86925943D01*
X202438000Y-86995000D01*
X202440440Y-87019776D01*
X202447667Y-87043601D01*
X202459403Y-87065557D01*
X202475197Y-87084803D01*
X202494443Y-87100597D01*
X202516399Y-87112333D01*
X202540224Y-87119560D01*
X202562901Y-87121793D01*
X202578816Y-87141186D01*
X202675507Y-87220538D01*
X202785821Y-87279503D01*
X202905519Y-87315813D01*
X203030001Y-87328073D01*
X204580001Y-87328073D01*
X204704483Y-87315813D01*
X204824181Y-87279503D01*
X204934495Y-87220538D01*
X205031186Y-87141186D01*
X205046931Y-87122000D01*
X205105000Y-87122000D01*
X205129776Y-87119560D01*
X205153601Y-87112333D01*
X205175557Y-87100597D01*
X205194803Y-87084803D01*
X205210597Y-87065557D01*
X205222333Y-87043601D01*
X205229560Y-87019776D01*
X205232000Y-86995000D01*
X205232000Y-85725000D01*
X205229560Y-85700224D01*
X205222333Y-85676399D01*
X205210597Y-85654443D01*
X205194803Y-85635197D01*
X205175557Y-85619403D01*
X205153601Y-85607667D01*
X205129776Y-85600440D01*
X205105000Y-85598000D01*
X204981451Y-85598000D01*
X204934495Y-85559464D01*
X204824181Y-85500499D01*
X204704483Y-85464189D01*
X204580001Y-85451929D01*
X203030001Y-85451929D01*
X202905519Y-85464189D01*
X202785821Y-85500499D01*
X202675507Y-85559464D01*
X202628551Y-85598000D01*
X202565000Y-85598000D01*
X202540224Y-85600440D01*
X202516399Y-85607667D01*
X202494443Y-85619403D01*
X202475197Y-85635197D01*
X202459403Y-85654443D01*
X202447667Y-85676399D01*
X202440440Y-85700224D01*
X202438000Y-85725000D01*
X202438000Y-85854059D01*
X202404189Y-85965519D01*
X202391929Y-86090001D01*
X199818073Y-86090001D01*
X199805813Y-85965519D01*
X199769503Y-85845821D01*
X199720958Y-85755001D01*
X199769503Y-85664181D01*
X199805813Y-85544483D01*
X199818073Y-85420001D01*
X199818073Y-84820001D01*
X199805813Y-84695519D01*
X199769503Y-84575821D01*
X199720958Y-84485001D01*
X199769503Y-84394181D01*
X199805813Y-84274483D01*
X199818073Y-84150001D01*
X199818073Y-83550001D01*
X199805813Y-83425519D01*
X199769503Y-83305821D01*
X199720958Y-83215001D01*
X199769503Y-83124181D01*
X199805813Y-83004483D01*
X199818073Y-82880001D01*
X199818073Y-82327000D01*
X202273000Y-82327000D01*
X202273000Y-84709000D01*
G37*
X202273000Y-84709000D02*
X202275440Y-84733776D01*
X202282667Y-84757601D01*
X202294403Y-84779557D01*
X202310197Y-84798803D01*
X202329443Y-84814597D01*
X202351399Y-84826333D01*
X202375224Y-84833560D01*
X202400102Y-84836000D01*
X213600102Y-84827000D01*
X213624877Y-84824540D01*
X213648695Y-84817294D01*
X213670642Y-84805540D01*
X213689875Y-84789730D01*
X213705653Y-84770473D01*
X213717372Y-84748506D01*
X213724580Y-84724676D01*
X213727000Y-84700000D01*
X213727000Y-82725846D01*
X218948000Y-82678165D01*
X218948000Y-86300000D01*
X218950440Y-86324776D01*
X218957667Y-86348601D01*
X218969403Y-86370557D01*
X218985197Y-86389803D01*
X219004443Y-86405597D01*
X219026399Y-86417333D01*
X219050224Y-86424560D01*
X219075000Y-86427000D01*
X226123000Y-86427000D01*
X226123000Y-88373000D01*
X218900000Y-88373000D01*
X218875224Y-88375440D01*
X218851399Y-88382667D01*
X218829443Y-88394403D01*
X218810197Y-88410197D01*
X218794403Y-88429443D01*
X218782667Y-88451399D01*
X218775440Y-88475224D01*
X218773000Y-88500000D01*
X218773000Y-92073000D01*
X199526873Y-92073000D01*
X199522027Y-87227202D01*
X199534495Y-87220538D01*
X199631186Y-87141186D01*
X199710538Y-87044495D01*
X199769503Y-86934181D01*
X199805813Y-86814483D01*
X199818073Y-86690001D01*
X199818073Y-86090001D01*
X202391929Y-86090001D01*
X202391929Y-86690001D01*
X202404189Y-86814483D01*
X202438000Y-86925943D01*
X202438000Y-86995000D01*
X202440440Y-87019776D01*
X202447667Y-87043601D01*
X202459403Y-87065557D01*
X202475197Y-87084803D01*
X202494443Y-87100597D01*
X202516399Y-87112333D01*
X202540224Y-87119560D01*
X202562901Y-87121793D01*
X202578816Y-87141186D01*
X202675507Y-87220538D01*
X202785821Y-87279503D01*
X202905519Y-87315813D01*
X203030001Y-87328073D01*
X204580001Y-87328073D01*
X204704483Y-87315813D01*
X204824181Y-87279503D01*
X204934495Y-87220538D01*
X205031186Y-87141186D01*
X205046931Y-87122000D01*
X205105000Y-87122000D01*
X205129776Y-87119560D01*
X205153601Y-87112333D01*
X205175557Y-87100597D01*
X205194803Y-87084803D01*
X205210597Y-87065557D01*
X205222333Y-87043601D01*
X205229560Y-87019776D01*
X205232000Y-86995000D01*
X205232000Y-85725000D01*
X205229560Y-85700224D01*
X205222333Y-85676399D01*
X205210597Y-85654443D01*
X205194803Y-85635197D01*
X205175557Y-85619403D01*
X205153601Y-85607667D01*
X205129776Y-85600440D01*
X205105000Y-85598000D01*
X204981451Y-85598000D01*
X204934495Y-85559464D01*
X204824181Y-85500499D01*
X204704483Y-85464189D01*
X204580001Y-85451929D01*
X203030001Y-85451929D01*
X202905519Y-85464189D01*
X202785821Y-85500499D01*
X202675507Y-85559464D01*
X202628551Y-85598000D01*
X202565000Y-85598000D01*
X202540224Y-85600440D01*
X202516399Y-85607667D01*
X202494443Y-85619403D01*
X202475197Y-85635197D01*
X202459403Y-85654443D01*
X202447667Y-85676399D01*
X202440440Y-85700224D01*
X202438000Y-85725000D01*
X202438000Y-85854059D01*
X202404189Y-85965519D01*
X202391929Y-86090001D01*
X199818073Y-86090001D01*
X199805813Y-85965519D01*
X199769503Y-85845821D01*
X199720958Y-85755001D01*
X199769503Y-85664181D01*
X199805813Y-85544483D01*
X199818073Y-85420001D01*
X199818073Y-84820001D01*
X199805813Y-84695519D01*
X199769503Y-84575821D01*
X199720958Y-84485001D01*
X199769503Y-84394181D01*
X199805813Y-84274483D01*
X199818073Y-84150001D01*
X199818073Y-83550001D01*
X199805813Y-83425519D01*
X199769503Y-83305821D01*
X199720958Y-83215001D01*
X199769503Y-83124181D01*
X199805813Y-83004483D01*
X199818073Y-82880001D01*
X199818073Y-82327000D01*
X202273000Y-82327000D01*
X202273000Y-84709000D01*
G36*
X198398000Y-86330218D02*
G01*
X198398000Y-86599606D01*
X198373736Y-90773000D01*
X197368551Y-90773000D01*
X197371642Y-86323872D01*
X198398000Y-86330218D01*
G37*
X198398000Y-86330218D02*
X198398000Y-86599606D01*
X198373736Y-90773000D01*
X197368551Y-90773000D01*
X197371642Y-86323872D01*
X198398000Y-86330218D01*
G36*
X212573000Y-83973000D02*
G01*
X203218073Y-83973000D01*
X203218073Y-83518073D01*
X204580001Y-83518073D01*
X204704483Y-83505813D01*
X204824181Y-83469503D01*
X204934495Y-83410538D01*
X205031186Y-83331186D01*
X205046931Y-83312000D01*
X205500000Y-83312000D01*
X205524776Y-83309560D01*
X205548601Y-83302333D01*
X205570557Y-83290597D01*
X205589803Y-83274803D01*
X205605597Y-83255557D01*
X205617333Y-83233601D01*
X205624560Y-83209776D01*
X205627000Y-83185000D01*
X205627000Y-79027000D01*
X212573000Y-79027000D01*
X212573000Y-83973000D01*
G37*
X212573000Y-83973000D02*
X203218073Y-83973000D01*
X203218073Y-83518073D01*
X204580001Y-83518073D01*
X204704483Y-83505813D01*
X204824181Y-83469503D01*
X204934495Y-83410538D01*
X205031186Y-83331186D01*
X205046931Y-83312000D01*
X205500000Y-83312000D01*
X205524776Y-83309560D01*
X205548601Y-83302333D01*
X205570557Y-83290597D01*
X205589803Y-83274803D01*
X205605597Y-83255557D01*
X205617333Y-83233601D01*
X205624560Y-83209776D01*
X205627000Y-83185000D01*
X205627000Y-79027000D01*
X212573000Y-79027000D01*
X212573000Y-83973000D01*
G36*
X224873000Y-100623000D02*
G01*
X219877000Y-100623000D01*
X219877000Y-99750000D01*
X220281928Y-99750000D01*
X220294188Y-99874482D01*
X220330498Y-99994180D01*
X220389463Y-100104494D01*
X220468815Y-100201185D01*
X220565506Y-100280537D01*
X220675820Y-100339502D01*
X220795518Y-100375812D01*
X220920000Y-100388072D01*
X222134250Y-100385000D01*
X222293000Y-100226250D01*
X222293000Y-98377000D01*
X222547000Y-98377000D01*
X222547000Y-100226250D01*
X222705750Y-100385000D01*
X223920000Y-100388072D01*
X224044482Y-100375812D01*
X224164180Y-100339502D01*
X224274494Y-100280537D01*
X224371185Y-100201185D01*
X224450537Y-100104494D01*
X224509502Y-99994180D01*
X224545812Y-99874482D01*
X224558072Y-99750000D01*
X224555000Y-98535750D01*
X224396250Y-98377000D01*
X222547000Y-98377000D01*
X222293000Y-98377000D01*
X220443750Y-98377000D01*
X220285000Y-98535750D01*
X220281928Y-99750000D01*
X219877000Y-99750000D01*
X219877000Y-96750000D01*
X220281928Y-96750000D01*
X220285000Y-97964250D01*
X220443750Y-98123000D01*
X222293000Y-98123000D01*
X222293000Y-96273750D01*
X222547000Y-96273750D01*
X222547000Y-98123000D01*
X224396250Y-98123000D01*
X224555000Y-97964250D01*
X224558072Y-96750000D01*
X224545812Y-96625518D01*
X224509502Y-96505820D01*
X224450537Y-96395506D01*
X224371185Y-96298815D01*
X224274494Y-96219463D01*
X224164180Y-96160498D01*
X224044482Y-96124188D01*
X223920000Y-96111928D01*
X222705750Y-96115000D01*
X222547000Y-96273750D01*
X222293000Y-96273750D01*
X222134250Y-96115000D01*
X220920000Y-96111928D01*
X220795518Y-96124188D01*
X220675820Y-96160498D01*
X220565506Y-96219463D01*
X220468815Y-96298815D01*
X220389463Y-96395506D01*
X220330498Y-96505820D01*
X220294188Y-96625518D01*
X220281928Y-96750000D01*
X219877000Y-96750000D01*
X219877000Y-93377000D01*
X224873000Y-93377000D01*
X224873000Y-100623000D01*
G37*
X224873000Y-100623000D02*
X219877000Y-100623000D01*
X219877000Y-99750000D01*
X220281928Y-99750000D01*
X220294188Y-99874482D01*
X220330498Y-99994180D01*
X220389463Y-100104494D01*
X220468815Y-100201185D01*
X220565506Y-100280537D01*
X220675820Y-100339502D01*
X220795518Y-100375812D01*
X220920000Y-100388072D01*
X222134250Y-100385000D01*
X222293000Y-100226250D01*
X222293000Y-98377000D01*
X222547000Y-98377000D01*
X222547000Y-100226250D01*
X222705750Y-100385000D01*
X223920000Y-100388072D01*
X224044482Y-100375812D01*
X224164180Y-100339502D01*
X224274494Y-100280537D01*
X224371185Y-100201185D01*
X224450537Y-100104494D01*
X224509502Y-99994180D01*
X224545812Y-99874482D01*
X224558072Y-99750000D01*
X224555000Y-98535750D01*
X224396250Y-98377000D01*
X222547000Y-98377000D01*
X222293000Y-98377000D01*
X220443750Y-98377000D01*
X220285000Y-98535750D01*
X220281928Y-99750000D01*
X219877000Y-99750000D01*
X219877000Y-96750000D01*
X220281928Y-96750000D01*
X220285000Y-97964250D01*
X220443750Y-98123000D01*
X222293000Y-98123000D01*
X222293000Y-96273750D01*
X222547000Y-96273750D01*
X222547000Y-98123000D01*
X224396250Y-98123000D01*
X224555000Y-97964250D01*
X224558072Y-96750000D01*
X224545812Y-96625518D01*
X224509502Y-96505820D01*
X224450537Y-96395506D01*
X224371185Y-96298815D01*
X224274494Y-96219463D01*
X224164180Y-96160498D01*
X224044482Y-96124188D01*
X223920000Y-96111928D01*
X222705750Y-96115000D01*
X222547000Y-96273750D01*
X222293000Y-96273750D01*
X222134250Y-96115000D01*
X220920000Y-96111928D01*
X220795518Y-96124188D01*
X220675820Y-96160498D01*
X220565506Y-96219463D01*
X220468815Y-96298815D01*
X220389463Y-96395506D01*
X220330498Y-96505820D01*
X220294188Y-96625518D01*
X220281928Y-96750000D01*
X219877000Y-96750000D01*
X219877000Y-93377000D01*
X224873000Y-93377000D01*
X224873000Y-100623000D01*
G36*
X200473000Y-81173000D02*
G01*
X198800000Y-81173000D01*
X198775224Y-81175440D01*
X198751399Y-81182667D01*
X198729443Y-81194403D01*
X198710197Y-81210197D01*
X198694403Y-81229443D01*
X198682667Y-81251399D01*
X198675440Y-81275224D01*
X198673000Y-81300000D01*
X198673000Y-82673000D01*
X197627000Y-82673000D01*
X197627000Y-78627000D01*
X200473000Y-78627000D01*
X200473000Y-81173000D01*
G37*
X200473000Y-81173000D02*
X198800000Y-81173000D01*
X198775224Y-81175440D01*
X198751399Y-81182667D01*
X198729443Y-81194403D01*
X198710197Y-81210197D01*
X198694403Y-81229443D01*
X198682667Y-81251399D01*
X198675440Y-81275224D01*
X198673000Y-81300000D01*
X198673000Y-82673000D01*
X197627000Y-82673000D01*
X197627000Y-78627000D01*
X200473000Y-78627000D01*
X200473000Y-81173000D01*
M02*
