G04 #@! TF.GenerationSoftware,KiCad,Pcbnew,(5.1.5)-3*
G04 #@! TF.CreationDate,2020-11-29T18:23:40-05:00*
G04 #@! TF.ProjectId,Buck_Controle,4275636b-5f43-46f6-9e74-726f6c652e6b,rev?*
G04 #@! TF.SameCoordinates,Original*
G04 #@! TF.FileFunction,Soldermask,Top*
G04 #@! TF.FilePolarity,Negative*
%FSLAX46Y46*%
G04 Gerber Fmt 4.6, Leading zero omitted, Abs format (unit mm)*
G04 Created by KiCad (PCBNEW (5.1.5)-3) date 2020-11-29 18:23:40*
%MOMM*%
%LPD*%
G04 APERTURE LIST*
%ADD10C,0.100000*%
G04 APERTURE END LIST*
D10*
G36*
X199995549Y-99014116D02*
G01*
X200106734Y-99036232D01*
X200316203Y-99122997D01*
X200504720Y-99248960D01*
X200665040Y-99409280D01*
X200791003Y-99597797D01*
X200877768Y-99807266D01*
X200922000Y-100029636D01*
X200922000Y-100256364D01*
X200877768Y-100478734D01*
X200791003Y-100688203D01*
X200665040Y-100876720D01*
X200504720Y-101037040D01*
X200316203Y-101163003D01*
X200106734Y-101249768D01*
X199995549Y-101271884D01*
X199884365Y-101294000D01*
X199657635Y-101294000D01*
X199546451Y-101271884D01*
X199435266Y-101249768D01*
X199225797Y-101163003D01*
X199037280Y-101037040D01*
X198876960Y-100876720D01*
X198750997Y-100688203D01*
X198664232Y-100478734D01*
X198620000Y-100256364D01*
X198620000Y-100029636D01*
X198664232Y-99807266D01*
X198750997Y-99597797D01*
X198876960Y-99409280D01*
X199037280Y-99248960D01*
X199225797Y-99122997D01*
X199435266Y-99036232D01*
X199546451Y-99014116D01*
X199657635Y-98992000D01*
X199884365Y-98992000D01*
X199995549Y-99014116D01*
G37*
G36*
X233724549Y-98871116D02*
G01*
X233835734Y-98893232D01*
X234045203Y-98979997D01*
X234233720Y-99105960D01*
X234394040Y-99266280D01*
X234520003Y-99454797D01*
X234606768Y-99664266D01*
X234651000Y-99886636D01*
X234651000Y-100113364D01*
X234606768Y-100335734D01*
X234520003Y-100545203D01*
X234394040Y-100733720D01*
X234233720Y-100894040D01*
X234045203Y-101020003D01*
X233835734Y-101106768D01*
X233724549Y-101128884D01*
X233613365Y-101151000D01*
X233386635Y-101151000D01*
X233275451Y-101128884D01*
X233164266Y-101106768D01*
X232954797Y-101020003D01*
X232766280Y-100894040D01*
X232605960Y-100733720D01*
X232479997Y-100545203D01*
X232393232Y-100335734D01*
X232349000Y-100113364D01*
X232349000Y-99886636D01*
X232393232Y-99664266D01*
X232479997Y-99454797D01*
X232605960Y-99266280D01*
X232766280Y-99105960D01*
X232954797Y-98979997D01*
X233164266Y-98893232D01*
X233275451Y-98871116D01*
X233386635Y-98849000D01*
X233613365Y-98849000D01*
X233724549Y-98871116D01*
G37*
G36*
X227802585Y-96728802D02*
G01*
X227952410Y-96758604D01*
X228234674Y-96875521D01*
X228488705Y-97045259D01*
X228704741Y-97261295D01*
X228874479Y-97515326D01*
X228991396Y-97797590D01*
X229051000Y-98097240D01*
X229051000Y-98402760D01*
X228991396Y-98702410D01*
X228874479Y-98984674D01*
X228704741Y-99238705D01*
X228488705Y-99454741D01*
X228234674Y-99624479D01*
X227952410Y-99741396D01*
X227802585Y-99771198D01*
X227652761Y-99801000D01*
X227347239Y-99801000D01*
X227197415Y-99771198D01*
X227047590Y-99741396D01*
X226765326Y-99624479D01*
X226511295Y-99454741D01*
X226295259Y-99238705D01*
X226125521Y-98984674D01*
X226008604Y-98702410D01*
X225949000Y-98402760D01*
X225949000Y-98097240D01*
X226008604Y-97797590D01*
X226125521Y-97515326D01*
X226295259Y-97261295D01*
X226511295Y-97045259D01*
X226765326Y-96875521D01*
X227047590Y-96758604D01*
X227197415Y-96728802D01*
X227347239Y-96699000D01*
X227652761Y-96699000D01*
X227802585Y-96728802D01*
G37*
G36*
X223971000Y-99801000D02*
G01*
X220869000Y-99801000D01*
X220869000Y-96699000D01*
X223971000Y-96699000D01*
X223971000Y-99801000D01*
G37*
G36*
X198704468Y-91462565D02*
G01*
X198743138Y-91474296D01*
X198778777Y-91493346D01*
X198810017Y-91518983D01*
X198835654Y-91550223D01*
X198854704Y-91585862D01*
X198866435Y-91624532D01*
X198871000Y-91670888D01*
X198871000Y-92322112D01*
X198866435Y-92368468D01*
X198854704Y-92407138D01*
X198835654Y-92442777D01*
X198810017Y-92474017D01*
X198778777Y-92499654D01*
X198743138Y-92518704D01*
X198704468Y-92530435D01*
X198658112Y-92535000D01*
X197581888Y-92535000D01*
X197535532Y-92530435D01*
X197496862Y-92518704D01*
X197461223Y-92499654D01*
X197429983Y-92474017D01*
X197404346Y-92442777D01*
X197385296Y-92407138D01*
X197373565Y-92368468D01*
X197369000Y-92322112D01*
X197369000Y-91670888D01*
X197373565Y-91624532D01*
X197385296Y-91585862D01*
X197404346Y-91550223D01*
X197429983Y-91518983D01*
X197461223Y-91493346D01*
X197496862Y-91474296D01*
X197535532Y-91462565D01*
X197581888Y-91458000D01*
X198658112Y-91458000D01*
X198704468Y-91462565D01*
G37*
G36*
X198704468Y-89587565D02*
G01*
X198743138Y-89599296D01*
X198778777Y-89618346D01*
X198810017Y-89643983D01*
X198835654Y-89675223D01*
X198854704Y-89710862D01*
X198866435Y-89749532D01*
X198871000Y-89795888D01*
X198871000Y-90447112D01*
X198866435Y-90493468D01*
X198854704Y-90532138D01*
X198835654Y-90567777D01*
X198810017Y-90599017D01*
X198778777Y-90624654D01*
X198743138Y-90643704D01*
X198704468Y-90655435D01*
X198658112Y-90660000D01*
X197581888Y-90660000D01*
X197535532Y-90655435D01*
X197496862Y-90643704D01*
X197461223Y-90624654D01*
X197429983Y-90599017D01*
X197404346Y-90567777D01*
X197385296Y-90532138D01*
X197373565Y-90493468D01*
X197369000Y-90447112D01*
X197369000Y-89795888D01*
X197373565Y-89749532D01*
X197385296Y-89710862D01*
X197404346Y-89675223D01*
X197429983Y-89643983D01*
X197461223Y-89618346D01*
X197496862Y-89599296D01*
X197535532Y-89587565D01*
X197581888Y-89583000D01*
X198658112Y-89583000D01*
X198704468Y-89587565D01*
G37*
G36*
X200191468Y-87518565D02*
G01*
X200230138Y-87530296D01*
X200265777Y-87549346D01*
X200297017Y-87574983D01*
X200322654Y-87606223D01*
X200341704Y-87641862D01*
X200353435Y-87680532D01*
X200358000Y-87726888D01*
X200358000Y-88803112D01*
X200353435Y-88849468D01*
X200341704Y-88888138D01*
X200322654Y-88923777D01*
X200297017Y-88955017D01*
X200265777Y-88980654D01*
X200230138Y-88999704D01*
X200191468Y-89011435D01*
X200145112Y-89016000D01*
X199493888Y-89016000D01*
X199447532Y-89011435D01*
X199408862Y-88999704D01*
X199373223Y-88980654D01*
X199341983Y-88955017D01*
X199316346Y-88923777D01*
X199297296Y-88888138D01*
X199285565Y-88849468D01*
X199281000Y-88803112D01*
X199281000Y-87726888D01*
X199285565Y-87680532D01*
X199297296Y-87641862D01*
X199316346Y-87606223D01*
X199341983Y-87574983D01*
X199373223Y-87549346D01*
X199408862Y-87530296D01*
X199447532Y-87518565D01*
X199493888Y-87514000D01*
X200145112Y-87514000D01*
X200191468Y-87518565D01*
G37*
G36*
X198316468Y-87518565D02*
G01*
X198355138Y-87530296D01*
X198390777Y-87549346D01*
X198422017Y-87574983D01*
X198447654Y-87606223D01*
X198466704Y-87641862D01*
X198478435Y-87680532D01*
X198483000Y-87726888D01*
X198483000Y-88803112D01*
X198478435Y-88849468D01*
X198466704Y-88888138D01*
X198447654Y-88923777D01*
X198422017Y-88955017D01*
X198390777Y-88980654D01*
X198355138Y-88999704D01*
X198316468Y-89011435D01*
X198270112Y-89016000D01*
X197618888Y-89016000D01*
X197572532Y-89011435D01*
X197533862Y-88999704D01*
X197498223Y-88980654D01*
X197466983Y-88955017D01*
X197441346Y-88923777D01*
X197422296Y-88888138D01*
X197410565Y-88849468D01*
X197406000Y-88803112D01*
X197406000Y-87726888D01*
X197410565Y-87680532D01*
X197422296Y-87641862D01*
X197441346Y-87606223D01*
X197466983Y-87574983D01*
X197498223Y-87549346D01*
X197533862Y-87530296D01*
X197572532Y-87518565D01*
X197618888Y-87514000D01*
X198270112Y-87514000D01*
X198316468Y-87518565D01*
G37*
G36*
X226001000Y-88601000D02*
G01*
X224599000Y-88601000D01*
X224599000Y-86099000D01*
X226001000Y-86099000D01*
X226001000Y-88601000D01*
G37*
G36*
X232101000Y-88601000D02*
G01*
X230699000Y-88601000D01*
X230699000Y-86099000D01*
X232101000Y-86099000D01*
X232101000Y-88601000D01*
G37*
G36*
X199231001Y-86741001D02*
G01*
X197579001Y-86741001D01*
X197579001Y-86039001D01*
X199231001Y-86039001D01*
X199231001Y-86741001D01*
G37*
G36*
X204631001Y-86741001D02*
G01*
X202979001Y-86741001D01*
X202979001Y-86039001D01*
X204631001Y-86039001D01*
X204631001Y-86741001D01*
G37*
G36*
X218236000Y-86616000D02*
G01*
X214834000Y-86616000D01*
X214834000Y-84014000D01*
X218236000Y-84014000D01*
X218236000Y-86616000D01*
G37*
G36*
X202456001Y-86086001D02*
G01*
X199754001Y-86086001D01*
X199754001Y-82884001D01*
X202456001Y-82884001D01*
X202456001Y-86086001D01*
G37*
G36*
X210769468Y-84728565D02*
G01*
X210808138Y-84740296D01*
X210843777Y-84759346D01*
X210875017Y-84784983D01*
X210900654Y-84816223D01*
X210919704Y-84851862D01*
X210931435Y-84890532D01*
X210936000Y-84936888D01*
X210936000Y-85588112D01*
X210931435Y-85634468D01*
X210919704Y-85673138D01*
X210900654Y-85708777D01*
X210875017Y-85740017D01*
X210843777Y-85765654D01*
X210808138Y-85784704D01*
X210769468Y-85796435D01*
X210723112Y-85801000D01*
X209646888Y-85801000D01*
X209600532Y-85796435D01*
X209561862Y-85784704D01*
X209526223Y-85765654D01*
X209494983Y-85740017D01*
X209469346Y-85708777D01*
X209450296Y-85673138D01*
X209438565Y-85634468D01*
X209434000Y-85588112D01*
X209434000Y-84936888D01*
X209438565Y-84890532D01*
X209450296Y-84851862D01*
X209469346Y-84816223D01*
X209494983Y-84784983D01*
X209526223Y-84759346D01*
X209561862Y-84740296D01*
X209600532Y-84728565D01*
X209646888Y-84724000D01*
X210723112Y-84724000D01*
X210769468Y-84728565D01*
G37*
G36*
X208864468Y-84728565D02*
G01*
X208903138Y-84740296D01*
X208938777Y-84759346D01*
X208970017Y-84784983D01*
X208995654Y-84816223D01*
X209014704Y-84851862D01*
X209026435Y-84890532D01*
X209031000Y-84936888D01*
X209031000Y-85588112D01*
X209026435Y-85634468D01*
X209014704Y-85673138D01*
X208995654Y-85708777D01*
X208970017Y-85740017D01*
X208938777Y-85765654D01*
X208903138Y-85784704D01*
X208864468Y-85796435D01*
X208818112Y-85801000D01*
X207741888Y-85801000D01*
X207695532Y-85796435D01*
X207656862Y-85784704D01*
X207621223Y-85765654D01*
X207589983Y-85740017D01*
X207564346Y-85708777D01*
X207545296Y-85673138D01*
X207533565Y-85634468D01*
X207529000Y-85588112D01*
X207529000Y-84936888D01*
X207533565Y-84890532D01*
X207545296Y-84851862D01*
X207564346Y-84816223D01*
X207589983Y-84784983D01*
X207621223Y-84759346D01*
X207656862Y-84740296D01*
X207695532Y-84728565D01*
X207741888Y-84724000D01*
X208818112Y-84724000D01*
X208864468Y-84728565D01*
G37*
G36*
X206959468Y-84728565D02*
G01*
X206998138Y-84740296D01*
X207033777Y-84759346D01*
X207065017Y-84784983D01*
X207090654Y-84816223D01*
X207109704Y-84851862D01*
X207121435Y-84890532D01*
X207126000Y-84936888D01*
X207126000Y-85588112D01*
X207121435Y-85634468D01*
X207109704Y-85673138D01*
X207090654Y-85708777D01*
X207065017Y-85740017D01*
X207033777Y-85765654D01*
X206998138Y-85784704D01*
X206959468Y-85796435D01*
X206913112Y-85801000D01*
X205836888Y-85801000D01*
X205790532Y-85796435D01*
X205751862Y-85784704D01*
X205716223Y-85765654D01*
X205684983Y-85740017D01*
X205659346Y-85708777D01*
X205640296Y-85673138D01*
X205628565Y-85634468D01*
X205624000Y-85588112D01*
X205624000Y-84936888D01*
X205628565Y-84890532D01*
X205640296Y-84851862D01*
X205659346Y-84816223D01*
X205684983Y-84784983D01*
X205716223Y-84759346D01*
X205751862Y-84740296D01*
X205790532Y-84728565D01*
X205836888Y-84724000D01*
X206913112Y-84724000D01*
X206959468Y-84728565D01*
G37*
G36*
X199231001Y-85471001D02*
G01*
X197579001Y-85471001D01*
X197579001Y-84769001D01*
X199231001Y-84769001D01*
X199231001Y-85471001D01*
G37*
G36*
X204631001Y-85471001D02*
G01*
X202979001Y-85471001D01*
X202979001Y-84769001D01*
X204631001Y-84769001D01*
X204631001Y-85471001D01*
G37*
G36*
X204631001Y-84201001D02*
G01*
X202979001Y-84201001D01*
X202979001Y-83499001D01*
X204631001Y-83499001D01*
X204631001Y-84201001D01*
G37*
G36*
X199231001Y-84201001D02*
G01*
X197579001Y-84201001D01*
X197579001Y-83499001D01*
X199231001Y-83499001D01*
X199231001Y-84201001D01*
G37*
G36*
X206959468Y-82853565D02*
G01*
X206998138Y-82865296D01*
X207033777Y-82884346D01*
X207065017Y-82909983D01*
X207090654Y-82941223D01*
X207109704Y-82976862D01*
X207121435Y-83015532D01*
X207126000Y-83061888D01*
X207126000Y-83713112D01*
X207121435Y-83759468D01*
X207109704Y-83798138D01*
X207090654Y-83833777D01*
X207065017Y-83865017D01*
X207033777Y-83890654D01*
X206998138Y-83909704D01*
X206959468Y-83921435D01*
X206913112Y-83926000D01*
X205836888Y-83926000D01*
X205790532Y-83921435D01*
X205751862Y-83909704D01*
X205716223Y-83890654D01*
X205684983Y-83865017D01*
X205659346Y-83833777D01*
X205640296Y-83798138D01*
X205628565Y-83759468D01*
X205624000Y-83713112D01*
X205624000Y-83061888D01*
X205628565Y-83015532D01*
X205640296Y-82976862D01*
X205659346Y-82941223D01*
X205684983Y-82909983D01*
X205716223Y-82884346D01*
X205751862Y-82865296D01*
X205790532Y-82853565D01*
X205836888Y-82849000D01*
X206913112Y-82849000D01*
X206959468Y-82853565D01*
G37*
G36*
X210769468Y-82853565D02*
G01*
X210808138Y-82865296D01*
X210843777Y-82884346D01*
X210875017Y-82909983D01*
X210900654Y-82941223D01*
X210919704Y-82976862D01*
X210931435Y-83015532D01*
X210936000Y-83061888D01*
X210936000Y-83713112D01*
X210931435Y-83759468D01*
X210919704Y-83798138D01*
X210900654Y-83833777D01*
X210875017Y-83865017D01*
X210843777Y-83890654D01*
X210808138Y-83909704D01*
X210769468Y-83921435D01*
X210723112Y-83926000D01*
X209646888Y-83926000D01*
X209600532Y-83921435D01*
X209561862Y-83909704D01*
X209526223Y-83890654D01*
X209494983Y-83865017D01*
X209469346Y-83833777D01*
X209450296Y-83798138D01*
X209438565Y-83759468D01*
X209434000Y-83713112D01*
X209434000Y-83061888D01*
X209438565Y-83015532D01*
X209450296Y-82976862D01*
X209469346Y-82941223D01*
X209494983Y-82909983D01*
X209526223Y-82884346D01*
X209561862Y-82865296D01*
X209600532Y-82853565D01*
X209646888Y-82849000D01*
X210723112Y-82849000D01*
X210769468Y-82853565D01*
G37*
G36*
X208864468Y-82853565D02*
G01*
X208903138Y-82865296D01*
X208938777Y-82884346D01*
X208970017Y-82909983D01*
X208995654Y-82941223D01*
X209014704Y-82976862D01*
X209026435Y-83015532D01*
X209031000Y-83061888D01*
X209031000Y-83713112D01*
X209026435Y-83759468D01*
X209014704Y-83798138D01*
X208995654Y-83833777D01*
X208970017Y-83865017D01*
X208938777Y-83890654D01*
X208903138Y-83909704D01*
X208864468Y-83921435D01*
X208818112Y-83926000D01*
X207741888Y-83926000D01*
X207695532Y-83921435D01*
X207656862Y-83909704D01*
X207621223Y-83890654D01*
X207589983Y-83865017D01*
X207564346Y-83833777D01*
X207545296Y-83798138D01*
X207533565Y-83759468D01*
X207529000Y-83713112D01*
X207529000Y-83061888D01*
X207533565Y-83015532D01*
X207545296Y-82976862D01*
X207564346Y-82941223D01*
X207589983Y-82909983D01*
X207621223Y-82884346D01*
X207656862Y-82865296D01*
X207695532Y-82853565D01*
X207741888Y-82849000D01*
X208818112Y-82849000D01*
X208864468Y-82853565D01*
G37*
G36*
X204631001Y-82931001D02*
G01*
X202979001Y-82931001D01*
X202979001Y-82229001D01*
X204631001Y-82229001D01*
X204631001Y-82931001D01*
G37*
G36*
X199231001Y-82931001D02*
G01*
X197579001Y-82931001D01*
X197579001Y-82229001D01*
X199231001Y-82229001D01*
X199231001Y-82931001D01*
G37*
G36*
X223901000Y-81501000D02*
G01*
X220999000Y-81501000D01*
X220999000Y-76099000D01*
X223901000Y-76099000D01*
X223901000Y-81501000D01*
G37*
G36*
X234001000Y-81501000D02*
G01*
X231099000Y-81501000D01*
X231099000Y-76099000D01*
X234001000Y-76099000D01*
X234001000Y-81501000D01*
G37*
G36*
X200426968Y-79263565D02*
G01*
X200465638Y-79275296D01*
X200501277Y-79294346D01*
X200532517Y-79319983D01*
X200558154Y-79351223D01*
X200577204Y-79386862D01*
X200588935Y-79425532D01*
X200593500Y-79471888D01*
X200593500Y-80548112D01*
X200588935Y-80594468D01*
X200577204Y-80633138D01*
X200558154Y-80668777D01*
X200532517Y-80700017D01*
X200501277Y-80725654D01*
X200465638Y-80744704D01*
X200426968Y-80756435D01*
X200380612Y-80761000D01*
X199729388Y-80761000D01*
X199683032Y-80756435D01*
X199644362Y-80744704D01*
X199608723Y-80725654D01*
X199577483Y-80700017D01*
X199551846Y-80668777D01*
X199532796Y-80633138D01*
X199521065Y-80594468D01*
X199516500Y-80548112D01*
X199516500Y-79471888D01*
X199521065Y-79425532D01*
X199532796Y-79386862D01*
X199551846Y-79351223D01*
X199577483Y-79319983D01*
X199608723Y-79294346D01*
X199644362Y-79275296D01*
X199683032Y-79263565D01*
X199729388Y-79259000D01*
X200380612Y-79259000D01*
X200426968Y-79263565D01*
G37*
G36*
X202301968Y-79263565D02*
G01*
X202340638Y-79275296D01*
X202376277Y-79294346D01*
X202407517Y-79319983D01*
X202433154Y-79351223D01*
X202452204Y-79386862D01*
X202463935Y-79425532D01*
X202468500Y-79471888D01*
X202468500Y-80548112D01*
X202463935Y-80594468D01*
X202452204Y-80633138D01*
X202433154Y-80668777D01*
X202407517Y-80700017D01*
X202376277Y-80725654D01*
X202340638Y-80744704D01*
X202301968Y-80756435D01*
X202255612Y-80761000D01*
X201604388Y-80761000D01*
X201558032Y-80756435D01*
X201519362Y-80744704D01*
X201483723Y-80725654D01*
X201452483Y-80700017D01*
X201426846Y-80668777D01*
X201407796Y-80633138D01*
X201396065Y-80594468D01*
X201391500Y-80548112D01*
X201391500Y-79471888D01*
X201396065Y-79425532D01*
X201407796Y-79386862D01*
X201426846Y-79351223D01*
X201452483Y-79319983D01*
X201483723Y-79294346D01*
X201519362Y-79275296D01*
X201558032Y-79263565D01*
X201604388Y-79259000D01*
X202255612Y-79259000D01*
X202301968Y-79263565D01*
G37*
G36*
X218236000Y-79816000D02*
G01*
X214834000Y-79816000D01*
X214834000Y-77214000D01*
X218236000Y-77214000D01*
X218236000Y-79816000D01*
G37*
G36*
X212051000Y-72551000D02*
G01*
X208949000Y-72551000D01*
X208949000Y-69449000D01*
X212051000Y-69449000D01*
X212051000Y-72551000D01*
G37*
G36*
X205722585Y-69478802D02*
G01*
X205872410Y-69508604D01*
X206154674Y-69625521D01*
X206408705Y-69795259D01*
X206624741Y-70011295D01*
X206794479Y-70265326D01*
X206911396Y-70547590D01*
X206971000Y-70847240D01*
X206971000Y-71152760D01*
X206911396Y-71452410D01*
X206794479Y-71734674D01*
X206624741Y-71988705D01*
X206408705Y-72204741D01*
X206154674Y-72374479D01*
X205872410Y-72491396D01*
X205722585Y-72521198D01*
X205572761Y-72551000D01*
X205267239Y-72551000D01*
X205117415Y-72521198D01*
X204967590Y-72491396D01*
X204685326Y-72374479D01*
X204431295Y-72204741D01*
X204215259Y-71988705D01*
X204045521Y-71734674D01*
X203928604Y-71452410D01*
X203869000Y-71152760D01*
X203869000Y-70847240D01*
X203928604Y-70547590D01*
X204045521Y-70265326D01*
X204215259Y-70011295D01*
X204431295Y-69795259D01*
X204685326Y-69625521D01*
X204967590Y-69508604D01*
X205117415Y-69478802D01*
X205267239Y-69449000D01*
X205572761Y-69449000D01*
X205722585Y-69478802D01*
G37*
G36*
X199995549Y-68848116D02*
G01*
X200106734Y-68870232D01*
X200316203Y-68956997D01*
X200504720Y-69082960D01*
X200665040Y-69243280D01*
X200791003Y-69431797D01*
X200877768Y-69641266D01*
X200922000Y-69863636D01*
X200922000Y-70090364D01*
X200877768Y-70312734D01*
X200791003Y-70522203D01*
X200665040Y-70710720D01*
X200504720Y-70871040D01*
X200316203Y-70997003D01*
X200106734Y-71083768D01*
X199995549Y-71105884D01*
X199884365Y-71128000D01*
X199657635Y-71128000D01*
X199546451Y-71105884D01*
X199435266Y-71083768D01*
X199225797Y-70997003D01*
X199037280Y-70871040D01*
X198876960Y-70710720D01*
X198750997Y-70522203D01*
X198664232Y-70312734D01*
X198620000Y-70090364D01*
X198620000Y-69863636D01*
X198664232Y-69641266D01*
X198750997Y-69431797D01*
X198876960Y-69243280D01*
X199037280Y-69082960D01*
X199225797Y-68956997D01*
X199435266Y-68870232D01*
X199546451Y-68848116D01*
X199657635Y-68826000D01*
X199884365Y-68826000D01*
X199995549Y-68848116D01*
G37*
G36*
X233904549Y-68848116D02*
G01*
X234015734Y-68870232D01*
X234225203Y-68956997D01*
X234413720Y-69082960D01*
X234574040Y-69243280D01*
X234700003Y-69431797D01*
X234786768Y-69641266D01*
X234831000Y-69863636D01*
X234831000Y-70090364D01*
X234786768Y-70312734D01*
X234700003Y-70522203D01*
X234574040Y-70710720D01*
X234413720Y-70871040D01*
X234225203Y-70997003D01*
X234015734Y-71083768D01*
X233904549Y-71105884D01*
X233793365Y-71128000D01*
X233566635Y-71128000D01*
X233455451Y-71105884D01*
X233344266Y-71083768D01*
X233134797Y-70997003D01*
X232946280Y-70871040D01*
X232785960Y-70710720D01*
X232659997Y-70522203D01*
X232573232Y-70312734D01*
X232529000Y-70090364D01*
X232529000Y-69863636D01*
X232573232Y-69641266D01*
X232659997Y-69431797D01*
X232785960Y-69243280D01*
X232946280Y-69082960D01*
X233134797Y-68956997D01*
X233344266Y-68870232D01*
X233455451Y-68848116D01*
X233566635Y-68826000D01*
X233793365Y-68826000D01*
X233904549Y-68848116D01*
G37*
M02*
