G04 #@! TF.GenerationSoftware,KiCad,Pcbnew,(5.1.5)-3*
G04 #@! TF.CreationDate,2020-11-29T18:23:40-05:00*
G04 #@! TF.ProjectId,Buck_Controle,4275636b-5f43-46f6-9e74-726f6c652e6b,rev?*
G04 #@! TF.SameCoordinates,Original*
G04 #@! TF.FileFunction,Copper,L2,Bot*
G04 #@! TF.FilePolarity,Positive*
%FSLAX46Y46*%
G04 Gerber Fmt 4.6, Leading zero omitted, Abs format (unit mm)*
G04 Created by KiCad (PCBNEW (5.1.5)-3) date 2020-11-29 18:23:40*
%MOMM*%
%LPD*%
G04 APERTURE LIST*
%ADD10C,3.000000*%
%ADD11R,3.000000X3.000000*%
%ADD12R,2.950000X4.500000*%
%ADD13C,0.600000*%
%ADD14C,0.800000*%
%ADD15C,0.254000*%
G04 APERTURE END LIST*
D10*
X227500000Y-98250000D03*
D11*
X222420000Y-98250000D03*
D10*
X205420000Y-71000000D03*
D11*
X210500000Y-71000000D03*
D12*
X201105001Y-84485001D03*
D13*
X200505001Y-82685001D03*
X200505001Y-83885001D03*
X201705001Y-83885001D03*
X201705001Y-82685001D03*
X200505001Y-86285001D03*
X200505001Y-85185001D03*
X201705001Y-85185001D03*
X201705001Y-86285001D03*
D14*
X206250000Y-80250000D03*
X208250000Y-80250000D03*
X210250000Y-80250000D03*
X210250000Y-81500000D03*
X208250000Y-81500000D03*
X206250000Y-81500000D03*
X212000000Y-80250000D03*
X212000000Y-81500000D03*
D15*
G36*
X204959549Y-68904666D02*
G01*
X204559617Y-69034757D01*
X204263962Y-69192786D01*
X204107952Y-69508347D01*
X205420000Y-70820395D01*
X206732048Y-69508347D01*
X206576038Y-69192786D01*
X206201255Y-69001980D01*
X205796449Y-68887956D01*
X205656649Y-68877000D01*
X207873000Y-68877000D01*
X207873000Y-78123000D01*
X204750000Y-78123000D01*
X204725224Y-78125440D01*
X204701399Y-78132667D01*
X204679443Y-78144403D01*
X204660197Y-78160197D01*
X204644403Y-78179443D01*
X204632667Y-78201399D01*
X204625440Y-78225224D01*
X204623000Y-78250000D01*
X204623000Y-84500000D01*
X204625440Y-84524776D01*
X204632667Y-84548601D01*
X204644403Y-84570557D01*
X204660197Y-84589803D01*
X204679443Y-84605597D01*
X204701399Y-84617333D01*
X204725224Y-84624560D01*
X204750000Y-84627000D01*
X229873000Y-84627000D01*
X229873000Y-102123000D01*
X225627000Y-102123000D01*
X225627000Y-99741653D01*
X226187952Y-99741653D01*
X226343962Y-100057214D01*
X226718745Y-100248020D01*
X227123551Y-100362044D01*
X227542824Y-100394902D01*
X227960451Y-100345334D01*
X228360383Y-100215243D01*
X228656038Y-100057214D01*
X228812048Y-99741653D01*
X227500000Y-98429605D01*
X226187952Y-99741653D01*
X225627000Y-99741653D01*
X225627000Y-99282960D01*
X225692786Y-99406038D01*
X226008347Y-99562048D01*
X227320395Y-98250000D01*
X227679605Y-98250000D01*
X228991653Y-99562048D01*
X229307214Y-99406038D01*
X229498020Y-99031255D01*
X229612044Y-98626449D01*
X229644902Y-98207176D01*
X229595334Y-97789549D01*
X229465243Y-97389617D01*
X229307214Y-97093962D01*
X228991653Y-96937952D01*
X227679605Y-98250000D01*
X227320395Y-98250000D01*
X226008347Y-96937952D01*
X225692786Y-97093962D01*
X225627000Y-97223180D01*
X225627000Y-96758347D01*
X226187952Y-96758347D01*
X227500000Y-98070395D01*
X228812048Y-96758347D01*
X228656038Y-96442786D01*
X228281255Y-96251980D01*
X227876449Y-96137956D01*
X227457176Y-96105098D01*
X227039549Y-96154666D01*
X226639617Y-96284757D01*
X226343962Y-96442786D01*
X226187952Y-96758347D01*
X225627000Y-96758347D01*
X225627000Y-94000000D01*
X225624560Y-93975224D01*
X225617333Y-93951399D01*
X225605597Y-93929443D01*
X225589803Y-93910197D01*
X225570557Y-93894403D01*
X225548601Y-93882667D01*
X225524776Y-93875440D01*
X225500000Y-93873000D01*
X197377000Y-93873000D01*
X197377000Y-82235001D01*
X198991929Y-82235001D01*
X198995001Y-84199251D01*
X199153751Y-84358001D01*
X200060534Y-84358001D01*
X200051844Y-84517763D01*
X200050065Y-84519542D01*
X200050906Y-84535001D01*
X200050065Y-84550460D01*
X200051844Y-84552239D01*
X200055095Y-84612001D01*
X199153751Y-84612001D01*
X198995001Y-84770751D01*
X198991929Y-86735001D01*
X199004189Y-86859483D01*
X199040499Y-86979181D01*
X199099464Y-87089495D01*
X199178816Y-87186186D01*
X199275507Y-87265538D01*
X199385821Y-87324503D01*
X199505519Y-87360813D01*
X199630001Y-87373073D01*
X200819251Y-87370001D01*
X200978001Y-87211251D01*
X200978001Y-86734907D01*
X201070460Y-86739937D01*
X201105001Y-86705396D01*
X201139542Y-86739937D01*
X201232001Y-86734907D01*
X201232001Y-87211251D01*
X201390751Y-87370001D01*
X202580001Y-87373073D01*
X202704483Y-87360813D01*
X202824181Y-87324503D01*
X202934495Y-87265538D01*
X203031186Y-87186186D01*
X203110538Y-87089495D01*
X203169503Y-86979181D01*
X203205813Y-86859483D01*
X203218073Y-86735001D01*
X203215001Y-84770751D01*
X203056251Y-84612001D01*
X202154907Y-84612001D01*
X202158158Y-84552239D01*
X202159937Y-84550460D01*
X202159096Y-84535001D01*
X202159937Y-84519542D01*
X202158158Y-84517763D01*
X202149468Y-84358001D01*
X203056251Y-84358001D01*
X203215001Y-84199251D01*
X203218073Y-82235001D01*
X203205813Y-82110519D01*
X203169503Y-81990821D01*
X203110538Y-81880507D01*
X203031186Y-81783816D01*
X202934495Y-81704464D01*
X202824181Y-81645499D01*
X202704483Y-81609189D01*
X202580001Y-81596929D01*
X201390751Y-81600001D01*
X201232001Y-81758751D01*
X201232001Y-82235095D01*
X201139542Y-82230065D01*
X201105001Y-82264606D01*
X201070460Y-82230065D01*
X200978001Y-82235095D01*
X200978001Y-81758751D01*
X200819251Y-81600001D01*
X199630001Y-81596929D01*
X199505519Y-81609189D01*
X199385821Y-81645499D01*
X199275507Y-81704464D01*
X199178816Y-81783816D01*
X199099464Y-81880507D01*
X199040499Y-81990821D01*
X199004189Y-82110519D01*
X198991929Y-82235001D01*
X197377000Y-82235001D01*
X197377000Y-78612425D01*
X197379769Y-74627000D01*
X203000000Y-74627000D01*
X203024776Y-74624560D01*
X203048601Y-74617333D01*
X203070557Y-74605597D01*
X203089803Y-74589803D01*
X203105597Y-74570557D01*
X203117333Y-74548601D01*
X203124560Y-74524776D01*
X203127000Y-74500000D01*
X203127000Y-72491653D01*
X204107952Y-72491653D01*
X204263962Y-72807214D01*
X204638745Y-72998020D01*
X205043551Y-73112044D01*
X205462824Y-73144902D01*
X205880451Y-73095334D01*
X206280383Y-72965243D01*
X206576038Y-72807214D01*
X206732048Y-72491653D01*
X205420000Y-71179605D01*
X204107952Y-72491653D01*
X203127000Y-72491653D01*
X203127000Y-71042824D01*
X203275098Y-71042824D01*
X203324666Y-71460451D01*
X203454757Y-71860383D01*
X203612786Y-72156038D01*
X203928347Y-72312048D01*
X205240395Y-71000000D01*
X205599605Y-71000000D01*
X206911653Y-72312048D01*
X207227214Y-72156038D01*
X207418020Y-71781255D01*
X207532044Y-71376449D01*
X207564902Y-70957176D01*
X207515334Y-70539549D01*
X207385243Y-70139617D01*
X207227214Y-69843962D01*
X206911653Y-69687952D01*
X205599605Y-71000000D01*
X205240395Y-71000000D01*
X203928347Y-69687952D01*
X203612786Y-69843962D01*
X203421980Y-70218745D01*
X203307956Y-70623551D01*
X203275098Y-71042824D01*
X203127000Y-71042824D01*
X203127000Y-68877000D01*
X205192644Y-68877000D01*
X204959549Y-68904666D01*
G37*
X204959549Y-68904666D02*
X204559617Y-69034757D01*
X204263962Y-69192786D01*
X204107952Y-69508347D01*
X205420000Y-70820395D01*
X206732048Y-69508347D01*
X206576038Y-69192786D01*
X206201255Y-69001980D01*
X205796449Y-68887956D01*
X205656649Y-68877000D01*
X207873000Y-68877000D01*
X207873000Y-78123000D01*
X204750000Y-78123000D01*
X204725224Y-78125440D01*
X204701399Y-78132667D01*
X204679443Y-78144403D01*
X204660197Y-78160197D01*
X204644403Y-78179443D01*
X204632667Y-78201399D01*
X204625440Y-78225224D01*
X204623000Y-78250000D01*
X204623000Y-84500000D01*
X204625440Y-84524776D01*
X204632667Y-84548601D01*
X204644403Y-84570557D01*
X204660197Y-84589803D01*
X204679443Y-84605597D01*
X204701399Y-84617333D01*
X204725224Y-84624560D01*
X204750000Y-84627000D01*
X229873000Y-84627000D01*
X229873000Y-102123000D01*
X225627000Y-102123000D01*
X225627000Y-99741653D01*
X226187952Y-99741653D01*
X226343962Y-100057214D01*
X226718745Y-100248020D01*
X227123551Y-100362044D01*
X227542824Y-100394902D01*
X227960451Y-100345334D01*
X228360383Y-100215243D01*
X228656038Y-100057214D01*
X228812048Y-99741653D01*
X227500000Y-98429605D01*
X226187952Y-99741653D01*
X225627000Y-99741653D01*
X225627000Y-99282960D01*
X225692786Y-99406038D01*
X226008347Y-99562048D01*
X227320395Y-98250000D01*
X227679605Y-98250000D01*
X228991653Y-99562048D01*
X229307214Y-99406038D01*
X229498020Y-99031255D01*
X229612044Y-98626449D01*
X229644902Y-98207176D01*
X229595334Y-97789549D01*
X229465243Y-97389617D01*
X229307214Y-97093962D01*
X228991653Y-96937952D01*
X227679605Y-98250000D01*
X227320395Y-98250000D01*
X226008347Y-96937952D01*
X225692786Y-97093962D01*
X225627000Y-97223180D01*
X225627000Y-96758347D01*
X226187952Y-96758347D01*
X227500000Y-98070395D01*
X228812048Y-96758347D01*
X228656038Y-96442786D01*
X228281255Y-96251980D01*
X227876449Y-96137956D01*
X227457176Y-96105098D01*
X227039549Y-96154666D01*
X226639617Y-96284757D01*
X226343962Y-96442786D01*
X226187952Y-96758347D01*
X225627000Y-96758347D01*
X225627000Y-94000000D01*
X225624560Y-93975224D01*
X225617333Y-93951399D01*
X225605597Y-93929443D01*
X225589803Y-93910197D01*
X225570557Y-93894403D01*
X225548601Y-93882667D01*
X225524776Y-93875440D01*
X225500000Y-93873000D01*
X197377000Y-93873000D01*
X197377000Y-82235001D01*
X198991929Y-82235001D01*
X198995001Y-84199251D01*
X199153751Y-84358001D01*
X200060534Y-84358001D01*
X200051844Y-84517763D01*
X200050065Y-84519542D01*
X200050906Y-84535001D01*
X200050065Y-84550460D01*
X200051844Y-84552239D01*
X200055095Y-84612001D01*
X199153751Y-84612001D01*
X198995001Y-84770751D01*
X198991929Y-86735001D01*
X199004189Y-86859483D01*
X199040499Y-86979181D01*
X199099464Y-87089495D01*
X199178816Y-87186186D01*
X199275507Y-87265538D01*
X199385821Y-87324503D01*
X199505519Y-87360813D01*
X199630001Y-87373073D01*
X200819251Y-87370001D01*
X200978001Y-87211251D01*
X200978001Y-86734907D01*
X201070460Y-86739937D01*
X201105001Y-86705396D01*
X201139542Y-86739937D01*
X201232001Y-86734907D01*
X201232001Y-87211251D01*
X201390751Y-87370001D01*
X202580001Y-87373073D01*
X202704483Y-87360813D01*
X202824181Y-87324503D01*
X202934495Y-87265538D01*
X203031186Y-87186186D01*
X203110538Y-87089495D01*
X203169503Y-86979181D01*
X203205813Y-86859483D01*
X203218073Y-86735001D01*
X203215001Y-84770751D01*
X203056251Y-84612001D01*
X202154907Y-84612001D01*
X202158158Y-84552239D01*
X202159937Y-84550460D01*
X202159096Y-84535001D01*
X202159937Y-84519542D01*
X202158158Y-84517763D01*
X202149468Y-84358001D01*
X203056251Y-84358001D01*
X203215001Y-84199251D01*
X203218073Y-82235001D01*
X203205813Y-82110519D01*
X203169503Y-81990821D01*
X203110538Y-81880507D01*
X203031186Y-81783816D01*
X202934495Y-81704464D01*
X202824181Y-81645499D01*
X202704483Y-81609189D01*
X202580001Y-81596929D01*
X201390751Y-81600001D01*
X201232001Y-81758751D01*
X201232001Y-82235095D01*
X201139542Y-82230065D01*
X201105001Y-82264606D01*
X201070460Y-82230065D01*
X200978001Y-82235095D01*
X200978001Y-81758751D01*
X200819251Y-81600001D01*
X199630001Y-81596929D01*
X199505519Y-81609189D01*
X199385821Y-81645499D01*
X199275507Y-81704464D01*
X199178816Y-81783816D01*
X199099464Y-81880507D01*
X199040499Y-81990821D01*
X199004189Y-82110519D01*
X198991929Y-82235001D01*
X197377000Y-82235001D01*
X197377000Y-78612425D01*
X197379769Y-74627000D01*
X203000000Y-74627000D01*
X203024776Y-74624560D01*
X203048601Y-74617333D01*
X203070557Y-74605597D01*
X203089803Y-74589803D01*
X203105597Y-74570557D01*
X203117333Y-74548601D01*
X203124560Y-74524776D01*
X203127000Y-74500000D01*
X203127000Y-72491653D01*
X204107952Y-72491653D01*
X204263962Y-72807214D01*
X204638745Y-72998020D01*
X205043551Y-73112044D01*
X205462824Y-73144902D01*
X205880451Y-73095334D01*
X206280383Y-72965243D01*
X206576038Y-72807214D01*
X206732048Y-72491653D01*
X205420000Y-71179605D01*
X204107952Y-72491653D01*
X203127000Y-72491653D01*
X203127000Y-71042824D01*
X203275098Y-71042824D01*
X203324666Y-71460451D01*
X203454757Y-71860383D01*
X203612786Y-72156038D01*
X203928347Y-72312048D01*
X205240395Y-71000000D01*
X205599605Y-71000000D01*
X206911653Y-72312048D01*
X207227214Y-72156038D01*
X207418020Y-71781255D01*
X207532044Y-71376449D01*
X207564902Y-70957176D01*
X207515334Y-70539549D01*
X207385243Y-70139617D01*
X207227214Y-69843962D01*
X206911653Y-69687952D01*
X205599605Y-71000000D01*
X205240395Y-71000000D01*
X203928347Y-69687952D01*
X203612786Y-69843962D01*
X203421980Y-70218745D01*
X203307956Y-70623551D01*
X203275098Y-71042824D01*
X203127000Y-71042824D01*
X203127000Y-68877000D01*
X205192644Y-68877000D01*
X204959549Y-68904666D01*
G36*
X201139542Y-84339937D02*
G01*
X201232001Y-84334907D01*
X201232001Y-84358001D01*
X201260534Y-84358001D01*
X201251844Y-84517763D01*
X201250065Y-84519542D01*
X201250906Y-84535001D01*
X201250065Y-84550460D01*
X201251844Y-84552239D01*
X201255095Y-84612001D01*
X201232001Y-84612001D01*
X201232001Y-84735095D01*
X201139542Y-84730065D01*
X201105001Y-84764606D01*
X201070460Y-84730065D01*
X200978001Y-84735095D01*
X200978001Y-84612001D01*
X200954907Y-84612001D01*
X200958158Y-84552239D01*
X200959937Y-84550460D01*
X200959096Y-84535001D01*
X200959937Y-84519542D01*
X200958158Y-84517763D01*
X200949468Y-84358001D01*
X200978001Y-84358001D01*
X200978001Y-84334907D01*
X201070460Y-84339937D01*
X201105001Y-84305396D01*
X201139542Y-84339937D01*
G37*
X201139542Y-84339937D02*
X201232001Y-84334907D01*
X201232001Y-84358001D01*
X201260534Y-84358001D01*
X201251844Y-84517763D01*
X201250065Y-84519542D01*
X201250906Y-84535001D01*
X201250065Y-84550460D01*
X201251844Y-84552239D01*
X201255095Y-84612001D01*
X201232001Y-84612001D01*
X201232001Y-84735095D01*
X201139542Y-84730065D01*
X201105001Y-84764606D01*
X201070460Y-84730065D01*
X200978001Y-84735095D01*
X200978001Y-84612001D01*
X200954907Y-84612001D01*
X200958158Y-84552239D01*
X200959937Y-84550460D01*
X200959096Y-84535001D01*
X200959937Y-84519542D01*
X200958158Y-84517763D01*
X200949468Y-84358001D01*
X200978001Y-84358001D01*
X200978001Y-84334907D01*
X201070460Y-84339937D01*
X201105001Y-84305396D01*
X201139542Y-84339937D01*
G36*
X212873000Y-83473000D02*
G01*
X205827000Y-83473000D01*
X205827000Y-79227000D01*
X208600000Y-79227000D01*
X208624776Y-79224560D01*
X208648601Y-79217333D01*
X208670557Y-79205597D01*
X208689803Y-79189803D01*
X208705597Y-79170557D01*
X208717333Y-79148601D01*
X208724560Y-79124776D01*
X208727000Y-79100000D01*
X208727000Y-73074097D01*
X208755820Y-73089502D01*
X208875518Y-73125812D01*
X209000000Y-73138072D01*
X210214250Y-73135000D01*
X210373000Y-72976250D01*
X210373000Y-71127000D01*
X210627000Y-71127000D01*
X210627000Y-72976250D01*
X210785750Y-73135000D01*
X212000000Y-73138072D01*
X212124482Y-73125812D01*
X212244180Y-73089502D01*
X212354494Y-73030537D01*
X212451185Y-72951185D01*
X212530537Y-72854494D01*
X212589502Y-72744180D01*
X212625812Y-72624482D01*
X212638072Y-72500000D01*
X212635000Y-71285750D01*
X212476250Y-71127000D01*
X210627000Y-71127000D01*
X210373000Y-71127000D01*
X210353000Y-71127000D01*
X210353000Y-70873000D01*
X210373000Y-70873000D01*
X210373000Y-70853000D01*
X210627000Y-70853000D01*
X210627000Y-70873000D01*
X212476250Y-70873000D01*
X212635000Y-70714250D01*
X212638072Y-69500000D01*
X212625812Y-69375518D01*
X212589502Y-69255820D01*
X212530537Y-69145506D01*
X212451185Y-69048815D01*
X212354494Y-68969463D01*
X212244180Y-68910498D01*
X212133752Y-68877000D01*
X212873000Y-68877000D01*
X212873000Y-83473000D01*
G37*
X212873000Y-83473000D02*
X205827000Y-83473000D01*
X205827000Y-79227000D01*
X208600000Y-79227000D01*
X208624776Y-79224560D01*
X208648601Y-79217333D01*
X208670557Y-79205597D01*
X208689803Y-79189803D01*
X208705597Y-79170557D01*
X208717333Y-79148601D01*
X208724560Y-79124776D01*
X208727000Y-79100000D01*
X208727000Y-73074097D01*
X208755820Y-73089502D01*
X208875518Y-73125812D01*
X209000000Y-73138072D01*
X210214250Y-73135000D01*
X210373000Y-72976250D01*
X210373000Y-71127000D01*
X210627000Y-71127000D01*
X210627000Y-72976250D01*
X210785750Y-73135000D01*
X212000000Y-73138072D01*
X212124482Y-73125812D01*
X212244180Y-73089502D01*
X212354494Y-73030537D01*
X212451185Y-72951185D01*
X212530537Y-72854494D01*
X212589502Y-72744180D01*
X212625812Y-72624482D01*
X212638072Y-72500000D01*
X212635000Y-71285750D01*
X212476250Y-71127000D01*
X210627000Y-71127000D01*
X210373000Y-71127000D01*
X210353000Y-71127000D01*
X210353000Y-70873000D01*
X210373000Y-70873000D01*
X210373000Y-70853000D01*
X210627000Y-70853000D01*
X210627000Y-70873000D01*
X212476250Y-70873000D01*
X212635000Y-70714250D01*
X212638072Y-69500000D01*
X212625812Y-69375518D01*
X212589502Y-69255820D01*
X212530537Y-69145506D01*
X212451185Y-69048815D01*
X212354494Y-68969463D01*
X212244180Y-68910498D01*
X212133752Y-68877000D01*
X212873000Y-68877000D01*
X212873000Y-83473000D01*
M02*
