G04 #@! TF.GenerationSoftware,KiCad,Pcbnew,(5.1.5)-3*
G04 #@! TF.CreationDate,2020-11-29T18:23:40-05:00*
G04 #@! TF.ProjectId,Buck_Controle,4275636b-5f43-46f6-9e74-726f6c652e6b,rev?*
G04 #@! TF.SameCoordinates,Original*
G04 #@! TF.FileFunction,Paste,Top*
G04 #@! TF.FilePolarity,Positive*
%FSLAX46Y46*%
G04 Gerber Fmt 4.6, Leading zero omitted, Abs format (unit mm)*
G04 Created by KiCad (PCBNEW (5.1.5)-3) date 2020-11-29 18:23:40*
%MOMM*%
%LPD*%
G04 APERTURE LIST*
%ADD10C,0.100000*%
%ADD11R,1.300000X2.400000*%
%ADD12R,2.800000X5.300000*%
%ADD13R,2.600000X3.100000*%
%ADD14R,1.550000X0.600000*%
%ADD15R,3.300000X2.500000*%
G04 APERTURE END LIST*
D10*
G36*
X202197642Y-79311174D02*
G01*
X202221303Y-79314684D01*
X202244507Y-79320496D01*
X202267029Y-79328554D01*
X202288653Y-79338782D01*
X202309170Y-79351079D01*
X202328383Y-79365329D01*
X202346107Y-79381393D01*
X202362171Y-79399117D01*
X202376421Y-79418330D01*
X202388718Y-79438847D01*
X202398946Y-79460471D01*
X202407004Y-79482993D01*
X202412816Y-79506197D01*
X202416326Y-79529858D01*
X202417500Y-79553750D01*
X202417500Y-80466250D01*
X202416326Y-80490142D01*
X202412816Y-80513803D01*
X202407004Y-80537007D01*
X202398946Y-80559529D01*
X202388718Y-80581153D01*
X202376421Y-80601670D01*
X202362171Y-80620883D01*
X202346107Y-80638607D01*
X202328383Y-80654671D01*
X202309170Y-80668921D01*
X202288653Y-80681218D01*
X202267029Y-80691446D01*
X202244507Y-80699504D01*
X202221303Y-80705316D01*
X202197642Y-80708826D01*
X202173750Y-80710000D01*
X201686250Y-80710000D01*
X201662358Y-80708826D01*
X201638697Y-80705316D01*
X201615493Y-80699504D01*
X201592971Y-80691446D01*
X201571347Y-80681218D01*
X201550830Y-80668921D01*
X201531617Y-80654671D01*
X201513893Y-80638607D01*
X201497829Y-80620883D01*
X201483579Y-80601670D01*
X201471282Y-80581153D01*
X201461054Y-80559529D01*
X201452996Y-80537007D01*
X201447184Y-80513803D01*
X201443674Y-80490142D01*
X201442500Y-80466250D01*
X201442500Y-79553750D01*
X201443674Y-79529858D01*
X201447184Y-79506197D01*
X201452996Y-79482993D01*
X201461054Y-79460471D01*
X201471282Y-79438847D01*
X201483579Y-79418330D01*
X201497829Y-79399117D01*
X201513893Y-79381393D01*
X201531617Y-79365329D01*
X201550830Y-79351079D01*
X201571347Y-79338782D01*
X201592971Y-79328554D01*
X201615493Y-79320496D01*
X201638697Y-79314684D01*
X201662358Y-79311174D01*
X201686250Y-79310000D01*
X202173750Y-79310000D01*
X202197642Y-79311174D01*
G37*
G36*
X200322642Y-79311174D02*
G01*
X200346303Y-79314684D01*
X200369507Y-79320496D01*
X200392029Y-79328554D01*
X200413653Y-79338782D01*
X200434170Y-79351079D01*
X200453383Y-79365329D01*
X200471107Y-79381393D01*
X200487171Y-79399117D01*
X200501421Y-79418330D01*
X200513718Y-79438847D01*
X200523946Y-79460471D01*
X200532004Y-79482993D01*
X200537816Y-79506197D01*
X200541326Y-79529858D01*
X200542500Y-79553750D01*
X200542500Y-80466250D01*
X200541326Y-80490142D01*
X200537816Y-80513803D01*
X200532004Y-80537007D01*
X200523946Y-80559529D01*
X200513718Y-80581153D01*
X200501421Y-80601670D01*
X200487171Y-80620883D01*
X200471107Y-80638607D01*
X200453383Y-80654671D01*
X200434170Y-80668921D01*
X200413653Y-80681218D01*
X200392029Y-80691446D01*
X200369507Y-80699504D01*
X200346303Y-80705316D01*
X200322642Y-80708826D01*
X200298750Y-80710000D01*
X199811250Y-80710000D01*
X199787358Y-80708826D01*
X199763697Y-80705316D01*
X199740493Y-80699504D01*
X199717971Y-80691446D01*
X199696347Y-80681218D01*
X199675830Y-80668921D01*
X199656617Y-80654671D01*
X199638893Y-80638607D01*
X199622829Y-80620883D01*
X199608579Y-80601670D01*
X199596282Y-80581153D01*
X199586054Y-80559529D01*
X199577996Y-80537007D01*
X199572184Y-80513803D01*
X199568674Y-80490142D01*
X199567500Y-80466250D01*
X199567500Y-79553750D01*
X199568674Y-79529858D01*
X199572184Y-79506197D01*
X199577996Y-79482993D01*
X199586054Y-79460471D01*
X199596282Y-79438847D01*
X199608579Y-79418330D01*
X199622829Y-79399117D01*
X199638893Y-79381393D01*
X199656617Y-79365329D01*
X199675830Y-79351079D01*
X199696347Y-79338782D01*
X199717971Y-79328554D01*
X199740493Y-79320496D01*
X199763697Y-79314684D01*
X199787358Y-79311174D01*
X199811250Y-79310000D01*
X200298750Y-79310000D01*
X200322642Y-79311174D01*
G37*
D11*
X225300000Y-87350000D03*
X231400000Y-87350000D03*
D12*
X222450000Y-78800000D03*
X232550000Y-78800000D03*
D10*
G36*
X200087142Y-87566174D02*
G01*
X200110803Y-87569684D01*
X200134007Y-87575496D01*
X200156529Y-87583554D01*
X200178153Y-87593782D01*
X200198670Y-87606079D01*
X200217883Y-87620329D01*
X200235607Y-87636393D01*
X200251671Y-87654117D01*
X200265921Y-87673330D01*
X200278218Y-87693847D01*
X200288446Y-87715471D01*
X200296504Y-87737993D01*
X200302316Y-87761197D01*
X200305826Y-87784858D01*
X200307000Y-87808750D01*
X200307000Y-88721250D01*
X200305826Y-88745142D01*
X200302316Y-88768803D01*
X200296504Y-88792007D01*
X200288446Y-88814529D01*
X200278218Y-88836153D01*
X200265921Y-88856670D01*
X200251671Y-88875883D01*
X200235607Y-88893607D01*
X200217883Y-88909671D01*
X200198670Y-88923921D01*
X200178153Y-88936218D01*
X200156529Y-88946446D01*
X200134007Y-88954504D01*
X200110803Y-88960316D01*
X200087142Y-88963826D01*
X200063250Y-88965000D01*
X199575750Y-88965000D01*
X199551858Y-88963826D01*
X199528197Y-88960316D01*
X199504993Y-88954504D01*
X199482471Y-88946446D01*
X199460847Y-88936218D01*
X199440330Y-88923921D01*
X199421117Y-88909671D01*
X199403393Y-88893607D01*
X199387329Y-88875883D01*
X199373079Y-88856670D01*
X199360782Y-88836153D01*
X199350554Y-88814529D01*
X199342496Y-88792007D01*
X199336684Y-88768803D01*
X199333174Y-88745142D01*
X199332000Y-88721250D01*
X199332000Y-87808750D01*
X199333174Y-87784858D01*
X199336684Y-87761197D01*
X199342496Y-87737993D01*
X199350554Y-87715471D01*
X199360782Y-87693847D01*
X199373079Y-87673330D01*
X199387329Y-87654117D01*
X199403393Y-87636393D01*
X199421117Y-87620329D01*
X199440330Y-87606079D01*
X199460847Y-87593782D01*
X199482471Y-87583554D01*
X199504993Y-87575496D01*
X199528197Y-87569684D01*
X199551858Y-87566174D01*
X199575750Y-87565000D01*
X200063250Y-87565000D01*
X200087142Y-87566174D01*
G37*
G36*
X198212142Y-87566174D02*
G01*
X198235803Y-87569684D01*
X198259007Y-87575496D01*
X198281529Y-87583554D01*
X198303153Y-87593782D01*
X198323670Y-87606079D01*
X198342883Y-87620329D01*
X198360607Y-87636393D01*
X198376671Y-87654117D01*
X198390921Y-87673330D01*
X198403218Y-87693847D01*
X198413446Y-87715471D01*
X198421504Y-87737993D01*
X198427316Y-87761197D01*
X198430826Y-87784858D01*
X198432000Y-87808750D01*
X198432000Y-88721250D01*
X198430826Y-88745142D01*
X198427316Y-88768803D01*
X198421504Y-88792007D01*
X198413446Y-88814529D01*
X198403218Y-88836153D01*
X198390921Y-88856670D01*
X198376671Y-88875883D01*
X198360607Y-88893607D01*
X198342883Y-88909671D01*
X198323670Y-88923921D01*
X198303153Y-88936218D01*
X198281529Y-88946446D01*
X198259007Y-88954504D01*
X198235803Y-88960316D01*
X198212142Y-88963826D01*
X198188250Y-88965000D01*
X197700750Y-88965000D01*
X197676858Y-88963826D01*
X197653197Y-88960316D01*
X197629993Y-88954504D01*
X197607471Y-88946446D01*
X197585847Y-88936218D01*
X197565330Y-88923921D01*
X197546117Y-88909671D01*
X197528393Y-88893607D01*
X197512329Y-88875883D01*
X197498079Y-88856670D01*
X197485782Y-88836153D01*
X197475554Y-88814529D01*
X197467496Y-88792007D01*
X197461684Y-88768803D01*
X197458174Y-88745142D01*
X197457000Y-88721250D01*
X197457000Y-87808750D01*
X197458174Y-87784858D01*
X197461684Y-87761197D01*
X197467496Y-87737993D01*
X197475554Y-87715471D01*
X197485782Y-87693847D01*
X197498079Y-87673330D01*
X197512329Y-87654117D01*
X197528393Y-87636393D01*
X197546117Y-87620329D01*
X197565330Y-87606079D01*
X197585847Y-87593782D01*
X197607471Y-87583554D01*
X197629993Y-87575496D01*
X197653197Y-87569684D01*
X197676858Y-87566174D01*
X197700750Y-87565000D01*
X198188250Y-87565000D01*
X198212142Y-87566174D01*
G37*
G36*
X198600142Y-91510174D02*
G01*
X198623803Y-91513684D01*
X198647007Y-91519496D01*
X198669529Y-91527554D01*
X198691153Y-91537782D01*
X198711670Y-91550079D01*
X198730883Y-91564329D01*
X198748607Y-91580393D01*
X198764671Y-91598117D01*
X198778921Y-91617330D01*
X198791218Y-91637847D01*
X198801446Y-91659471D01*
X198809504Y-91681993D01*
X198815316Y-91705197D01*
X198818826Y-91728858D01*
X198820000Y-91752750D01*
X198820000Y-92240250D01*
X198818826Y-92264142D01*
X198815316Y-92287803D01*
X198809504Y-92311007D01*
X198801446Y-92333529D01*
X198791218Y-92355153D01*
X198778921Y-92375670D01*
X198764671Y-92394883D01*
X198748607Y-92412607D01*
X198730883Y-92428671D01*
X198711670Y-92442921D01*
X198691153Y-92455218D01*
X198669529Y-92465446D01*
X198647007Y-92473504D01*
X198623803Y-92479316D01*
X198600142Y-92482826D01*
X198576250Y-92484000D01*
X197663750Y-92484000D01*
X197639858Y-92482826D01*
X197616197Y-92479316D01*
X197592993Y-92473504D01*
X197570471Y-92465446D01*
X197548847Y-92455218D01*
X197528330Y-92442921D01*
X197509117Y-92428671D01*
X197491393Y-92412607D01*
X197475329Y-92394883D01*
X197461079Y-92375670D01*
X197448782Y-92355153D01*
X197438554Y-92333529D01*
X197430496Y-92311007D01*
X197424684Y-92287803D01*
X197421174Y-92264142D01*
X197420000Y-92240250D01*
X197420000Y-91752750D01*
X197421174Y-91728858D01*
X197424684Y-91705197D01*
X197430496Y-91681993D01*
X197438554Y-91659471D01*
X197448782Y-91637847D01*
X197461079Y-91617330D01*
X197475329Y-91598117D01*
X197491393Y-91580393D01*
X197509117Y-91564329D01*
X197528330Y-91550079D01*
X197548847Y-91537782D01*
X197570471Y-91527554D01*
X197592993Y-91519496D01*
X197616197Y-91513684D01*
X197639858Y-91510174D01*
X197663750Y-91509000D01*
X198576250Y-91509000D01*
X198600142Y-91510174D01*
G37*
G36*
X198600142Y-89635174D02*
G01*
X198623803Y-89638684D01*
X198647007Y-89644496D01*
X198669529Y-89652554D01*
X198691153Y-89662782D01*
X198711670Y-89675079D01*
X198730883Y-89689329D01*
X198748607Y-89705393D01*
X198764671Y-89723117D01*
X198778921Y-89742330D01*
X198791218Y-89762847D01*
X198801446Y-89784471D01*
X198809504Y-89806993D01*
X198815316Y-89830197D01*
X198818826Y-89853858D01*
X198820000Y-89877750D01*
X198820000Y-90365250D01*
X198818826Y-90389142D01*
X198815316Y-90412803D01*
X198809504Y-90436007D01*
X198801446Y-90458529D01*
X198791218Y-90480153D01*
X198778921Y-90500670D01*
X198764671Y-90519883D01*
X198748607Y-90537607D01*
X198730883Y-90553671D01*
X198711670Y-90567921D01*
X198691153Y-90580218D01*
X198669529Y-90590446D01*
X198647007Y-90598504D01*
X198623803Y-90604316D01*
X198600142Y-90607826D01*
X198576250Y-90609000D01*
X197663750Y-90609000D01*
X197639858Y-90607826D01*
X197616197Y-90604316D01*
X197592993Y-90598504D01*
X197570471Y-90590446D01*
X197548847Y-90580218D01*
X197528330Y-90567921D01*
X197509117Y-90553671D01*
X197491393Y-90537607D01*
X197475329Y-90519883D01*
X197461079Y-90500670D01*
X197448782Y-90480153D01*
X197438554Y-90458529D01*
X197430496Y-90436007D01*
X197424684Y-90412803D01*
X197421174Y-90389142D01*
X197420000Y-90365250D01*
X197420000Y-89877750D01*
X197421174Y-89853858D01*
X197424684Y-89830197D01*
X197430496Y-89806993D01*
X197438554Y-89784471D01*
X197448782Y-89762847D01*
X197461079Y-89742330D01*
X197475329Y-89723117D01*
X197491393Y-89705393D01*
X197509117Y-89689329D01*
X197528330Y-89675079D01*
X197548847Y-89662782D01*
X197570471Y-89652554D01*
X197592993Y-89644496D01*
X197616197Y-89638684D01*
X197639858Y-89635174D01*
X197663750Y-89634000D01*
X198576250Y-89634000D01*
X198600142Y-89635174D01*
G37*
D13*
X201105001Y-84485001D03*
D14*
X198405001Y-82580001D03*
X198405001Y-83850001D03*
X198405001Y-85120001D03*
X198405001Y-86390001D03*
X203805001Y-86390001D03*
X203805001Y-85120001D03*
X203805001Y-83850001D03*
X203805001Y-82580001D03*
D15*
X216535000Y-78515000D03*
X216535000Y-85315000D03*
D10*
G36*
X210665142Y-82901174D02*
G01*
X210688803Y-82904684D01*
X210712007Y-82910496D01*
X210734529Y-82918554D01*
X210756153Y-82928782D01*
X210776670Y-82941079D01*
X210795883Y-82955329D01*
X210813607Y-82971393D01*
X210829671Y-82989117D01*
X210843921Y-83008330D01*
X210856218Y-83028847D01*
X210866446Y-83050471D01*
X210874504Y-83072993D01*
X210880316Y-83096197D01*
X210883826Y-83119858D01*
X210885000Y-83143750D01*
X210885000Y-83631250D01*
X210883826Y-83655142D01*
X210880316Y-83678803D01*
X210874504Y-83702007D01*
X210866446Y-83724529D01*
X210856218Y-83746153D01*
X210843921Y-83766670D01*
X210829671Y-83785883D01*
X210813607Y-83803607D01*
X210795883Y-83819671D01*
X210776670Y-83833921D01*
X210756153Y-83846218D01*
X210734529Y-83856446D01*
X210712007Y-83864504D01*
X210688803Y-83870316D01*
X210665142Y-83873826D01*
X210641250Y-83875000D01*
X209728750Y-83875000D01*
X209704858Y-83873826D01*
X209681197Y-83870316D01*
X209657993Y-83864504D01*
X209635471Y-83856446D01*
X209613847Y-83846218D01*
X209593330Y-83833921D01*
X209574117Y-83819671D01*
X209556393Y-83803607D01*
X209540329Y-83785883D01*
X209526079Y-83766670D01*
X209513782Y-83746153D01*
X209503554Y-83724529D01*
X209495496Y-83702007D01*
X209489684Y-83678803D01*
X209486174Y-83655142D01*
X209485000Y-83631250D01*
X209485000Y-83143750D01*
X209486174Y-83119858D01*
X209489684Y-83096197D01*
X209495496Y-83072993D01*
X209503554Y-83050471D01*
X209513782Y-83028847D01*
X209526079Y-83008330D01*
X209540329Y-82989117D01*
X209556393Y-82971393D01*
X209574117Y-82955329D01*
X209593330Y-82941079D01*
X209613847Y-82928782D01*
X209635471Y-82918554D01*
X209657993Y-82910496D01*
X209681197Y-82904684D01*
X209704858Y-82901174D01*
X209728750Y-82900000D01*
X210641250Y-82900000D01*
X210665142Y-82901174D01*
G37*
G36*
X210665142Y-84776174D02*
G01*
X210688803Y-84779684D01*
X210712007Y-84785496D01*
X210734529Y-84793554D01*
X210756153Y-84803782D01*
X210776670Y-84816079D01*
X210795883Y-84830329D01*
X210813607Y-84846393D01*
X210829671Y-84864117D01*
X210843921Y-84883330D01*
X210856218Y-84903847D01*
X210866446Y-84925471D01*
X210874504Y-84947993D01*
X210880316Y-84971197D01*
X210883826Y-84994858D01*
X210885000Y-85018750D01*
X210885000Y-85506250D01*
X210883826Y-85530142D01*
X210880316Y-85553803D01*
X210874504Y-85577007D01*
X210866446Y-85599529D01*
X210856218Y-85621153D01*
X210843921Y-85641670D01*
X210829671Y-85660883D01*
X210813607Y-85678607D01*
X210795883Y-85694671D01*
X210776670Y-85708921D01*
X210756153Y-85721218D01*
X210734529Y-85731446D01*
X210712007Y-85739504D01*
X210688803Y-85745316D01*
X210665142Y-85748826D01*
X210641250Y-85750000D01*
X209728750Y-85750000D01*
X209704858Y-85748826D01*
X209681197Y-85745316D01*
X209657993Y-85739504D01*
X209635471Y-85731446D01*
X209613847Y-85721218D01*
X209593330Y-85708921D01*
X209574117Y-85694671D01*
X209556393Y-85678607D01*
X209540329Y-85660883D01*
X209526079Y-85641670D01*
X209513782Y-85621153D01*
X209503554Y-85599529D01*
X209495496Y-85577007D01*
X209489684Y-85553803D01*
X209486174Y-85530142D01*
X209485000Y-85506250D01*
X209485000Y-85018750D01*
X209486174Y-84994858D01*
X209489684Y-84971197D01*
X209495496Y-84947993D01*
X209503554Y-84925471D01*
X209513782Y-84903847D01*
X209526079Y-84883330D01*
X209540329Y-84864117D01*
X209556393Y-84846393D01*
X209574117Y-84830329D01*
X209593330Y-84816079D01*
X209613847Y-84803782D01*
X209635471Y-84793554D01*
X209657993Y-84785496D01*
X209681197Y-84779684D01*
X209704858Y-84776174D01*
X209728750Y-84775000D01*
X210641250Y-84775000D01*
X210665142Y-84776174D01*
G37*
G36*
X208760142Y-84776174D02*
G01*
X208783803Y-84779684D01*
X208807007Y-84785496D01*
X208829529Y-84793554D01*
X208851153Y-84803782D01*
X208871670Y-84816079D01*
X208890883Y-84830329D01*
X208908607Y-84846393D01*
X208924671Y-84864117D01*
X208938921Y-84883330D01*
X208951218Y-84903847D01*
X208961446Y-84925471D01*
X208969504Y-84947993D01*
X208975316Y-84971197D01*
X208978826Y-84994858D01*
X208980000Y-85018750D01*
X208980000Y-85506250D01*
X208978826Y-85530142D01*
X208975316Y-85553803D01*
X208969504Y-85577007D01*
X208961446Y-85599529D01*
X208951218Y-85621153D01*
X208938921Y-85641670D01*
X208924671Y-85660883D01*
X208908607Y-85678607D01*
X208890883Y-85694671D01*
X208871670Y-85708921D01*
X208851153Y-85721218D01*
X208829529Y-85731446D01*
X208807007Y-85739504D01*
X208783803Y-85745316D01*
X208760142Y-85748826D01*
X208736250Y-85750000D01*
X207823750Y-85750000D01*
X207799858Y-85748826D01*
X207776197Y-85745316D01*
X207752993Y-85739504D01*
X207730471Y-85731446D01*
X207708847Y-85721218D01*
X207688330Y-85708921D01*
X207669117Y-85694671D01*
X207651393Y-85678607D01*
X207635329Y-85660883D01*
X207621079Y-85641670D01*
X207608782Y-85621153D01*
X207598554Y-85599529D01*
X207590496Y-85577007D01*
X207584684Y-85553803D01*
X207581174Y-85530142D01*
X207580000Y-85506250D01*
X207580000Y-85018750D01*
X207581174Y-84994858D01*
X207584684Y-84971197D01*
X207590496Y-84947993D01*
X207598554Y-84925471D01*
X207608782Y-84903847D01*
X207621079Y-84883330D01*
X207635329Y-84864117D01*
X207651393Y-84846393D01*
X207669117Y-84830329D01*
X207688330Y-84816079D01*
X207708847Y-84803782D01*
X207730471Y-84793554D01*
X207752993Y-84785496D01*
X207776197Y-84779684D01*
X207799858Y-84776174D01*
X207823750Y-84775000D01*
X208736250Y-84775000D01*
X208760142Y-84776174D01*
G37*
G36*
X208760142Y-82901174D02*
G01*
X208783803Y-82904684D01*
X208807007Y-82910496D01*
X208829529Y-82918554D01*
X208851153Y-82928782D01*
X208871670Y-82941079D01*
X208890883Y-82955329D01*
X208908607Y-82971393D01*
X208924671Y-82989117D01*
X208938921Y-83008330D01*
X208951218Y-83028847D01*
X208961446Y-83050471D01*
X208969504Y-83072993D01*
X208975316Y-83096197D01*
X208978826Y-83119858D01*
X208980000Y-83143750D01*
X208980000Y-83631250D01*
X208978826Y-83655142D01*
X208975316Y-83678803D01*
X208969504Y-83702007D01*
X208961446Y-83724529D01*
X208951218Y-83746153D01*
X208938921Y-83766670D01*
X208924671Y-83785883D01*
X208908607Y-83803607D01*
X208890883Y-83819671D01*
X208871670Y-83833921D01*
X208851153Y-83846218D01*
X208829529Y-83856446D01*
X208807007Y-83864504D01*
X208783803Y-83870316D01*
X208760142Y-83873826D01*
X208736250Y-83875000D01*
X207823750Y-83875000D01*
X207799858Y-83873826D01*
X207776197Y-83870316D01*
X207752993Y-83864504D01*
X207730471Y-83856446D01*
X207708847Y-83846218D01*
X207688330Y-83833921D01*
X207669117Y-83819671D01*
X207651393Y-83803607D01*
X207635329Y-83785883D01*
X207621079Y-83766670D01*
X207608782Y-83746153D01*
X207598554Y-83724529D01*
X207590496Y-83702007D01*
X207584684Y-83678803D01*
X207581174Y-83655142D01*
X207580000Y-83631250D01*
X207580000Y-83143750D01*
X207581174Y-83119858D01*
X207584684Y-83096197D01*
X207590496Y-83072993D01*
X207598554Y-83050471D01*
X207608782Y-83028847D01*
X207621079Y-83008330D01*
X207635329Y-82989117D01*
X207651393Y-82971393D01*
X207669117Y-82955329D01*
X207688330Y-82941079D01*
X207708847Y-82928782D01*
X207730471Y-82918554D01*
X207752993Y-82910496D01*
X207776197Y-82904684D01*
X207799858Y-82901174D01*
X207823750Y-82900000D01*
X208736250Y-82900000D01*
X208760142Y-82901174D01*
G37*
G36*
X206855142Y-82901174D02*
G01*
X206878803Y-82904684D01*
X206902007Y-82910496D01*
X206924529Y-82918554D01*
X206946153Y-82928782D01*
X206966670Y-82941079D01*
X206985883Y-82955329D01*
X207003607Y-82971393D01*
X207019671Y-82989117D01*
X207033921Y-83008330D01*
X207046218Y-83028847D01*
X207056446Y-83050471D01*
X207064504Y-83072993D01*
X207070316Y-83096197D01*
X207073826Y-83119858D01*
X207075000Y-83143750D01*
X207075000Y-83631250D01*
X207073826Y-83655142D01*
X207070316Y-83678803D01*
X207064504Y-83702007D01*
X207056446Y-83724529D01*
X207046218Y-83746153D01*
X207033921Y-83766670D01*
X207019671Y-83785883D01*
X207003607Y-83803607D01*
X206985883Y-83819671D01*
X206966670Y-83833921D01*
X206946153Y-83846218D01*
X206924529Y-83856446D01*
X206902007Y-83864504D01*
X206878803Y-83870316D01*
X206855142Y-83873826D01*
X206831250Y-83875000D01*
X205918750Y-83875000D01*
X205894858Y-83873826D01*
X205871197Y-83870316D01*
X205847993Y-83864504D01*
X205825471Y-83856446D01*
X205803847Y-83846218D01*
X205783330Y-83833921D01*
X205764117Y-83819671D01*
X205746393Y-83803607D01*
X205730329Y-83785883D01*
X205716079Y-83766670D01*
X205703782Y-83746153D01*
X205693554Y-83724529D01*
X205685496Y-83702007D01*
X205679684Y-83678803D01*
X205676174Y-83655142D01*
X205675000Y-83631250D01*
X205675000Y-83143750D01*
X205676174Y-83119858D01*
X205679684Y-83096197D01*
X205685496Y-83072993D01*
X205693554Y-83050471D01*
X205703782Y-83028847D01*
X205716079Y-83008330D01*
X205730329Y-82989117D01*
X205746393Y-82971393D01*
X205764117Y-82955329D01*
X205783330Y-82941079D01*
X205803847Y-82928782D01*
X205825471Y-82918554D01*
X205847993Y-82910496D01*
X205871197Y-82904684D01*
X205894858Y-82901174D01*
X205918750Y-82900000D01*
X206831250Y-82900000D01*
X206855142Y-82901174D01*
G37*
G36*
X206855142Y-84776174D02*
G01*
X206878803Y-84779684D01*
X206902007Y-84785496D01*
X206924529Y-84793554D01*
X206946153Y-84803782D01*
X206966670Y-84816079D01*
X206985883Y-84830329D01*
X207003607Y-84846393D01*
X207019671Y-84864117D01*
X207033921Y-84883330D01*
X207046218Y-84903847D01*
X207056446Y-84925471D01*
X207064504Y-84947993D01*
X207070316Y-84971197D01*
X207073826Y-84994858D01*
X207075000Y-85018750D01*
X207075000Y-85506250D01*
X207073826Y-85530142D01*
X207070316Y-85553803D01*
X207064504Y-85577007D01*
X207056446Y-85599529D01*
X207046218Y-85621153D01*
X207033921Y-85641670D01*
X207019671Y-85660883D01*
X207003607Y-85678607D01*
X206985883Y-85694671D01*
X206966670Y-85708921D01*
X206946153Y-85721218D01*
X206924529Y-85731446D01*
X206902007Y-85739504D01*
X206878803Y-85745316D01*
X206855142Y-85748826D01*
X206831250Y-85750000D01*
X205918750Y-85750000D01*
X205894858Y-85748826D01*
X205871197Y-85745316D01*
X205847993Y-85739504D01*
X205825471Y-85731446D01*
X205803847Y-85721218D01*
X205783330Y-85708921D01*
X205764117Y-85694671D01*
X205746393Y-85678607D01*
X205730329Y-85660883D01*
X205716079Y-85641670D01*
X205703782Y-85621153D01*
X205693554Y-85599529D01*
X205685496Y-85577007D01*
X205679684Y-85553803D01*
X205676174Y-85530142D01*
X205675000Y-85506250D01*
X205675000Y-85018750D01*
X205676174Y-84994858D01*
X205679684Y-84971197D01*
X205685496Y-84947993D01*
X205693554Y-84925471D01*
X205703782Y-84903847D01*
X205716079Y-84883330D01*
X205730329Y-84864117D01*
X205746393Y-84846393D01*
X205764117Y-84830329D01*
X205783330Y-84816079D01*
X205803847Y-84803782D01*
X205825471Y-84793554D01*
X205847993Y-84785496D01*
X205871197Y-84779684D01*
X205894858Y-84776174D01*
X205918750Y-84775000D01*
X206831250Y-84775000D01*
X206855142Y-84776174D01*
G37*
M02*
